SplineFontDB: 3.0
FontName: Boogaloo-Regular
FullName: Boogaloo
FamilyName: Boogaloo
Weight: Book
Copyright: Copyright (c) 2011, John Vargas Beltran (www.johnvargasbeltran.com|john.vargasbeltran@gmail.com), with Reserved Font Name "Boogaloo".
Version: 1.001
ItalicAngle: 0
UnderlinePosition: -122
UnderlineWidth: 79
Ascent: 800
Descent: 200
sfntRevision: 0x00010042
LayerCount: 2
Layer: 0 1 "Back"  1
Layer: 1 1 "Fore"  0
XUID: [1021 249 870556582 14744102]
FSType: 0
OS2Version: 2
OS2_WeightWidthSlopeOnly: 0
OS2_UseTypoMetrics: 1
CreationTime: 1324165725
ModificationTime: 1324194835
PfmFamily: 65
TTFWeight: 400
TTFWidth: 5
LineGap: 0
VLineGap: 0
Panose: 3 6 9 2 3 2 2 2 2 3
OS2TypoAscent: 143
OS2TypoAOffset: 1
OS2TypoDescent: -46
OS2TypoDOffset: 1
OS2TypoLinegap: 0
OS2WinAscent: 0
OS2WinAOffset: 1
OS2WinDescent: 0
OS2WinDOffset: 1
HheadAscent: 0
HheadAOffset: 1
HheadDescent: 0
HheadDOffset: 1
OS2SubXSize: 660
OS2SubYSize: 600
OS2SubXOff: 0
OS2SubYOff: -188
OS2SupXSize: 660
OS2SupYSize: 600
OS2SupXOff: 0
OS2SupYOff: 251
OS2StrikeYSize: 50
OS2StrikeYPos: 250
OS2FamilyClass: 2566
OS2Vendor: 'MYFO'
OS2CodePages: 00000001.00000000
OS2UnicodeRanges: 00000023.00000000.00000000.00000000
Lookup: 258 0 0 "'kern' Horizontal Kerning in Latin lookup 0"  {"'kern' Horizontal Kerning in Latin lookup 0 subtable"  } ['kern' ('DFLT' <'dflt' > 'latn' <'dflt' > ) ]
DEI: 91125
TtTable: prep
PUSHW_1
 511
SCANCTRL
PUSHB_1
 4
SCANTYPE
EndTTInstrs
ShortTable: maxp 16
  1
  0
  294
  64
  7
  0
  0
  2
  0
  1
  1
  0
  64
  0
  0
  0
EndShort
LangName: 1033 "" "" "" "JohnVargasBeltran: Boogaloo: 2011" "" "Version 1.001" "" "Boogaloo is a trademark of John Vargas Beltran." "John Vargas Beltran" "John Vargas Beltran" "" "" "www.johnvargasbeltran.com" "This Font Software is licensed under the SIL Open Font License, Version 1.1. This license is available with a FAQ at: http://scripts.sil.org/OFL" "http://scripts.sil.org/OFL" 
GaspTable: 1 65535 15 1
Encoding: UnicodeBmp
UnicodeInterp: none

StartChar: exclam
Encoding: 33 33 5
Width: 278
GlyphClass: 2
Flags: W
LayerCount: 2
Fore
SplineSet
94 196 m 1,0,1
 76 345 76 345 76 467.5 c 128,-1,2
 76 590 76 590 95 731 c 1,3,-1
 241 703 l 1,4,5
 191 509 191 509 174 186 c 1,6,-1
 94 196 l 1,0,1
189 134 m 1,7,8
 200 114 200 114 200 64 c 128,-1,9
 200 14 200 14 184 -23 c 1,10,-1
 65 0 l 1,11,12
 75 37 75 37 75 77.5 c 128,-1,13
 75 118 75 118 73 146 c 1,14,-1
 189 134 l 1,7,8
EndSplineSet
EndChar

StartChar: quotedbl
Encoding: 34 34 6
Width: 348
GlyphClass: 2
Flags: W
LayerCount: 2
Fore
SplineSet
37 704 m 1,0,-1
 145 695 l 1,1,2
 140 578 140 578 117 426 c 1,3,-1
 25 434 l 1,4,5
 33 537 33 537 37 704 c 1,0,-1
203 704 m 1,6,-1
 311 695 l 1,7,8
 306 578 306 578 283 426 c 1,9,-1
 191 434 l 1,10,11
 199 537 199 537 203 704 c 1,6,-1
EndSplineSet
EndChar

StartChar: numbersign
Encoding: 35 35 7
Width: 833
GlyphClass: 2
Flags: W
LayerCount: 2
Fore
SplineSet
522 726 m 1,0,-1
 635 717 l 1,1,2
 615 594 615 594 607 530 c 1,3,4
 675 528 675 528 735 521 c 1,5,-1
 708 411 l 1,6,7
 652 419 652 419 594 420 c 1,8,9
 583 305 583 305 583 301 c 1,10,11
 651 299 651 299 711 292 c 1,12,-1
 684 182 l 1,13,14
 630 190 630 190 574 191 c 1,15,16
 562 63 562 63 554 0 c 1,17,-1
 438 0 l 1,18,19
 449 99 449 99 456 193 c 1,20,21
 422 193 422 193 352 191 c 1,22,23
 333 49 333 49 317 -29 c 1,24,-1
 204 -18 l 1,25,26
 218 56 218 56 234 187 c 1,27,28
 148 185 148 185 105 185 c 1,29,-1
 117 295 l 1,30,31
 158 295 158 295 246 297 c 1,32,33
 254 372 254 372 257 416 c 1,34,35
 215 414 215 414 129 414 c 1,36,-1
 141 524 l 1,37,38
 181 524 181 524 267 526 c 1,39,40
 274 616 274 616 285 706 c 1,41,-1
 401 697 l 1,42,43
 393 638 393 638 384 530 c 1,44,45
 452 532 452 532 490 532 c 1,46,47
 507 657 507 657 522 726 c 1,0,-1
476 422 m 1,48,49
 443 422 443 422 375 420 c 1,50,51
 372 387 372 387 364 301 c 1,52,53
 430 303 430 303 465 303 c 1,54,55
 473 368 473 368 476 422 c 1,48,49
EndSplineSet
EndChar

StartChar: dollar
Encoding: 36 36 8
Width: 484
GlyphClass: 2
Flags: W
LayerCount: 2
Fore
SplineSet
216 617 m 1,0,-1
 214 732 l 1,1,-1
 314 724 l 1,2,3
 314 645 314 645 316 616 c 1,4,5
 370 599 370 599 405 552 c 128,-1,6
 440 505 440 505 440 467 c 0,7,8
 440 405 440 405 419 362 c 1,9,-1
 306 396 l 1,10,11
 317 424 317 424 317 445 c 128,-1,12
 317 466 317 466 302 481.5 c 128,-1,13
 287 497 287 497 267 497 c 128,-1,14
 247 497 247 497 232.5 484 c 128,-1,15
 218 471 218 471 218 447.5 c 128,-1,16
 218 424 218 424 234 400 c 128,-1,17
 250 376 250 376 274 361 c 0,18,19
 358 310 358 310 396 270.5 c 128,-1,20
 434 231 434 231 434 171 c 128,-1,21
 434 111 434 111 400 69.5 c 128,-1,22
 366 28 366 28 312 13 c 1,23,24
 312 -44 312 -44 301 -116 c 1,25,-1
 201 -107 l 1,26,27
 211 -38 211 -38 212 11 c 1,28,29
 124 32 124 32 57 143 c 1,30,-1
 118 202 l 1,31,32
 202 124 202 124 254 124 c 0,33,34
 291 124 291 124 291 154 c 0,35,36
 291 176 291 176 273 196 c 128,-1,37
 255 216 255 216 213 246 c 0,38,39
 84 339 84 339 84 448 c 0,40,41
 84 513 84 513 121.5 557.5 c 128,-1,42
 159 602 159 602 216 617 c 1,0,-1
EndSplineSet
EndChar

StartChar: percent
Encoding: 37 37 9
Width: 676
GlyphClass: 2
Flags: W
LayerCount: 2
Fore
SplineSet
132 514 m 128,-1,1
 120 475 120 475 120 438 c 0,2,3
 120 370 120 370 162 370 c 0,4,5
 177 370 177 370 190 398.5 c 128,-1,6
 203 427 203 427 203 464 c 0,7,8
 203 553 203 553 164 553 c 0,9,0
 144 553 144 553 132 514 c 128,-1,1
64 320 m 128,-1,11
 28 361 28 361 28 435.5 c 128,-1,12
 28 510 28 510 65.5 576.5 c 128,-1,13
 103 643 103 643 166.5 643 c 128,-1,14
 230 643 230 643 262 593 c 128,-1,15
 294 543 294 543 294 468 c 128,-1,16
 294 393 294 393 253 336 c 128,-1,17
 212 279 212 279 162 279 c 0,18,10
 100 279 100 279 64 320 c 128,-1,11
502 210 m 128,-1,20
 490 171 490 171 490 134 c 0,21,22
 490 66 490 66 532 66 c 0,23,24
 547 66 547 66 560 94.5 c 128,-1,25
 573 123 573 123 573 160 c 0,26,27
 573 249 573 249 534 249 c 0,28,19
 514 249 514 249 502 210 c 128,-1,20
434 16 m 128,-1,30
 398 57 398 57 398 131.5 c 128,-1,31
 398 206 398 206 435.5 272.5 c 128,-1,32
 473 339 473 339 536.5 339 c 128,-1,33
 600 339 600 339 632 289 c 128,-1,34
 664 239 664 239 664 164 c 128,-1,35
 664 89 664 89 623 32 c 128,-1,36
 582 -25 582 -25 532 -25 c 0,37,29
 470 -25 470 -25 434 16 c 128,-1,30
183 -23 m 1,38,-1
 106 6 l 1,39,40
 356 442 356 442 560 666 c 1,41,-1
 624 626 l 1,42,43
 508 496 508 496 405 342 c 128,-1,44
 302 188 302 188 183 -23 c 1,38,-1
EndSplineSet
EndChar

StartChar: ampersand
Encoding: 38 38 10
Width: 539
GlyphClass: 2
Flags: W
LayerCount: 2
Fore
SplineSet
465 -49 m 1,0,1
 443 -27 443 -27 367 45 c 1,2,3
 262 -10 262 -10 205 -10 c 0,4,5
 124 -10 124 -10 71.5 31.5 c 128,-1,6
 19 73 19 73 19 140 c 0,7,8
 19 187 19 187 50 226 c 128,-1,9
 81 265 81 265 141 312 c 1,10,11
 86 405 86 405 86 474 c 0,12,13
 86 565 86 565 151 628.5 c 128,-1,14
 216 692 216 692 297 692 c 128,-1,15
 378 692 378 692 428 645 c 128,-1,16
 478 598 478 598 478 531 c 0,17,18
 478 448 478 448 403 378 c 0,19,20
 368 345 368 345 305 296 c 1,21,22
 337 254 337 254 392 194 c 1,23,24
 420 213 420 213 484 258 c 1,25,-1
 570 178 l 1,26,27
 539 154 539 154 474 109 c 1,28,29
 489 94 489 94 521 63.5 c 128,-1,30
 553 33 553 33 565 21 c 1,31,-1
 465 -49 l 1,0,1
237 550.5 m 128,-1,33
 216 524 216 524 216 483.5 c 128,-1,34
 216 443 216 443 244 390 c 1,35,36
 353 471 353 471 353 511 c 0,37,38
 353 541 353 541 335 559 c 128,-1,39
 317 577 317 577 287.5 577 c 128,-1,32
 258 577 258 577 237 550.5 c 128,-1,33
165 114.5 m 128,-1,41
 181 100 181 100 204.5 100 c 128,-1,42
 228 100 228 100 285 130 c 1,43,44
 242 174 242 174 205 222 c 1,45,46
 149 178 149 178 149 153.5 c 128,-1,40
 149 129 149 129 165 114.5 c 128,-1,41
EndSplineSet
EndChar

StartChar: quotesingle
Encoding: 39 39 11
Width: 181
GlyphClass: 2
Flags: W
LayerCount: 2
Fore
SplineSet
37 704 m 1,0,-1
 145 695 l 1,1,2
 140 578 140 578 117 426 c 1,3,-1
 25 434 l 1,4,5
 33 537 33 537 37 704 c 1,0,-1
EndSplineSet
EndChar

StartChar: parenleft
Encoding: 40 40 12
Width: 354
GlyphClass: 2
Flags: W
LayerCount: 2
Fore
SplineSet
235 207 m 0,0,1
 235 -9 235 -9 327 -200 c 1,2,-1
 197 -246 l 1,3,4
 100 -68 100 -68 100 187 c 0,5,6
 100 337 100 337 135 486 c 128,-1,7
 170 635 170 635 223 734 c 1,8,-1
 319 680 l 1,9,10
 283 596 283 596 259 466.5 c 128,-1,11
 235 337 235 337 235 207 c 0,0,1
EndSplineSet
EndChar

StartChar: parenright
Encoding: 41 41 13
Width: 354
GlyphClass: 2
Flags: W
LayerCount: 2
Fore
SplineSet
125 283 m 0,0,1
 125 499 125 499 33 690 c 1,2,-1
 163 736 l 1,3,4
 260 558 260 558 260 303 c 0,5,6
 260 153 260 153 225 4 c 128,-1,7
 190 -145 190 -145 137 -244 c 1,8,-1
 41 -190 l 1,9,10
 77 -106 77 -106 101 23.5 c 128,-1,11
 125 153 125 153 125 283 c 0,0,1
EndSplineSet
EndChar

StartChar: asterisk
Encoding: 42 42 14
Width: 475
GlyphClass: 2
Flags: W
LayerCount: 2
Fore
SplineSet
268 703 m 1,0,1
 278 682 278 682 278 662 c 128,-1,2
 278 642 278 642 270 601.5 c 128,-1,3
 262 561 262 561 259 536 c 1,4,5
 310 564 310 564 370 628 c 1,6,7
 408 595 408 595 439 528 c 1,8,9
 421 511 421 511 401 505 c 128,-1,10
 381 499 381 499 340.5 494 c 128,-1,11
 300 489 300 489 278 485 c 1,12,13
 323 442 323 442 399 408 c 1,14,15
 380 362 380 362 325 311 c 1,16,17
 305 322 305 322 292.5 339 c 128,-1,18
 280 356 280 356 263 393.5 c 128,-1,19
 246 431 246 431 235 451 c 1,20,21
 208 398 208 398 199 312 c 1,22,23
 147 317 147 317 84 353 c 1,24,25
 88 375 88 375 100 392 c 128,-1,26
 112 409 112 409 142 436 c 128,-1,27
 172 463 172 463 189 481 c 1,28,29
 165 484 165 484 134 484 c 128,-1,30
 103 484 103 484 46 473 c 1,31,32
 41 493 41 493 41 525 c 128,-1,33
 41 557 41 557 49 595 c 1,34,35
 53 596 53 596 68.5 596 c 128,-1,36
 84 596 84 596 106.5 586.5 c 128,-1,37
 129 577 129 577 158.5 559.5 c 128,-1,38
 188 542 188 542 203 535 c 1,39,40
 192 595 192 595 152 668 c 1,41,42
 195 694 195 694 268 703 c 1,0,1
EndSplineSet
EndChar

StartChar: plus
Encoding: 43 43 15
Width: 833
GlyphClass: 2
Flags: W
LayerCount: 2
Fore
SplineSet
704 240 m 1,0,1
 651 245 651 245 599.5 245 c 128,-1,2
 548 245 548 245 478 243 c 1,3,-1
 478 230 l 2,4,5
 478 129 478 129 483 -1 c 1,6,-1
 343 8 l 1,7,8
 338 138 338 138 338 230 c 2,9,-1
 338 235 l 1,10,11
 326 233 326 233 127 223 c 1,12,-1
 121 343 l 1,13,14
 267 348 267 348 339 356 c 1,15,16
 344 490 344 490 354 603 c 1,17,-1
 494 591 l 1,18,19
 483 478 483 478 480 363 c 1,20,21
 550 365 550 365 608 365 c 128,-1,22
 666 365 666 365 718 360 c 1,23,-1
 704 240 l 1,0,1
EndSplineSet
EndChar

StartChar: comma
Encoding: 44 44 16
Width: 260
GlyphClass: 2
Flags: W
LayerCount: 2
Fore
SplineSet
75 197 m 1,0,-1
 208 153 l 1,1,2
 198 62 198 62 130 -120 c 1,3,-1
 38 -113 l 1,4,5
 65 51 65 51 75 197 c 1,0,-1
EndSplineSet
EndChar

StartChar: hyphen
Encoding: 45 45 17
Width: 324
GlyphClass: 2
Flags: W
LayerCount: 2
Fore
SplineSet
34 274 m 1,0,-1
 228 283 l 1,1,2
 258 283 258 283 283 280 c 1,3,-1
 287 172 l 1,4,5
 257 175 257 175 228 175 c 1,6,-1
 46 166 l 1,7,-1
 34 274 l 1,0,-1
EndSplineSet
EndChar

StartChar: period
Encoding: 46 46 18
Width: 260
GlyphClass: 2
Flags: W
LayerCount: 2
Fore
SplineSet
188 159 m 1,0,1
 199 124 199 124 199 69.5 c 128,-1,2
 199 15 199 15 185 -21 c 1,3,-1
 50 -10 l 1,4,5
 59 66 59 66 59 106.5 c 128,-1,6
 59 147 59 147 58 171 c 1,7,-1
 188 159 l 1,0,1
EndSplineSet
EndChar

StartChar: slash
Encoding: 47 47 19
Width: 410
GlyphClass: 2
Flags: W
LayerCount: 2
Fore
SplineSet
76 -83 m 1,0,-1
 -24 -73 l 1,1,2
 -7 -31 -7 -31 51.5 114 c 128,-1,3
 110 259 110 259 142 334 c 0,4,5
 238 566 238 566 330 731 c 1,6,-1
 418 684 l 1,7,8
 362 598 362 598 303.5 470 c 128,-1,9
 245 342 245 342 170.5 153 c 128,-1,10
 96 -36 96 -36 76 -83 c 1,0,-1
EndSplineSet
EndChar

StartChar: zero
Encoding: 48 48 20
Width: 484
GlyphClass: 2
Flags: W
LayerCount: 2
Fore
SplineSet
200 446 m 128,-1,1
 178 359 178 359 178 269.5 c 128,-1,2
 178 180 178 180 198.5 136 c 128,-1,3
 219 92 219 92 254 92 c 0,4,5
 281 92 281 92 304.5 161.5 c 128,-1,6
 328 231 328 231 328 318 c 0,7,8
 328 533 328 533 257 533 c 0,9,0
 222 533 222 533 200 446 c 128,-1,1
48 252 m 0,10,11
 48 347 48 347 71.5 434.5 c 128,-1,12
 95 522 95 522 144 582.5 c 128,-1,13
 193 643 193 643 260 643 c 128,-1,14
 327 643 327 643 373 598 c 0,15,16
 458 513 458 513 458 318 c 0,17,18
 458 233 458 233 428 154.5 c 128,-1,19
 398 76 398 76 351 29 c 128,-1,20
 304 -18 304 -18 254 -18 c 0,21,22
 158 -18 158 -18 103 56 c 128,-1,23
 48 130 48 130 48 252 c 0,10,11
EndSplineSet
EndChar

StartChar: one
Encoding: 49 49 21
Width: 484
GlyphClass: 2
Flags: W
LayerCount: 2
Fore
SplineSet
366 623 m 1,0,1
 346 459 346 459 346 288.5 c 128,-1,2
 346 118 346 118 360 -18 c 1,3,-1
 226 -5 l 1,4,5
 219 112 219 112 219 223.5 c 128,-1,6
 219 335 219 335 227 435 c 1,7,-1
 171 360 l 1,8,-1
 95 424 l 1,9,10
 158 516 158 516 228 650 c 1,11,-1
 366 623 l 1,0,1
EndSplineSet
EndChar

StartChar: two
Encoding: 50 50 22
Width: 484
GlyphClass: 2
Flags: W
LayerCount: 2
Fore
SplineSet
289 647 m 0,0,1
 368 647 368 647 410.5 597 c 128,-1,2
 453 547 453 547 453 471 c 0,3,4
 453 420 453 420 397 323.5 c 128,-1,5
 341 227 341 227 255 129 c 1,6,7
 277 137 277 137 345.5 137 c 128,-1,8
 414 137 414 137 451 130 c 1,9,-1
 439 17 l 1,10,11
 377 22 377 22 335 22 c 0,12,13
 220 22 220 22 79 -26 c 1,14,-1
 36 61 l 1,15,16
 145 152 145 152 239 284 c 128,-1,17
 333 416 333 416 333 471.5 c 128,-1,18
 333 527 333 527 289 527 c 0,19,20
 253 527 253 527 214.5 485.5 c 128,-1,21
 176 444 176 444 132 370 c 1,22,-1
 32 440 l 1,23,24
 162 647 162 647 289 647 c 0,0,1
EndSplineSet
EndChar

StartChar: three
Encoding: 51 51 23
Width: 484
GlyphClass: 2
Flags: W
LayerCount: 2
Fore
SplineSet
170.5 623.5 m 128,-1,1
 219 643 219 643 280 643 c 128,-1,2
 341 643 341 643 386 602 c 128,-1,3
 431 561 431 561 431 487.5 c 128,-1,4
 431 414 431 414 315 333 c 1,5,6
 415 281 415 281 415 192.5 c 128,-1,7
 415 104 415 104 349 47 c 128,-1,8
 283 -10 283 -10 217 -10 c 128,-1,9
 151 -10 151 -10 96 11 c 1,10,-1
 78 121 l 1,11,12
 113 110 113 110 164 110 c 128,-1,13
 215 110 215 110 255 132.5 c 128,-1,14
 295 155 295 155 295 185.5 c 128,-1,15
 295 216 295 216 270 236.5 c 128,-1,16
 245 257 245 257 206 257 c 128,-1,17
 167 257 167 257 122 243 c 1,18,-1
 88 346 l 1,19,20
 193 381 193 381 249.5 420.5 c 128,-1,21
 306 460 306 460 306 492 c 0,22,23
 306 528 306 528 267 528 c 0,24,25
 215 528 215 528 126 466 c 1,26,-1
 62 561 l 1,27,0
 122 604 122 604 170.5 623.5 c 128,-1,1
EndSplineSet
EndChar

StartChar: four
Encoding: 52 52 24
Width: 484
GlyphClass: 2
Flags: W
LayerCount: 2
Fore
SplineSet
273 163 m 1,0,1
 238 163 238 163 136 151 c 1,2,-1
 17 232 l 1,3,4
 17 256 17 256 111.5 424.5 c 128,-1,5
 206 593 206 593 260 652 c 1,6,-1
 425 636 l 1,7,8
 401 448 401 448 395 273 c 1,9,-1
 459 267 l 1,10,-1
 445 162 l 1,11,-1
 393 162 l 1,12,13
 393 48 393 48 398 -30 c 1,14,-1
 278 -20 l 1,15,16
 273 51 273 51 273 163 c 1,0,1
166 267 m 1,17,18
 216 274 216 274 274 274 c 1,19,20
 281 406 281 406 298 521 c 1,21,22
 213 374 213 374 166 267 c 1,17,18
EndSplineSet
EndChar

StartChar: five
Encoding: 53 53 25
Width: 484
GlyphClass: 2
Flags: W
LayerCount: 2
Fore
SplineSet
424 646 m 1,0,-1
 424 536 l 1,1,2
 344 536 344 536 249 521 c 1,3,4
 248 511 248 511 228 383 c 1,5,6
 330 383 330 383 390 340.5 c 128,-1,7
 450 298 450 298 450 220 c 0,8,9
 450 42 450 42 121 -28 c 1,10,-1
 93 80 l 1,11,12
 320 130 320 130 320 210 c 0,13,14
 320 238 320 238 290.5 256 c 128,-1,15
 261 274 261 274 219 274 c 0,16,17
 206 274 206 274 144 261 c 1,18,-1
 86 307 l 1,19,-1
 142 610 l 1,20,21
 309 646 309 646 424 646 c 1,0,-1
EndSplineSet
EndChar

StartChar: six
Encoding: 54 54 26
Width: 484
GlyphClass: 2
Flags: W
LayerCount: 2
Fore
SplineSet
299 388 m 0,0,1
 361 388 361 388 408 343 c 128,-1,2
 455 298 455 298 455 205 c 128,-1,3
 455 112 455 112 395.5 40.5 c 128,-1,4
 336 -31 336 -31 250 -31 c 128,-1,5
 164 -31 164 -31 112.5 38 c 128,-1,6
 61 107 61 107 61 220 c 0,7,8
 61 346 61 346 113 450 c 0,9,10
 141 507 141 507 164.5 545 c 128,-1,11
 188 583 188 583 233 649 c 1,12,-1
 387 636 l 1,13,14
 252 495 252 495 207 369 c 1,15,16
 255 388 255 388 299 388 c 0,0,1
187 248 m 1,17,-1
 186 220 l 1,18,19
 186 157 186 157 205 118 c 128,-1,20
 224 79 224 79 254.5 79 c 128,-1,21
 285 79 285 79 307.5 113 c 128,-1,22
 330 147 330 147 330 191.5 c 128,-1,23
 330 236 330 236 313.5 257 c 128,-1,24
 297 278 297 278 269 278 c 128,-1,25
 241 278 241 278 187 248 c 1,17,-1
EndSplineSet
EndChar

StartChar: seven
Encoding: 55 55 27
Width: 484
GlyphClass: 2
Flags: W
LayerCount: 2
Fore
SplineSet
401 649 m 1,0,-1
 433 536 l 1,1,2
 279 224 279 224 236 -15 c 1,3,-1
 118 -4 l 1,4,5
 170 269 170 269 317 536 c 1,6,7
 189 526 189 526 100 514 c 1,8,-1
 78 622 l 1,9,10
 205 639 205 639 401 649 c 1,0,-1
EndSplineSet
EndChar

StartChar: eight
Encoding: 56 56 28
Width: 484
GlyphClass: 2
Flags: W
LayerCount: 2
Fore
SplineSet
113 20 m 128,-1,1
 54 73 54 73 54 158 c 128,-1,2
 54 243 54 243 134 315 c 1,3,4
 69 375 69 375 69 456 c 128,-1,5
 69 537 69 537 130 599 c 128,-1,6
 191 661 191 661 273 661 c 128,-1,7
 355 661 355 661 404.5 601.5 c 128,-1,8
 454 542 454 542 454 480 c 0,9,10
 454 384 454 384 361 313 c 1,11,12
 402 290 402 290 427.5 251 c 128,-1,13
 453 212 453 212 453 163 c 0,14,15
 453 91 453 91 394 29 c 128,-1,16
 335 -33 335 -33 253.5 -33 c 128,-1,0
 172 -33 172 -33 113 20 c 128,-1,1
309.5 97 m 128,-1,18
 333 117 333 117 333 147.5 c 128,-1,19
 333 178 333 178 317 200 c 128,-1,20
 301 222 301 222 285 233.5 c 128,-1,21
 269 245 269 245 242 260 c 1,22,23
 174 215 174 215 174 156 c 0,24,25
 174 121 174 121 198 99 c 128,-1,26
 222 77 222 77 254 77 c 128,-1,17
 286 77 286 77 309.5 97 c 128,-1,18
212 526.5 m 128,-1,28
 189 502 189 502 189 473 c 128,-1,29
 189 444 189 444 205.5 416 c 128,-1,30
 222 388 222 388 243 375 c 1,31,32
 286 401 286 401 310 425 c 128,-1,33
 334 449 334 449 334 475.5 c 128,-1,34
 334 502 334 502 315.5 526.5 c 128,-1,35
 297 551 297 551 266 551 c 128,-1,27
 235 551 235 551 212 526.5 c 128,-1,28
EndSplineSet
EndChar

StartChar: nine
Encoding: 57 57 29
Width: 484
GlyphClass: 2
Flags: W
LayerCount: 2
Fore
SplineSet
220 210 m 0,0,1
 143 210 143 210 93.5 266.5 c 128,-1,2
 44 323 44 323 44 401 c 0,3,4
 44 497 44 497 112 575 c 128,-1,5
 180 653 180 653 266 653 c 0,6,7
 335 653 335 653 393 598 c 0,8,9
 423 569 423 569 441.5 515.5 c 128,-1,10
 460 462 460 462 460 390 c 0,11,12
 460 231 460 231 233 -51 c 1,13,-1
 138 16 l 1,14,15
 225 115 225 115 295 227 c 1,16,17
 248 210 248 210 220 210 c 0,0,1
230 320 m 0,18,19
 277 320 277 320 336 365 c 1,20,21
 340 389 340 389 340 400 c 0,22,23
 340 475 340 475 317.5 509 c 128,-1,24
 295 543 295 543 261 543 c 128,-1,25
 227 543 227 543 195.5 499 c 128,-1,26
 164 455 164 455 164 401 c 0,27,28
 164 368 164 368 182.5 344 c 128,-1,29
 201 320 201 320 230 320 c 0,18,19
EndSplineSet
EndChar

StartChar: colon
Encoding: 58 58 30
Width: 260
GlyphClass: 2
Flags: W
LayerCount: 2
Fore
SplineSet
188 159 m 1,0,1
 199 124 199 124 199 69.5 c 128,-1,2
 199 15 199 15 185 -21 c 1,3,-1
 50 -10 l 1,4,5
 59 66 59 66 59 106.5 c 128,-1,6
 59 147 59 147 58 171 c 1,7,-1
 188 159 l 1,0,1
194 465 m 1,8,9
 205 430 205 430 205 375.5 c 128,-1,10
 205 321 205 321 191 285 c 1,11,-1
 56 296 l 1,12,13
 65 372 65 372 65 412.5 c 128,-1,14
 65 453 65 453 64 477 c 1,15,-1
 194 465 l 1,8,9
EndSplineSet
EndChar

StartChar: semicolon
Encoding: 59 59 31
Width: 260
GlyphClass: 2
Flags: W
LayerCount: 2
Fore
SplineSet
194 465 m 1,0,1
 205 430 205 430 205 375.5 c 128,-1,2
 205 321 205 321 191 285 c 1,3,-1
 56 296 l 1,4,5
 65 372 65 372 65 412.5 c 128,-1,6
 65 453 65 453 64 477 c 1,7,-1
 194 465 l 1,0,1
75 197 m 1,8,-1
 208 153 l 1,9,10
 198 62 198 62 130 -120 c 1,11,-1
 38 -113 l 1,12,13
 65 51 65 51 75 197 c 1,8,-1
EndSplineSet
EndChar

StartChar: less
Encoding: 60 60 32
Width: 833
GlyphClass: 2
Flags: W
LayerCount: 2
Fore
SplineSet
128 250 m 1,0,-1
 139 359 l 1,1,2
 431 462 431 462 675 595 c 1,3,-1
 700 470 l 1,4,5
 504 373 504 373 286 298 c 1,6,7
 506 184 506 184 705 125 c 1,8,-1
 679 14 l 1,9,10
 409 88 409 88 128 250 c 1,0,-1
EndSplineSet
EndChar

StartChar: equal
Encoding: 61 61 33
Width: 833
GlyphClass: 2
Flags: W
LayerCount: 2
Fore
SplineSet
123 464 m 1,0,-1
 479 472 l 1,1,2
 628 472 628 472 720 461 c 1,3,-1
 702 341 l 1,4,5
 621 352 621 352 489 352 c 1,6,-1
 123 344 l 1,7,-1
 123 464 l 1,0,-1
123 245 m 1,8,-1
 479 253 l 1,9,10
 628 253 628 253 720 242 c 1,11,-1
 702 122 l 1,12,13
 621 133 621 133 489 133 c 1,14,-1
 123 125 l 1,15,-1
 123 245 l 1,8,-1
EndSplineSet
EndChar

StartChar: greater
Encoding: 62 62 34
Width: 833
GlyphClass: 2
Flags: W
LayerCount: 2
Fore
SplineSet
705 359 m 1,0,-1
 694 250 l 1,1,2
 402 147 402 147 158 14 c 1,3,-1
 133 139 l 1,4,5
 329 236 329 236 547 311 c 1,6,7
 327 425 327 425 128 484 c 1,8,-1
 154 595 l 1,9,10
 424 521 424 521 705 359 c 1,0,-1
EndSplineSet
EndChar

StartChar: question
Encoding: 63 63 35
Width: 419
GlyphClass: 2
Flags: W
LayerCount: 2
Fore
SplineSet
234 700 m 0,0,1
 311 700 311 700 355 650.5 c 128,-1,2
 399 601 399 601 399 526 c 0,3,4
 399 491 399 491 386 467 c 128,-1,5
 373 443 373 443 365.5 431 c 128,-1,6
 358 419 358 419 340.5 399 c 128,-1,7
 323 379 323 379 314 370 c 0,8,9
 280 331 280 331 252 303 c 1,10,11
 207 255 207 255 207 217 c 0,12,13
 207 203 207 203 212 186 c 1,14,-1
 127 196 l 1,15,16
 95 218 95 218 95 248.5 c 128,-1,17
 95 279 95 279 115 310.5 c 128,-1,18
 135 342 135 342 161 371.5 c 128,-1,19
 187 401 187 401 206.5 422.5 c 128,-1,20
 226 444 226 444 235.5 455 c 128,-1,21
 245 466 245 466 257 482 c 0,22,23
 279 513 279 513 279 533.5 c 128,-1,24
 279 554 279 554 267 567 c 128,-1,25
 255 580 255 580 234 580 c 0,26,27
 187 580 187 580 86 481 c 1,28,-1
 -6 561 l 1,29,30
 125 700 125 700 234 700 c 0,0,1
219 134 m 1,31,32
 230 114 230 114 230 64 c 128,-1,33
 230 14 230 14 214 -23 c 1,34,-1
 95 0 l 1,35,36
 105 37 105 37 105 77.5 c 128,-1,37
 105 118 105 118 103 146 c 1,38,-1
 219 134 l 1,31,32
EndSplineSet
EndChar

StartChar: at
Encoding: 64 64 36
Width: 834
GlyphClass: 2
Flags: W
LayerCount: 2
Fore
SplineSet
531 -129 m 1,0,1
 470 -154 470 -154 403.5 -154 c 128,-1,2
 337 -154 337 -154 270.5 -130 c 128,-1,3
 204 -106 204 -106 150 -58 c 128,-1,4
 96 -10 96 -10 65 71.5 c 128,-1,5
 34 153 34 153 34 258.5 c 128,-1,6
 34 364 34 364 66.5 452.5 c 128,-1,7
 99 541 99 541 153 600.5 c 128,-1,8
 207 660 207 660 277.5 693 c 128,-1,9
 348 726 348 726 424.5 726 c 128,-1,10
 501 726 501 726 566.5 702 c 128,-1,11
 632 678 632 678 685 629.5 c 128,-1,12
 738 581 738 581 769 499.5 c 128,-1,13
 800 418 800 418 800 310.5 c 128,-1,14
 800 203 800 203 742.5 131 c 128,-1,15
 685 59 685 59 600 59 c 0,16,17
 553 59 553 59 518.5 86.5 c 128,-1,18
 484 114 484 114 474 167 c 1,19,20
 426 71 426 71 371 71 c 0,21,22
 294 71 294 71 264 114 c 128,-1,23
 234 157 234 157 234 240 c 128,-1,24
 234 323 234 323 273.5 414.5 c 128,-1,25
 313 506 313 506 363 506 c 0,26,27
 408 506 408 506 458 482 c 1,28,29
 458 490 458 490 456 512 c 1,30,-1
 573 502 l 1,31,32
 573 334 573 334 566 204 c 1,33,34
 570 183 570 183 581.5 172.5 c 128,-1,35
 593 162 593 162 607 162 c 0,36,37
 647 162 647 162 669.5 208 c 128,-1,38
 692 254 692 254 692 326.5 c 128,-1,39
 692 399 692 399 670 463 c 128,-1,40
 648 527 648 527 610 564 c 1,41,42
 536 639 536 639 423 639 c 128,-1,43
 310 639 310 639 226 533 c 128,-1,44
 142 427 142 427 142 261 c 128,-1,45
 142 95 142 95 220 13.5 c 128,-1,46
 298 -68 298 -68 413 -68 c 0,47,48
 454 -68 454 -68 498 -49 c 1,49,-1
 531 -129 l 1,0,1
461 389 m 1,50,51
 438 408 438 408 412.5 408 c 128,-1,52
 387 408 387 408 369 350 c 128,-1,53
 351 292 351 292 351 235.5 c 128,-1,54
 351 179 351 179 385 179 c 0,55,56
 398 179 398 179 420 216.5 c 128,-1,57
 442 254 442 254 460 313 c 1,58,-1
 461 389 l 1,50,51
EndSplineSet
EndChar

StartChar: A
Encoding: 65 65 37
Width: 516
GlyphClass: 2
Flags: W
LayerCount: 2
Fore
SplineSet
353 10 m 1,0,-1
 330 149 l 1,1,-1
 181 143 l 1,2,-1
 143 -45 l 1,3,-1
 3 -33 l 1,4,-1
 182 692 l 1,5,-1
 367 676 l 1,6,-1
 498 -2 l 1,7,-1
 353 10 l 1,0,-1
265 561 m 1,8,-1
 202 250 l 1,9,-1
 314 254 l 1,10,-1
 265 561 l 1,8,-1
EndSplineSet
EndChar

StartChar: B
Encoding: 66 66 38
Width: 523
GlyphClass: 2
Flags: W
LayerCount: 2
Fore
SplineSet
73 665 m 1,0,1
 190 701 190 701 284.5 701 c 128,-1,2
 379 701 379 701 445 650.5 c 128,-1,3
 511 600 511 600 511 526 c 0,4,5
 511 415 511 415 387 350 c 1,6,7
 503 303 503 303 503 193 c 0,8,9
 503 112 503 112 418 48.5 c 128,-1,10
 333 -15 333 -15 240 -15 c 0,11,12
 228 -15 228 -15 69 -1 c 1,13,14
 83 214 83 214 83 361 c 128,-1,15
 83 508 83 508 73 665 c 1,0,1
346.5 562.5 m 128,-1,17
 317 583 317 583 283.5 583 c 128,-1,18
 250 583 250 583 212 571 c 1,19,20
 216 451 216 451 216 390 c 1,21,22
 262 394 262 394 319 431.5 c 128,-1,23
 376 469 376 469 376 512 c 0,24,16
 376 542 376 542 346.5 562.5 c 128,-1,17
332 133.5 m 128,-1,26
 369 160 369 160 369 194.5 c 128,-1,27
 369 229 369 229 326 255 c 128,-1,28
 283 281 283 281 215 287 c 1,29,30
 213 169 213 169 211 110 c 1,31,32
 229 107 229 107 262 107 c 128,-1,25
 295 107 295 107 332 133.5 c 128,-1,26
EndSplineSet
EndChar

StartChar: C
Encoding: 67 67 39
Width: 482
GlyphClass: 2
Flags: W
LayerCount: 2
Fore
SplineSet
269 575 m 0,0,1
 225 575 225 575 192 466.5 c 128,-1,2
 159 358 159 358 159 274 c 0,3,4
 159 98 159 98 251 98 c 0,5,6
 277 98 277 98 296.5 120.5 c 128,-1,7
 316 143 316 143 324.5 167 c 128,-1,8
 333 191 333 191 345 233 c 1,9,-1
 472 223 l 1,10,11
 446 100 446 100 394.5 35 c 128,-1,12
 343 -30 343 -30 251 -30 c 0,13,14
 143 -30 143 -30 84.5 51.5 c 128,-1,15
 26 133 26 133 26 259 c 0,16,17
 26 406 26 406 84 545 c 0,18,19
 112 614 112 614 162.5 658.5 c 128,-1,20
 213 703 213 703 278 703 c 0,21,22
 358 703 358 703 394 650 c 0,23,24
 412 624 412 624 423.5 597 c 128,-1,25
 435 570 435 570 440 528 c 0,26,27
 449 461 449 461 451 384 c 1,28,-1
 322 396 l 1,29,30
 322 525 322 525 298 558 c 1,31,32
 287 575 287 575 269 575 c 0,0,1
EndSplineSet
EndChar

StartChar: D
Encoding: 68 68 40
Width: 502
GlyphClass: 2
Flags: W
LayerCount: 2
Fore
SplineSet
238 701 m 0,0,1
 355 701 355 701 418.5 609 c 128,-1,2
 482 517 482 517 482 386 c 0,3,4
 482 285 482 285 450 195.5 c 128,-1,5
 418 106 418 106 350 45.5 c 128,-1,6
 282 -15 282 -15 191 -15 c 0,7,8
 173 -15 173 -15 55 -1 c 1,9,10
 69 214 69 214 69 355 c 128,-1,11
 69 496 69 496 60 667 c 1,12,13
 157 701 157 701 238 701 c 0,0,1
307.5 188.5 m 128,-1,15
 353 270 353 270 353 364.5 c 128,-1,16
 353 459 353 459 320.5 520 c 128,-1,17
 288 581 288 581 243 581 c 0,18,19
 219 581 219 581 198 573 c 1,20,21
 202 425 202 425 202 324.5 c 128,-1,22
 202 224 202 224 196 115 c 1,23,24
 203 107 203 107 216 107 c 0,25,14
 262 107 262 107 307.5 188.5 c 128,-1,15
EndSplineSet
EndChar

StartChar: E
Encoding: 69 69 41
Width: 447
GlyphClass: 2
Flags: W
LayerCount: 2
Fore
SplineSet
75 -4 m 1,0,1
 71 154 71 154 71 295 c 128,-1,2
 71 436 71 436 87 662 c 1,3,4
 258 688 258 688 421 688 c 1,5,-1
 421 565 l 1,6,7
 308 565 308 565 211 558 c 1,8,9
 207 446 207 446 206 386 c 1,10,11
 282 397 282 397 386 399 c 1,12,-1
 405 289 l 1,13,14
 338 288 338 288 204 274 c 1,15,16
 204 154 204 154 205 101 c 1,17,18
 292 108 292 108 413 131 c 1,19,-1
 430 21 l 1,20,21
 345 -18 345 -18 229 -18 c 1,22,-1
 75 -4 l 1,0,1
EndSplineSet
EndChar

StartChar: F
Encoding: 70 70 42
Width: 422
GlyphClass: 2
Flags: W
LayerCount: 2
Fore
SplineSet
421 688 m 1,0,-1
 421 565 l 1,1,2
 309 565 309 565 211 558 c 1,3,4
 209 529 209 529 207.5 455.5 c 128,-1,5
 206 382 206 382 205 365 c 1,6,7
 317 380 317 380 385 380 c 1,8,-1
 405 270 l 1,9,10
 293 267 293 267 204 256 c 1,11,12
 204 100 204 100 208 -19 c 1,13,-1
 73 -4 l 1,14,15
 71 158 71 158 71 297 c 128,-1,16
 71 436 71 436 87 662 c 1,17,18
 258 688 258 688 421 688 c 1,0,-1
EndSplineSet
EndChar

StartChar: G
Encoding: 71 71 43
Width: 498
GlyphClass: 2
Flags: W
LayerCount: 2
Fore
SplineSet
333 397 m 1,0,1
 337 417 337 417 337 462.5 c 128,-1,2
 337 508 337 508 322 546.5 c 128,-1,3
 307 585 307 585 278 585 c 0,4,5
 243 585 243 585 210 494.5 c 128,-1,6
 177 404 177 404 177 300.5 c 128,-1,7
 177 197 177 197 197 138.5 c 128,-1,8
 217 80 217 80 256 80 c 128,-1,9
 295 80 295 80 315 116 c 128,-1,10
 335 152 335 152 345 222 c 1,11,12
 309 222 309 222 268 215 c 1,13,-1
 247 314 l 1,14,15
 338 320 338 320 475 336 c 1,16,17
 481 284 481 284 481 241 c 128,-1,18
 481 198 481 198 455.5 134 c 128,-1,19
 430 70 430 70 379.5 21 c 128,-1,20
 329 -28 329 -28 269 -28 c 0,21,22
 165 -28 165 -28 102.5 53 c 128,-1,23
 40 134 40 134 40 282 c 0,24,25
 40 391 40 391 67 486 c 128,-1,26
 94 581 94 581 147 642 c 128,-1,27
 200 703 200 703 268 703 c 0,28,29
 334 703 334 703 392 655 c 0,30,31
 422 630 422 630 440.5 583.5 c 128,-1,32
 459 537 459 537 459 486 c 128,-1,33
 459 435 459 435 450 387 c 1,34,-1
 333 397 l 1,0,1
EndSplineSet
EndChar

StartChar: H
Encoding: 72 72 44
Width: 539
GlyphClass: 2
Flags: W
LayerCount: 2
Fore
SplineSet
201 501 m 2,0,-1
 202 386 l 1,1,-1
 352 395 l 1,2,3
 352 551 352 551 357 726 c 1,4,-1
 489 714 l 1,5,6
 480 555 480 555 480 369.5 c 128,-1,7
 480 184 480 184 491 -3 c 1,8,-1
 363 8 l 1,9,10
 354 94 354 94 352 284 c 1,11,-1
 205 275 l 1,12,13
 208 133 208 133 214 -14 c 1,14,-1
 78 -2 l 1,15,16
 67 209 67 209 67 386 c 128,-1,17
 67 563 67 563 75 692 c 1,18,-1
 207 680 l 1,19,20
 201 591 201 591 201 501 c 2,0,-1
EndSplineSet
EndChar

StartChar: I
Encoding: 73 73 45
Width: 289
GlyphClass: 2
Flags: W
LayerCount: 2
Fore
SplineSet
233 692 m 1,0,1
 224 534 224 534 224 336 c 128,-1,2
 224 138 224 138 237 -25 c 1,3,-1
 102 -13 l 1,4,5
 89 191 89 191 89 355.5 c 128,-1,6
 89 520 89 520 98 704 c 1,7,-1
 233 692 l 1,0,1
EndSplineSet
EndChar

StartChar: J
Encoding: 74 74 46
Width: 410
GlyphClass: 2
Flags: W
LayerCount: 2
Fore
SplineSet
128 229 m 1,0,1
 124 209 124 209 124 177.5 c 128,-1,2
 124 146 124 146 137.5 119 c 128,-1,3
 151 92 151 92 173 92 c 0,4,5
 203 92 203 92 216.5 138.5 c 128,-1,6
 230 185 230 185 230 240 c 0,7,8
 230 470 230 470 212 701 c 1,9,-1
 353 689 l 1,10,11
 367 509 367 509 367 240 c 0,12,13
 367 150 367 150 328 68 c 0,14,15
 308 25 308 25 271.5 -2.5 c 128,-1,16
 235 -30 235 -30 188 -30 c 0,17,18
 104 -30 104 -30 53 28.5 c 128,-1,19
 2 87 2 87 2 174 c 0,20,21
 2 204 2 204 10 241 c 1,22,-1
 128 229 l 1,0,1
EndSplineSet
EndChar

StartChar: K
Encoding: 75 75 47
Width: 515
GlyphClass: 2
Flags: W
LayerCount: 2
Fore
SplineSet
67 6 m 1,0,1
 60 159 60 159 60 351 c 128,-1,2
 60 543 60 543 70 679 c 1,3,-1
 207 666 l 1,4,5
 197 542 197 542 197 359 c 1,6,7
 323 566 323 566 387 706 c 1,8,-1
 513 656 l 1,9,10
 441 512 441 512 318 322 c 1,11,12
 418 163 418 163 511 82 c 1,13,-1
 419 -22 l 1,14,15
 303 91 303 91 197 287 c 1,16,17
 197 104 197 104 204 -9 c 1,18,-1
 67 6 l 1,0,1
EndSplineSet
EndChar

StartChar: L
Encoding: 76 76 48
Width: 388
GlyphClass: 2
Flags: W
LayerCount: 2
Fore
SplineSet
85 6 m 1,0,1
 72 212 72 212 72 383.5 c 128,-1,2
 72 555 72 555 83 695 c 1,3,-1
 216 683 l 1,4,5
 201 511 201 511 201 354 c 128,-1,6
 201 197 201 197 206 123 c 1,7,8
 242 128 242 128 383 143 c 1,9,-1
 403 27 l 1,10,11
 328 18 328 18 191 -3 c 1,12,-1
 85 6 l 1,0,1
EndSplineSet
EndChar

StartChar: M
Encoding: 77 77 49
Width: 650
GlyphClass: 2
Flags: W
LayerCount: 2
Fore
SplineSet
56 -6 m 1,0,1
 48 254 48 254 48 386 c 128,-1,2
 48 518 48 518 65 668 c 1,3,-1
 253 653 l 1,4,5
 288 527 288 527 327 300 c 1,6,7
 383 483 383 483 426 696 c 1,8,-1
 615 679 l 1,9,10
 623 370 623 370 623 227.5 c 128,-1,11
 623 85 623 85 614 -26 c 1,12,-1
 477 -13 l 1,13,14
 490 113 490 113 499 521 c 1,15,-1
 491 522 l 1,16,17
 481 483 481 483 459 388 c 0,18,19
 413 191 413 191 370 52 c 1,20,-1
 279 60 l 1,21,22
 255 156 255 156 223.5 308.5 c 128,-1,23
 192 461 192 461 175 533 c 1,24,-1
 167 534 l 1,25,26
 176 200 176 200 188 -18 c 1,27,-1
 56 -6 l 1,0,1
EndSplineSet
EndChar

StartChar: N
Encoding: 78 78 50
Width: 544
GlyphClass: 2
Flags: W
LayerCount: 2
Fore
SplineSet
500 704 m 1,0,-1
 501 239 l 2,1,2
 501 124 501 124 493 -8 c 1,3,-1
 381 3 l 1,4,5
 252 296 252 296 170 442 c 1,6,7
 171 294 171 294 171 -30 c 1,8,-1
 54 -17 l 1,9,10
 51 45 51 45 51 103 c 0,11,12
 51 345 51 345 78 667 c 1,13,-1
 211 654 l 1,14,15
 310 381 310 381 389 239 c 1,16,17
 383 541 383 541 375 715 c 1,18,-1
 500 704 l 1,0,-1
EndSplineSet
EndChar

StartChar: O
Encoding: 79 79 51
Width: 521
GlyphClass: 2
Flags: W
LayerCount: 2
Fore
SplineSet
99.5 51.5 m 128,-1,1
 34 137 34 137 34 311.5 c 128,-1,2
 34 486 34 486 105.5 596 c 128,-1,3
 177 706 177 706 274 706 c 128,-1,4
 371 706 371 706 435.5 620 c 128,-1,5
 500 534 500 534 500 361 c 128,-1,6
 500 188 500 188 428 77 c 128,-1,7
 356 -34 356 -34 260.5 -34 c 128,-1,0
 165 -34 165 -34 99.5 51.5 c 128,-1,1
199 509.5 m 128,-1,9
 167 432 167 432 167 314.5 c 128,-1,10
 167 197 167 197 194.5 140.5 c 128,-1,11
 222 84 222 84 263 84 c 128,-1,12
 304 84 304 84 335.5 162 c 128,-1,13
 367 240 367 240 367 357.5 c 128,-1,14
 367 475 367 475 340.5 531 c 128,-1,15
 314 587 314 587 275 587 c 0,16,8
 231 587 231 587 199 509.5 c 128,-1,9
EndSplineSet
EndChar

StartChar: P
Encoding: 80 80 52
Width: 465
GlyphClass: 2
Flags: W
LayerCount: 2
Fore
SplineSet
69 -17 m 1,0,1
 65 96 65 96 65 254.5 c 128,-1,2
 65 413 65 413 75 678 c 1,3,4
 159 709 159 709 247.5 709 c 128,-1,5
 336 709 336 709 405.5 643.5 c 128,-1,6
 475 578 475 578 475 478.5 c 128,-1,7
 475 379 475 379 399.5 306.5 c 128,-1,8
 324 234 324 234 202 200 c 1,9,10
 202 88 202 88 205 -30 c 1,11,-1
 69 -17 l 1,0,1
338 473 m 128,-1,13
 338 526 338 526 310.5 559 c 128,-1,14
 283 592 283 592 249 592 c 0,15,16
 240 592 240 592 208 587 c 1,17,18
 203 446 203 446 202 314 c 1,19,20
 265 334 265 334 301.5 377 c 128,-1,12
 338 420 338 420 338 473 c 128,-1,13
EndSplineSet
EndChar

StartChar: Q
Encoding: 81 81 53
Width: 521
GlyphClass: 2
Flags: W
LayerCount: 2
Fore
SplineSet
99.5 51.5 m 128,-1,1
 34 137 34 137 34 311.5 c 128,-1,2
 34 486 34 486 105.5 596 c 128,-1,3
 177 706 177 706 274 706 c 128,-1,4
 371 706 371 706 435.5 620 c 128,-1,5
 500 534 500 534 500 358 c 128,-1,6
 500 182 500 182 420 65 c 1,7,8
 458 14 458 14 518 -38 c 1,9,-1
 389 -86 l 1,10,11
 355 -44 355 -44 335 -14 c 1,12,13
 298 -34 298 -34 263 -34 c 0,14,0
 165 -34 165 -34 99.5 51.5 c 128,-1,1
199 509.5 m 128,-1,16
 167 432 167 432 167 314.5 c 128,-1,17
 167 197 167 197 194.5 140.5 c 128,-1,18
 222 84 222 84 263 84 c 0,19,20
 268 84 268 84 276 86 c 1,21,22
 255 131 255 131 246 176 c 1,23,-1
 338 169 l 1,24,25
 367 251 367 251 367 363 c 128,-1,26
 367 475 367 475 340.5 531 c 128,-1,27
 314 587 314 587 275 587 c 0,28,15
 231 587 231 587 199 509.5 c 128,-1,16
EndSplineSet
EndChar

StartChar: R
Encoding: 82 82 54
Width: 525
GlyphClass: 2
Flags: W
LayerCount: 2
Fore
SplineSet
62 -9 m 1,0,1
 75 231 75 231 75 419 c 128,-1,2
 75 607 75 607 74 666 c 1,3,4
 184 718 184 718 303 718 c 0,5,6
 391 718 391 718 450.5 662 c 128,-1,7
 510 606 510 606 510 504 c 0,8,9
 510 386 510 386 343 277 c 1,10,11
 434 163 434 163 529 26 c 1,12,-1
 433 -45 l 1,13,14
 370 50 370 50 207 265 c 1,15,16
 204 111 204 111 198 -24 c 1,17,-1
 62 -9 l 1,0,1
336 419.5 m 128,-1,19
 388 471 388 471 388 513 c 128,-1,20
 388 555 388 555 363.5 578 c 128,-1,21
 339 601 339 601 299 601 c 128,-1,22
 259 601 259 601 211 584 c 1,23,24
 211 415 211 415 210 333 c 1,25,18
 284 368 284 368 336 419.5 c 128,-1,19
EndSplineSet
EndChar

StartChar: S
Encoding: 83 83 55
Width: 475
GlyphClass: 2
Flags: W
LayerCount: 2
Fore
SplineSet
302 437 m 1,0,1
 315 486 315 486 315 519 c 128,-1,2
 315 552 315 552 297 573.5 c 128,-1,3
 279 595 279 595 250.5 595 c 128,-1,4
 222 595 222 595 203 567 c 128,-1,5
 184 539 184 539 184 503 c 0,6,7
 184 433 184 433 264 383 c 1,8,9
 344 331 344 331 373 308 c 128,-1,10
 402 285 402 285 414 266 c 0,11,12
 444 217 444 217 444 165 c 0,13,14
 444 75 444 75 383.5 21.5 c 128,-1,15
 323 -32 323 -32 247 -32 c 0,16,17
 157 -32 157 -32 96 44 c 0,18,19
 52 99 52 99 15 181 c 1,20,-1
 112 228 l 1,21,22
 135 168 135 168 169.5 126.5 c 128,-1,23
 204 85 204 85 243 85 c 0,24,25
 268 85 268 85 288 101 c 128,-1,26
 308 117 308 117 308 149.5 c 128,-1,27
 308 182 308 182 283 210 c 128,-1,28
 258 238 258 238 216 267 c 128,-1,29
 174 296 174 296 151 314.5 c 128,-1,30
 128 333 128 333 100 362 c 0,31,32
 47 418 47 418 47 505.5 c 128,-1,33
 47 593 47 593 108 652.5 c 128,-1,34
 169 712 169 712 253 712 c 128,-1,35
 337 712 337 712 394.5 647 c 128,-1,36
 452 582 452 582 452 513.5 c 128,-1,37
 452 445 452 445 426 396 c 1,38,-1
 302 437 l 1,0,1
EndSplineSet
EndChar

StartChar: T
Encoding: 84 84 56
Width: 387
GlyphClass: 2
Flags: W
LayerCount: 2
Fore
SplineSet
145 -2 m 1,0,1
 135 175 135 175 135 306.5 c 128,-1,2
 135 438 135 438 141 581 c 1,3,-1
 19 564 l 1,4,-1
 -3 680 l 1,5,6
 95 697 95 697 191 705 c 1,7,-1
 378 715 l 1,8,-1
 397 604 l 1,9,10
 342 601 342 601 273 595 c 1,11,12
 267 451 267 451 267 331 c 128,-1,13
 267 211 267 211 271 -13 c 1,14,-1
 145 -2 l 1,0,1
EndSplineSet
EndChar

StartChar: U
Encoding: 85 85 57
Width: 539
GlyphClass: 2
Flags: W
LayerCount: 2
Fore
SplineSet
191 235 m 0,0,1
 191 183 191 183 214 142 c 128,-1,2
 237 101 237 101 268.5 101 c 128,-1,3
 300 101 300 101 319 129 c 128,-1,4
 338 157 338 157 346 203 c 0,5,6
 360 284 360 284 360 390.5 c 128,-1,7
 360 497 360 497 347 703 c 1,8,-1
 483 689 l 1,9,10
 497 483 497 483 497 409 c 128,-1,11
 497 335 497 335 495 305.5 c 128,-1,12
 493 276 493 276 487 237 c 128,-1,13
 481 198 481 198 471 164 c 128,-1,14
 461 130 461 130 444 96 c 128,-1,15
 427 62 427 62 404 38 c 0,16,17
 353 -17 353 -17 265.5 -17 c 128,-1,18
 178 -17 178 -17 116 61 c 128,-1,19
 54 139 54 139 54 235 c 0,20,21
 54 446 54 446 77 685 c 1,22,-1
 213 672 l 1,23,24
 191 453 191 453 191 235 c 0,0,1
EndSplineSet
EndChar

StartChar: V
Encoding: 86 86 58
Width: 475
GlyphClass: 2
Flags: W
LayerCount: 2
Fore
SplineSet
21 680 m 1,0,-1
 150 668 l 1,1,2
 188 419 188 419 245 189 c 1,3,-1
 249 190 l 1,4,5
 319 459 319 459 362 716 c 1,6,-1
 494 705 l 1,7,8
 427 361 427 361 295 -6 c 1,9,-1
 180 4 l 1,10,11
 78 365 78 365 21 680 c 1,0,-1
EndSplineSet
EndChar

StartChar: W
Encoding: 87 87 59
Width: 663
GlyphClass: 2
Flags: W
LayerCount: 2
Fore
SplineSet
299 626 m 1,0,-1
 399 617 l 1,1,2
 406 537 406 537 420.5 405.5 c 128,-1,3
 435 274 435 274 441 219 c 1,4,-1
 446 220 l 1,5,6
 517 526 517 526 538 699 c 1,7,-1
 669 688 l 1,8,9
 613 357 613 357 505 8 c 1,10,-1
 409 16 l 1,11,12
 375 134 375 134 333 325 c 1,13,14
 290 119 290 119 251 -4 c 1,15,-1
 155 4 l 1,16,17
 70 428 70 428 40 692 c 1,18,-1
 169 681 l 1,19,20
 185 512 185 512 219 219 c 1,21,-1
 224 220 l 1,22,23
 282 487 282 487 299 626 c 1,0,-1
EndSplineSet
EndChar

StartChar: X
Encoding: 88 88 60
Width: 463
GlyphClass: 2
Flags: W
LayerCount: 2
Fore
SplineSet
23 35 m 1,0,1
 87 192 87 192 163 336 c 1,2,3
 84 514 84 514 50 667 c 1,4,-1
 189 655 l 1,5,6
 199 581 199 581 239 437 c 1,7,8
 305 571 305 571 381 700 c 1,9,-1
 478 617 l 1,10,11
 395 493 395 493 306 325 c 1,12,13
 363 186 363 186 452 -8 c 1,14,-1
 317 6 l 1,15,16
 278 95 278 95 233 220 c 1,17,18
 154 50 154 50 128 -30 c 1,19,-1
 23 35 l 1,0,1
EndSplineSet
EndChar

StartChar: Y
Encoding: 89 89 61
Width: 444
GlyphClass: 2
Flags: W
LayerCount: 2
Fore
SplineSet
161 191 m 2,0,-1
 161 268 l 1,1,2
 30 545 30 545 16 667 c 1,3,-1
 141 655 l 1,4,5
 163 543 163 543 233 387 c 1,6,7
 316 568 316 568 362 714 c 1,8,-1
 478 703 l 1,9,10
 404 492 404 492 300 274 c 1,11,12
 298 184 298 184 298 116 c 128,-1,13
 298 48 298 48 302 -21 c 1,14,-1
 170 -7 l 1,15,16
 161 86 161 86 161 191 c 2,0,-1
EndSplineSet
EndChar

StartChar: Z
Encoding: 90 90 62
Width: 458
GlyphClass: 2
Flags: W
LayerCount: 2
Fore
SplineSet
193 122 m 1,0,1
 229 125 229 125 288 125 c 128,-1,2
 347 125 347 125 440 111 c 1,3,-1
 423 -8 l 1,4,5
 310 7 310 7 248.5 7 c 128,-1,6
 187 7 187 7 55 -15 c 1,7,-1
 39 90 l 1,8,9
 227 390 227 390 315 562 c 1,10,11
 177 554 177 554 74 539 c 1,12,-1
 55 656 l 1,13,14
 178 682 178 682 448 685 c 1,15,-1
 465 598 l 1,16,17
 317 316 317 316 193 122 c 1,0,1
EndSplineSet
EndChar

StartChar: bracketleft
Encoding: 91 91 63
Width: 373
GlyphClass: 2
Flags: W
LayerCount: 2
Fore
SplineSet
209 -121 m 1,0,-1
 366 -112 l 1,1,-1
 372 -210 l 1,2,3
 291 -233 291 -233 180 -238 c 1,4,-1
 65 -227 l 1,5,6
 77 95 77 95 77 308.5 c 128,-1,7
 77 522 77 522 65 710 c 1,8,9
 162 724 162 724 236 724 c 128,-1,10
 310 724 310 724 349 715 c 1,11,-1
 379 615 l 1,12,13
 327 619 327 619 261 619 c 1,14,-1
 213 616 l 1,15,16
 197 351 197 351 197 191 c 128,-1,17
 197 31 197 31 209 -121 c 1,0,-1
EndSplineSet
EndChar

StartChar: backslash
Encoding: 92 92 64
Width: 410
GlyphClass: 2
Flags: W
LayerCount: 2
Fore
SplineSet
440 -73 m 1,0,-1
 340 -83 l 1,1,2
 320 -36 320 -36 245.5 153 c 128,-1,3
 171 342 171 342 112.5 470 c 128,-1,4
 54 598 54 598 -2 684 c 1,5,-1
 86 731 l 1,6,7
 178 566 178 566 274 334 c 0,8,9
 306 259 306 259 364.5 114 c 128,-1,10
 423 -31 423 -31 440 -73 c 1,0,-1
EndSplineSet
EndChar

StartChar: bracketright
Encoding: 93 93 65
Width: 373
GlyphClass: 2
Flags: W
LayerCount: 2
Fore
SplineSet
185 607 m 1,0,-1
 28 598 l 1,1,-1
 22 696 l 1,2,3
 103 719 103 719 214 724 c 1,4,-1
 329 713 l 1,5,6
 317 391 317 391 317 177 c 128,-1,7
 317 -37 317 -37 329 -224 c 1,8,9
 232 -238 232 -238 158 -238 c 128,-1,10
 84 -238 84 -238 45 -229 c 1,11,-1
 15 -129 l 1,12,13
 67 -133 67 -133 133 -133 c 1,14,-1
 181 -130 l 1,15,16
 197 135 197 135 197 295 c 128,-1,17
 197 455 197 455 185 607 c 1,0,-1
EndSplineSet
EndChar

StartChar: asciicircum
Encoding: 94 94 66
Width: 1000
GlyphClass: 2
Flags: W
LayerCount: 2
Fore
SplineSet
452 742 m 1,0,-1
 561 731 l 1,1,2
 675 551 675 551 827 395 c 1,3,-1
 692 360 l 1,4,5
 574 494 574 494 500 614 c 1,6,7
 374 479 374 479 307 355 c 1,8,-1
 186 391 l 1,9,10
 266 559 266 559 452 742 c 1,0,-1
EndSplineSet
EndChar

StartChar: underscore
Encoding: 95 95 67
Width: 500
GlyphClass: 2
Flags: W
LayerCount: 2
Fore
SplineSet
0 -120 m 1,0,-1
 260 -112 l 1,1,2
 409 -112 409 -112 501 -123 c 1,3,-1
 483 -233 l 1,4,5
 417 -222 417 -222 270 -222 c 1,6,-1
 0 -230 l 1,7,-1
 0 -120 l 1,0,-1
EndSplineSet
EndChar

StartChar: grave
Encoding: 96 96 68
Width: 500
GlyphClass: 2
Flags: W
LayerCount: 2
Fore
SplineSet
323 572 m 1,0,-1
 278 515 l 1,1,2
 180 565 180 565 85 588 c 1,3,-1
 139 677 l 1,4,5
 210 646 210 646 323 572 c 1,0,-1
EndSplineSet
EndChar

StartChar: a
Encoding: 97 97 69
Width: 390
GlyphClass: 2
Flags: W
LayerCount: 2
Fore
SplineSet
103 427.5 m 128,-1,1
 145 482 145 482 213 482 c 128,-1,2
 281 482 281 482 313.5 425.5 c 128,-1,3
 346 369 346 369 346 265 c 128,-1,4
 346 161 346 161 334 -22 c 1,5,-1
 250 -15 l 1,6,-1
 242 17 l 1,7,8
 195 -10 195 -10 146 -10 c 128,-1,9
 97 -10 97 -10 65 22.5 c 128,-1,10
 33 55 33 55 33 116 c 128,-1,11
 33 177 33 177 93.5 221 c 128,-1,12
 154 265 154 265 233 267 c 1,13,-1
 233 294 l 2,14,15
 233 373 233 373 195 373 c 0,16,17
 176 373 176 373 160.5 346.5 c 128,-1,18
 145 320 145 320 138 286 c 1,19,-1
 46 295 l 1,20,0
 61 373 61 373 103 427.5 c 128,-1,1
135 110 m 0,21,22
 135 78 135 78 173 78 c 0,23,24
 199 78 199 78 228 90 c 1,25,-1
 230 174 l 1,26,27
 183 170 183 170 159 150.5 c 128,-1,28
 135 131 135 131 135 110 c 0,21,22
EndSplineSet
EndChar

StartChar: b
Encoding: 98 98 70
Width: 431
GlyphClass: 2
Flags: W
LayerCount: 2
Fore
SplineSet
305 471 m 0,0,1
 353 471 353 471 376.5 418 c 128,-1,2
 400 365 400 365 400 292.5 c 128,-1,3
 400 220 400 220 384.5 149 c 128,-1,4
 369 78 369 78 335.5 28.5 c 128,-1,5
 302 -21 302 -21 259 -21 c 0,6,7
 196 -21 196 -21 155 35 c 1,8,9
 155 21 155 21 157 -5 c 1,10,-1
 69 4 l 1,11,12
 63 124 63 124 63 326.5 c 128,-1,13
 63 529 63 529 74 733 c 1,14,-1
 188 723 l 1,15,16
 176 526 176 526 176 365 c 1,17,18
 243 471 243 471 305 471 c 0,0,1
176 194 m 1,19,-1
 177 116 l 1,20,21
 189 99 189 99 198 92.5 c 128,-1,22
 207 86 207 86 225 86 c 0,23,24
 250 86 250 86 269 141.5 c 128,-1,25
 288 197 288 197 288 247 c 128,-1,26
 288 297 288 297 282.5 319 c 128,-1,27
 277 341 277 341 259 341 c 0,28,29
 221 341 221 341 176 194 c 1,19,-1
EndSplineSet
EndChar

StartChar: c
Encoding: 99 99 71
Width: 354
GlyphClass: 2
Flags: W
LayerCount: 2
Fore
SplineSet
232 256 m 1,0,1
 234 270 234 270 234 292 c 128,-1,2
 234 314 234 314 225 337 c 128,-1,3
 216 360 216 360 202 360 c 0,4,5
 174 360 174 360 161.5 295.5 c 128,-1,6
 149 231 149 231 149 177 c 0,7,8
 149 86 149 86 186 86 c 0,9,10
 216 86 216 86 271 191 c 1,11,-1
 345 138 l 1,12,13
 318 65 318 65 277.5 22 c 128,-1,14
 237 -21 237 -21 180 -21 c 128,-1,15
 123 -21 123 -21 77.5 24 c 128,-1,16
 32 69 32 69 32 161 c 0,17,18
 32 259 32 259 64 356 c 0,19,20
 82 409 82 409 117.5 443 c 128,-1,21
 153 477 153 477 208 477 c 128,-1,22
 263 477 263 477 299.5 421 c 128,-1,23
 336 365 336 365 336 297 c 0,24,25
 336 268 336 268 327 247 c 1,26,-1
 232 256 l 1,0,1
EndSplineSet
EndChar

StartChar: d
Encoding: 100 100 72
Width: 410
GlyphClass: 2
Flags: W
LayerCount: 2
Fore
SplineSet
250 453 m 1,0,-1
 251 577 l 2,1,2
 251 646 251 646 248 734 c 1,3,-1
 365 724 l 1,4,5
 367 653 367 653 367 466.5 c 128,-1,6
 367 280 367 280 351 -14 c 1,7,-1
 262 -6 l 1,8,9
 259 34 259 34 256 88 c 1,10,11
 213 2 213 2 163 2 c 0,12,13
 86 2 86 2 56 50 c 128,-1,14
 26 98 26 98 26 189.5 c 128,-1,15
 26 281 26 281 65.5 379 c 128,-1,16
 105 477 105 477 155 477 c 0,17,18
 200 477 200 477 250 453 c 1,0,-1
253 360 m 1,19,20
 228 379 228 379 203.5 379 c 128,-1,21
 179 379 179 379 161 314.5 c 128,-1,22
 143 250 143 250 143 180 c 128,-1,23
 143 110 143 110 177 110 c 0,24,25
 190 110 190 110 212 153.5 c 128,-1,26
 234 197 234 197 252 264 c 1,27,-1
 253 360 l 1,19,20
EndSplineSet
EndChar

StartChar: e
Encoding: 101 101 73
Width: 367
GlyphClass: 2
Flags: W
LayerCount: 2
Fore
SplineSet
184 72 m 0,0,1
 222 72 222 72 265 145 c 1,2,-1
 341 100 l 1,3,4
 322 67 322 67 304.5 44 c 128,-1,5
 287 21 287 21 252 0 c 128,-1,6
 217 -21 217 -21 174 -21 c 0,7,8
 111 -21 111 -21 68 32.5 c 128,-1,9
 25 86 25 86 25 177 c 0,10,11
 25 281 25 281 62 371 c 0,12,13
 82 418 82 418 119.5 447.5 c 128,-1,14
 157 477 157 477 196.5 477 c 128,-1,15
 236 477 236 477 260 464.5 c 128,-1,16
 284 452 284 452 298.5 436.5 c 128,-1,17
 313 421 313 421 324 391 c 128,-1,18
 335 361 335 361 339.5 342 c 128,-1,19
 344 323 344 323 347 287 c 0,20,21
 351 239 351 239 351 200 c 1,22,23
 271 178 271 178 144 160 c 1,24,25
 147 120 147 120 158 96 c 128,-1,26
 169 72 169 72 184 72 c 0,0,1
206 379 m 0,27,28
 184 379 184 379 166.5 335 c 128,-1,29
 149 291 149 291 146 233 c 1,30,31
 199 244 199 244 238 254 c 1,32,33
 238 379 238 379 206 379 c 0,27,28
EndSplineSet
EndChar

StartChar: f
Encoding: 102 102 74
Width: 287
GlyphClass: 2
Flags: W
LayerCount: 2
Fore
SplineSet
71 445 m 2,0,1
 71 580 71 580 111.5 657.5 c 128,-1,2
 152 735 152 735 215.5 735 c 128,-1,3
 279 735 279 735 312.5 670.5 c 128,-1,4
 346 606 346 606 346 493 c 1,5,-1
 253 503 l 1,6,7
 253 615 253 615 218 615 c 0,8,9
 188 615 188 615 188 445 c 2,10,-1
 188 416 l 1,11,12
 255 421 255 421 297 421 c 1,13,-1
 297 328 l 1,14,15
 228 328 228 328 189 323 c 1,16,17
 189 170 189 170 200 -17 c 1,18,-1
 83 -5 l 1,19,20
 75 133 75 133 72 307 c 1,21,22
 46 303 46 303 36 300 c 1,23,-1
 15 390 l 1,24,25
 25 393 25 393 71 401 c 1,26,-1
 71 445 l 2,0,1
EndSplineSet
EndChar

StartChar: g
Encoding: 103 103 75
Width: 404
GlyphClass: 2
Flags: W
LayerCount: 2
Fore
SplineSet
193 -134 m 0,0,1
 224 -134 224 -134 243 -70.5 c 128,-1,2
 262 -7 262 -7 262 87 c 1,3,4
 209 -8 209 -8 152.5 -8 c 128,-1,5
 96 -8 96 -8 61.5 30.5 c 128,-1,6
 27 69 27 69 27 147.5 c 128,-1,7
 27 226 27 226 54 303.5 c 128,-1,8
 81 381 81 381 120.5 427.5 c 128,-1,9
 160 474 160 474 196 474 c 0,10,11
 259 474 259 474 312 423 c 1,12,-1
 382 413 l 1,13,14
 369 348 369 348 369 213.5 c 128,-1,15
 369 79 369 79 361.5 15.5 c 128,-1,16
 354 -48 354 -48 337 -109 c 128,-1,17
 320 -170 320 -170 287 -206 c 128,-1,18
 254 -242 254 -242 200 -242 c 128,-1,19
 146 -242 146 -242 97 -198.5 c 128,-1,20
 48 -155 48 -155 18 -94 c 1,21,-1
 102 -58 l 1,22,23
 141 -134 141 -134 193 -134 c 0,0,1
221 372 m 0,24,25
 196 372 196 372 170.5 300 c 128,-1,26
 145 228 145 228 145 147 c 0,27,28
 145 116 145 116 153.5 100 c 128,-1,29
 162 84 162 84 172.5 84 c 128,-1,30
 183 84 183 84 200 104 c 128,-1,31
 217 124 217 124 236.5 168 c 128,-1,32
 256 212 256 212 265 265 c 1,33,-1
 267 341 l 1,34,35
 238 372 238 372 221 372 c 0,24,25
EndSplineSet
EndChar

StartChar: h
Encoding: 104 104 76
Width: 425
GlyphClass: 2
Flags: W
LayerCount: 2
Fore
SplineSet
181 407 m 1,0,1
 227 464 227 464 271.5 464 c 128,-1,2
 316 464 316 464 344 434 c 0,3,4
 393 382 393 382 393 302 c 0,5,6
 393 157 393 157 382 -1 c 1,7,-1
 266 10 l 1,8,9
 273 157 273 157 273 299 c 0,10,11
 273 352 273 352 246 352 c 0,12,13
 214 352 214 352 177 212 c 1,14,15
 175 112 175 112 167 -15 c 1,16,-1
 50 -4 l 1,17,18
 63 168 63 168 63 380 c 128,-1,19
 63 592 63 592 56 721 c 1,20,-1
 173 710 l 1,21,22
 181 569 181 569 181 407 c 1,0,1
EndSplineSet
EndChar

StartChar: i
Encoding: 105 105 77
Width: 236
GlyphClass: 2
Flags: W
LayerCount: 2
Fore
SplineSet
69 477 m 1,0,-1
 183 466 l 1,1,-1
 183 -14 l 1,2,-1
 69 -3 l 1,3,-1
 69 477 l 1,0,-1
77 653 m 1,4,-1
 189 640 l 1,5,-1
 179 528 l 1,6,-1
 67 542 l 1,7,-1
 77 653 l 1,4,-1
EndSplineSet
EndChar

StartChar: j
Encoding: 106 106 78
Width: 252
GlyphClass: 2
Flags: W
LayerCount: 2
Fore
SplineSet
203 -5 m 0,0,1
 203 -120 203 -120 164 -182.5 c 128,-1,2
 125 -245 125 -245 70 -245 c 0,3,4
 46 -245 46 -245 10.5 -226 c 128,-1,5
 -25 -207 -25 -207 -51 -175 c 1,6,-1
 -16 -98 l 1,7,8
 23 -128 23 -128 42.5 -128 c 128,-1,9
 62 -128 62 -128 76.5 -98.5 c 128,-1,10
 91 -69 91 -69 91 -15 c 0,11,12
 91 326 91 326 86 468 c 1,13,-1
 194 457 l 1,14,15
 203 306 203 306 203 -5 c 0,0,1
92 653 m 1,16,-1
 204 640 l 1,17,-1
 194 528 l 1,18,-1
 82 542 l 1,19,-1
 92 653 l 1,16,-1
EndSplineSet
EndChar

StartChar: k
Encoding: 107 107 79
Width: 410
GlyphClass: 2
Flags: W
LayerCount: 2
Fore
SplineSet
63 -8 m 1,0,1
 59 96 59 96 59 300 c 128,-1,2
 59 504 59 504 74 731 c 1,3,-1
 191 722 l 1,4,5
 176 477 176 477 176 250 c 1,6,7
 280 377 280 377 332 497 c 1,8,-1
 412 427 l 1,9,10
 367 322 367 322 292 219 c 1,11,12
 370 128 370 128 416 49 c 1,13,-1
 340 -23 l 1,14,15
 286 61 286 61 176 176 c 1,16,17
 176 65 176 65 180 -19 c 1,18,-1
 63 -8 l 1,0,1
EndSplineSet
EndChar

StartChar: l
Encoding: 108 108 80
Width: 236
GlyphClass: 2
Flags: W
LayerCount: 2
Fore
SplineSet
196 722 m 1,0,1
 181 469 181 469 181 266 c 128,-1,2
 181 63 181 63 186 -19 c 1,3,-1
 68 -8 l 1,4,5
 64 96 64 96 64 287.5 c 128,-1,6
 64 479 64 479 79 731 c 1,7,-1
 196 722 l 1,0,1
EndSplineSet
EndChar

StartChar: m
Encoding: 109 109 81
Width: 647
GlyphClass: 2
Flags: W
LayerCount: 2
Fore
SplineSet
271 446 m 0,0,1
 332 446 332 446 364 404 c 1,2,3
 416 480 416 480 467 480 c 0,4,5
 606 480 606 480 606 271 c 0,6,7
 606 153 606 153 586 -15 c 1,8,-1
 470 -5 l 1,9,10
 489 182 489 182 489 280 c 128,-1,11
 489 378 489 378 457 378 c 0,12,13
 443 378 443 378 424 333 c 128,-1,14
 405 288 405 288 399 233 c 1,15,16
 397 108 397 108 391 10 c 1,17,-1
 274 21 l 1,18,19
 282 162 282 162 282 253 c 128,-1,20
 282 344 282 344 257 344 c 0,21,22
 241 344 241 344 215.5 288.5 c 128,-1,23
 190 233 190 233 179 172 c 1,24,25
 180 80 180 80 188 -18 c 1,26,-1
 71 -7 l 1,27,28
 60 134 60 134 60 250 c 128,-1,29
 60 366 60 366 66 467 c 1,30,-1
 149 461 l 1,31,32
 155 434 155 434 166 363 c 1,33,34
 219 446 219 446 271 446 c 0,0,1
EndSplineSet
EndChar

StartChar: n
Encoding: 110 110 82
Width: 424
GlyphClass: 2
Flags: W
LayerCount: 2
Fore
SplineSet
257 476 m 0,0,1
 389 476 389 476 389 256 c 0,2,3
 389 140 389 140 376 10 c 1,4,-1
 259 21 l 1,5,6
 270 135 270 135 270 251.5 c 128,-1,7
 270 368 270 368 237 368 c 0,8,9
 221 368 221 368 196 287.5 c 128,-1,10
 171 207 171 207 165 130 c 1,11,12
 167 89 167 89 173 -18 c 1,13,-1
 56 -7 l 1,14,15
 45 134 45 134 45 241 c 128,-1,16
 45 348 45 348 51 433 c 1,17,-1
 125 425 l 1,18,19
 127 417 127 417 140 360 c 1,20,21
 198 476 198 476 257 476 c 0,0,1
EndSplineSet
EndChar

StartChar: o
Encoding: 111 111 83
Width: 368
GlyphClass: 2
Flags: W
LayerCount: 2
Fore
SplineSet
141 180 m 0,0,1
 141 67 141 67 191 67 c 0,2,3
 213 67 213 67 228 130.5 c 128,-1,4
 243 194 243 194 243 252 c 0,5,6
 243 380 243 380 201 380 c 0,7,8
 174 380 174 380 157.5 311.5 c 128,-1,9
 141 243 141 243 141 180 c 0,0,1
24 189 m 0,10,11
 24 282 24 282 62 371 c 0,12,13
 82 416 82 416 118.5 444.5 c 128,-1,14
 155 473 155 473 200 473 c 128,-1,15
 245 473 245 473 277.5 452.5 c 128,-1,16
 310 432 310 432 327 398 c 0,17,18
 360 331 360 331 360 252 c 0,19,20
 360 143 360 143 315.5 58.5 c 128,-1,21
 271 -26 271 -26 191 -26 c 0,22,23
 24 -26 24 -26 24 189 c 0,10,11
EndSplineSet
EndChar

StartChar: p
Encoding: 112 112 84
Width: 410
GlyphClass: 2
Flags: W
LayerCount: 2
Fore
SplineSet
172 405 m 1,0,1
 212 466 212 466 271 466 c 128,-1,2
 330 466 330 466 363 418 c 128,-1,3
 396 370 396 370 396 292 c 0,4,5
 396 176 396 176 346.5 81 c 128,-1,6
 297 -14 297 -14 241 -14 c 0,7,8
 201 -14 201 -14 172 -4 c 1,9,10
 174 -142 174 -142 179 -245 c 1,11,-1
 62 -233 l 1,12,13
 57 -53 57 -53 57 149.5 c 128,-1,14
 57 352 57 352 71 499 c 1,15,-1
 175 488 l 1,16,-1
 172 405 l 1,0,1
202 86 m 0,17,18
 230 86 230 86 254.5 141 c 128,-1,19
 279 196 279 196 279 251.5 c 128,-1,20
 279 307 279 307 269 337.5 c 128,-1,21
 259 368 259 368 246 368 c 0,22,23
 224 368 224 368 207.5 342 c 128,-1,24
 191 316 191 316 173 267 c 1,25,26
 172 215 172 215 172 107 c 1,27,28
 187 86 187 86 202 86 c 0,17,18
EndSplineSet
EndChar

StartChar: q
Encoding: 113 113 85
Width: 402
GlyphClass: 2
Flags: W
LayerCount: 2
Fore
SplineSet
373 442 m 1,0,1
 355 311 355 311 355 89.5 c 128,-1,2
 355 -132 355 -132 361 -239 c 1,3,-1
 244 -228 l 1,4,5
 238 -129 238 -129 238 15 c 1,6,7
 200 -14 200 -14 165 -14 c 0,8,9
 107 -14 107 -14 67.5 38.5 c 128,-1,10
 28 91 28 91 28 173 c 0,11,12
 28 295 28 295 69.5 385 c 128,-1,13
 111 475 111 475 175.5 475 c 128,-1,14
 240 475 240 475 294 400 c 1,15,16
 302 427 302 427 305 449 c 1,17,-1
 373 442 l 1,0,1
180 79 m 0,18,19
 197 79 197 79 213.5 105 c 128,-1,20
 230 131 230 131 240 162 c 1,21,22
 242 237 242 237 248 323 c 1,23,24
 243 345 243 345 230.5 359 c 128,-1,25
 218 373 218 373 204 373 c 0,26,27
 180 373 180 373 162.5 312.5 c 128,-1,28
 145 252 145 252 145 198 c 128,-1,29
 145 144 145 144 155 111.5 c 128,-1,30
 165 79 165 79 180 79 c 0,18,19
EndSplineSet
EndChar

StartChar: r
Encoding: 114 114 86
Width: 301
GlyphClass: 2
Flags: W
LayerCount: 2
Fore
SplineSet
239 361 m 0,0,1
 197 361 197 361 176 255 c 1,2,3
 178 185 178 185 178 121 c 128,-1,4
 178 57 178 57 174 -23 c 1,5,-1
 58 -13 l 1,6,7
 61 134 61 134 61 149 c 0,8,9
 61 334 61 334 43 432 c 1,10,-1
 118 424 l 1,11,12
 125 395 125 395 134 373 c 1,13,14
 183 478 183 478 233 478 c 0,15,16
 274 478 274 478 305 442 c 1,17,-1
 279 350 l 1,18,19
 263 361 263 361 239 361 c 0,0,1
EndSplineSet
EndChar

StartChar: s
Encoding: 115 115 87
Width: 347
GlyphClass: 2
Flags: W
LayerCount: 2
Fore
SplineSet
237 315 m 0,0,1
 237 375 237 375 207 375 c 0,2,3
 192 375 192 375 179.5 360.5 c 128,-1,4
 167 346 167 346 167 321.5 c 128,-1,5
 167 297 167 297 176.5 281 c 128,-1,6
 186 265 186 265 211.5 249.5 c 128,-1,7
 237 234 237 234 251.5 224.5 c 128,-1,8
 266 215 266 215 286 198 c 0,9,10
 327 162 327 162 327 105.5 c 128,-1,11
 327 49 327 49 284.5 14 c 128,-1,12
 242 -21 242 -21 189 -21 c 128,-1,13
 136 -21 136 -21 93.5 7.5 c 128,-1,14
 51 36 51 36 25 79 c 1,15,-1
 79 140 l 1,16,17
 119 71 119 71 163 71 c 0,18,19
 178 71 178 71 189 79.5 c 128,-1,20
 200 88 200 88 200 103 c 0,21,22
 200 135 200 135 154 162 c 1,23,24
 105 189 105 189 77 222 c 128,-1,25
 49 255 49 255 49 315.5 c 128,-1,26
 49 376 49 376 99 424.5 c 128,-1,27
 149 473 149 473 206.5 473 c 128,-1,28
 264 473 264 473 297.5 433.5 c 128,-1,29
 331 394 331 394 331 327 c 0,30,31
 331 300 331 300 325 269 c 1,32,-1
 234 277 l 1,33,34
 237 300 237 300 237 315 c 0,0,1
EndSplineSet
EndChar

StartChar: t
Encoding: 116 116 88
Width: 287
GlyphClass: 2
Flags: W
LayerCount: 2
Fore
SplineSet
285 418 m 1,0,-1
 285 323 l 1,1,2
 237 323 237 323 211 322 c 1,3,4
 208 222 208 222 208 -14 c 1,5,-1
 90 -3 l 1,6,7
 90 172 90 172 93 314 c 1,8,9
 78 314 78 314 36 309 c 1,10,-1
 21 391 l 1,11,12
 45 396 45 396 96 404 c 1,13,14
 98 478 98 478 104 620 c 1,15,-1
 223 609 l 1,16,17
 217 510 217 510 214 417 c 1,18,19
 239 418 239 418 285 418 c 1,0,-1
EndSplineSet
EndChar

StartChar: u
Encoding: 117 117 89
Width: 420
GlyphClass: 2
Flags: W
LayerCount: 2
Fore
SplineSet
378 469 m 1,0,-1
 376 311 l 1,1,2
 376 88 376 88 384 -17 c 1,3,-1
 285 -7 l 1,4,5
 282 35 282 35 272 78 c 1,6,7
 217 -3 217 -3 161.5 -3 c 128,-1,8
 106 -3 106 -3 73 35 c 128,-1,9
 40 73 40 73 40 140 c 0,10,11
 40 270 40 270 59 450 c 1,12,-1
 175 439 l 1,13,14
 157 268 157 268 157 155 c 0,15,16
 157 104 157 104 189 104 c 0,17,18
 204 104 204 104 225.5 145 c 128,-1,19
 247 186 247 186 260 244 c 1,20,21
 259 266 259 266 259 296 c 128,-1,22
 259 326 259 326 262 479 c 1,23,-1
 378 469 l 1,0,-1
EndSplineSet
EndChar

StartChar: v
Encoding: 118 118 90
Width: 366
GlyphClass: 2
Flags: W
LayerCount: 2
Fore
SplineSet
238 -16 m 1,0,-1
 110 -4 l 1,1,2
 36 294 36 294 20 463 c 1,3,-1
 134 453 l 1,4,5
 151 269 151 269 181 123 c 1,6,7
 222 273 222 273 268 500 c 1,8,-1
 376 491 l 1,9,10
 319 228 319 228 238 -16 c 1,0,-1
EndSplineSet
EndChar

StartChar: w
Encoding: 119 119 91
Width: 516
GlyphClass: 2
Flags: W
LayerCount: 2
Fore
SplineSet
399 -12 m 1,0,-1
 305 -4 l 1,1,2
 280 106 280 106 260 200 c 1,3,4
 235 111 235 111 194 -15 c 1,5,-1
 90 -4 l 1,6,7
 29 294 29 294 15 463 c 1,8,-1
 129 452 l 1,9,10
 145 233 145 233 161 118 c 1,11,12
 197 260 197 260 233 444 c 1,13,-1
 310 437 l 1,14,15
 322 276 322 276 347 143 c 1,16,17
 382 280 382 280 424 499 c 1,18,-1
 532 489 l 1,19,20
 488 278 488 278 399 -12 c 1,0,-1
EndSplineSet
EndChar

StartChar: x
Encoding: 120 120 92
Width: 368
GlyphClass: 2
Flags: W
LayerCount: 2
Fore
SplineSet
113 -29 m 1,0,-1
 7 2 l 1,1,2
 53 109 53 109 123 228 c 1,3,4
 63 339 63 339 39 475 c 1,5,-1
 150 464 l 1,6,7
 164 394 164 394 191 320 c 1,8,9
 251 416 251 416 278 497 c 1,10,-1
 364 455 l 1,11,12
 329 346 329 346 241 232 c 1,13,14
 285 129 285 129 353 49 c 1,15,-1
 278 -22 l 1,16,17
 221 52 221 52 179 140 c 1,18,19
 130 23 130 23 113 -29 c 1,0,-1
EndSplineSet
EndChar

StartChar: y
Encoding: 121 121 93
Width: 376
GlyphClass: 2
Flags: W
LayerCount: 2
Fore
SplineSet
287 501 m 1,0,-1
 383 445 l 1,1,2
 300 188 300 188 213 -237 c 1,3,-1
 103 -227 l 1,4,5
 119 -148 119 -148 156 -9 c 1,6,7
 60 175 60 175 35 455 c 1,8,-1
 147 444 l 1,9,10
 162 260 162 260 195 130 c 1,11,12
 241 344 241 344 287 501 c 1,0,-1
EndSplineSet
EndChar

StartChar: z
Encoding: 122 122 94
Width: 344
GlyphClass: 2
Flags: W
LayerCount: 2
Fore
SplineSet
55 461 m 1,0,1
 135 477 135 477 202.5 477 c 128,-1,2
 270 477 270 477 310 474 c 1,3,-1
 326 382 l 1,4,5
 238 259 238 259 152 104 c 1,6,-1
 200 104 l 2,7,8
 265 104 265 104 328 97 c 1,9,-1
 315 5 l 1,10,11
 253 11 253 11 203 11 c 128,-1,12
 153 11 153 11 62 -4 c 1,13,-1
 44 99 l 1,14,15
 157 308 157 308 211 381 c 1,16,17
 125 374 125 374 74 362 c 1,18,-1
 55 461 l 1,0,1
EndSplineSet
EndChar

StartChar: braceleft
Encoding: 123 123 95
Width: 500
GlyphClass: 2
Flags: W
LayerCount: 2
Fore
SplineSet
273 121 m 0,0,1
 273 95 273 95 262 41.5 c 128,-1,2
 251 -12 251 -12 251 -34 c 0,3,4
 251 -74 251 -74 279.5 -98.5 c 128,-1,5
 308 -123 308 -123 360 -130 c 1,6,-1
 340 -245 l 1,7,8
 241 -240 241 -240 181 -185 c 128,-1,9
 121 -130 121 -130 121 -49 c 0,10,11
 121 -21 121 -21 132 33.5 c 128,-1,12
 143 88 143 88 143 116 c 0,13,14
 143 178 143 178 67 180 c 1,15,-1
 52 289 l 1,16,17
 104 290 104 290 123.5 310.5 c 128,-1,18
 143 331 143 331 143 360.5 c 128,-1,19
 143 390 143 390 134.5 441 c 128,-1,20
 126 492 126 492 126 518 c 0,21,22
 126 608 126 608 197 668.5 c 128,-1,23
 268 729 268 729 385 734 c 1,24,-1
 385 634 l 1,25,26
 317 623 317 623 286.5 590 c 128,-1,27
 256 557 256 557 256 498 c 0,28,29
 256 479 256 479 264.5 434.5 c 128,-1,30
 273 390 273 390 273 368 c 0,31,32
 273 292 273 292 187 245 c 1,33,34
 273 198 273 198 273 121 c 0,0,1
EndSplineSet
EndChar

StartChar: bar
Encoding: 124 124 96
Width: 500
GlyphClass: 2
Flags: W
LayerCount: 2
Fore
SplineSet
284 760 m 1,0,-1
 292 210 l 1,1,2
 292 -71 292 -71 281 -245 c 1,3,-1
 201 -238 l 1,4,5
 212 -72 212 -72 212 200 c 1,6,-1
 204 760 l 1,7,-1
 284 760 l 1,0,-1
EndSplineSet
EndChar

StartChar: braceright
Encoding: 125 125 97
Width: 500
GlyphClass: 2
Flags: W
LayerCount: 2
Fore
SplineSet
144 368 m 0,0,1
 144 394 144 394 155 447.5 c 128,-1,2
 166 501 166 501 166 523 c 0,3,4
 166 563 166 563 137.5 587.5 c 128,-1,5
 109 612 109 612 57 619 c 1,6,-1
 77 734 l 1,7,8
 176 729 176 729 236 674 c 128,-1,9
 296 619 296 619 296 538 c 0,10,11
 296 510 296 510 285 455.5 c 128,-1,12
 274 401 274 401 274 374 c 0,13,14
 274 311 274 311 350 309 c 1,15,-1
 365 200 l 1,16,17
 313 199 313 199 293.5 178.5 c 128,-1,18
 274 158 274 158 274 128.5 c 128,-1,19
 274 99 274 99 282.5 48 c 128,-1,20
 291 -3 291 -3 291 -29 c 0,21,22
 291 -119 291 -119 220 -179.5 c 128,-1,23
 149 -240 149 -240 32 -245 c 1,24,-1
 32 -145 l 1,25,26
 100 -134 100 -134 130.5 -101 c 128,-1,27
 161 -68 161 -68 161 -9 c 0,28,29
 161 10 161 10 152.5 54.5 c 128,-1,30
 144 99 144 99 144 121 c 0,31,32
 144 197 144 197 230 244 c 1,33,34
 144 291 144 291 144 368 c 0,0,1
EndSplineSet
EndChar

StartChar: asciitilde
Encoding: 126 126 98
Width: 833
GlyphClass: 2
Flags: W
LayerCount: 2
Fore
SplineSet
151.5 335.5 m 128,-1,1
 206 392 206 392 265.5 392 c 128,-1,2
 325 392 325 392 404 371 c 128,-1,3
 483 350 483 350 520 350 c 0,4,5
 608 350 608 350 660 407 c 1,6,-1
 748 400 l 1,7,8
 734 317 734 317 678.5 270.5 c 128,-1,9
 623 224 623 224 538 224 c 0,10,11
 476 224 476 224 395.5 249 c 128,-1,12
 315 274 315 274 283.5 274 c 128,-1,13
 252 274 252 274 228.5 253 c 128,-1,14
 205 232 205 232 197 203 c 1,15,-1
 85 214 l 1,16,0
 97 279 97 279 151.5 335.5 c 128,-1,1
EndSplineSet
EndChar

StartChar: exclamdown
Encoding: 161 161 100
Width: 278
GlyphClass: 2
Flags: W
LayerCount: 2
Fore
SplineSet
185 512 m 1,0,1
 203 363 203 363 203 240.5 c 128,-1,2
 203 118 203 118 184 -23 c 1,3,-1
 38 5 l 1,4,5
 88 199 88 199 105 522 c 1,6,-1
 185 512 l 1,0,1
90 574 m 1,7,8
 79 594 79 594 79 644 c 128,-1,9
 79 694 79 694 95 731 c 1,10,-1
 214 708 l 1,11,12
 204 671 204 671 204 630.5 c 128,-1,13
 204 590 204 590 206 562 c 1,14,-1
 90 574 l 1,7,8
EndSplineSet
EndChar

StartChar: cent
Encoding: 162 162 101
Width: 484
GlyphClass: 2
Flags: W
LayerCount: 2
Fore
SplineSet
303 354 m 1,0,1
 305 368 305 368 305 390 c 128,-1,2
 305 412 305 412 294.5 435 c 128,-1,3
 284 458 284 458 268 458 c 0,4,5
 240 458 240 458 227.5 393.5 c 128,-1,6
 215 329 215 329 215 275 c 0,7,8
 215 184 215 184 252 184 c 0,9,10
 282 184 282 184 337 289 c 1,11,-1
 411 236 l 1,12,13
 368 120 368 120 302 88 c 1,14,15
 301 37 301 37 291 -26 c 1,16,-1
 191 -17 l 1,17,18
 200 43 200 43 201 85 c 1,19,20
 155 101 155 101 126.5 144 c 128,-1,21
 98 187 98 187 98 249.5 c 128,-1,22
 98 312 98 312 107 368.5 c 128,-1,23
 116 425 116 425 144.5 484 c 128,-1,24
 173 543 173 543 217 564 c 1,25,26
 214 624 214 624 214 682 c 1,27,-1
 314 674 l 1,28,29
 314 645 314 645 318 563 c 1,30,31
 360 543 360 543 383.5 495 c 128,-1,32
 407 447 407 447 407 403 c 128,-1,33
 407 359 407 359 398 345 c 1,34,-1
 303 354 l 1,0,1
EndSplineSet
EndChar

StartChar: sterling
Encoding: 163 163 102
Width: 484
GlyphClass: 2
Flags: W
LayerCount: 2
Fore
SplineSet
333 654 m 0,0,1
 394 654 394 654 428.5 600.5 c 128,-1,2
 463 547 463 547 463 466 c 0,3,4
 463 440 463 440 457 406 c 1,5,-1
 359 416 l 1,6,7
 363 446 363 446 363 466 c 0,8,9
 363 544 363 544 328 544 c 0,10,11
 285 544 285 544 263 343 c 1,12,-1
 261 329 l 1,13,14
 334 334 334 334 400 334 c 1,15,-1
 414 239 l 1,16,17
 305 239 305 239 246 237 c 1,18,19
 227 154 227 154 184 101 c 1,20,21
 339 122 339 122 477 123 c 1,22,-1
 487 13 l 1,23,24
 223 11 223 11 63 -21 c 1,25,-1
 17 80 l 1,26,27
 66 107 66 107 90.5 140.5 c 128,-1,28
 115 174 115 174 128 231 c 1,29,30
 81 228 81 228 45 222 c 1,31,-1
 23 300 l 1,32,33
 95 311 95 311 140 317 c 1,34,-1
 143 353 l 1,35,36
 166 654 166 654 333 654 c 0,0,1
EndSplineSet
EndChar

StartChar: currency
Encoding: 164 164 103
Width: 606
GlyphClass: 2
Flags: W
LayerCount: 2
Fore
SplineSet
20 232 m 1,0,-1
 104 322 l 1,1,2
 91 357 91 357 91 416.5 c 128,-1,3
 91 476 91 476 117 535 c 1,4,5
 46 610 46 610 7 658 c 1,6,-1
 103 720 l 1,7,8
 145 671 145 671 188 626 c 1,9,10
 239 663 239 663 306 663 c 128,-1,11
 373 663 373 663 418 634 c 1,12,13
 472 682 472 682 524 722 c 1,14,-1
 596 625 l 1,15,16
 547 589 547 589 490 539 c 1,17,18
 507 494 507 494 507 440 c 128,-1,19
 507 386 507 386 486 334 c 1,20,-1
 591 229 l 1,21,-1
 506 144 l 1,22,23
 448 206 448 206 414 240 c 1,24,25
 362 204 362 204 295 204 c 128,-1,26
 228 204 228 204 180 230 c 1,27,-1
 95 147 l 1,28,-1
 20 232 l 1,0,-1
234.5 516 m 128,-1,30
 208 462 208 462 208 405.5 c 128,-1,31
 208 349 208 349 233.5 323 c 128,-1,32
 259 297 259 297 291 297 c 0,33,34
 339 297 339 297 364.5 347.5 c 128,-1,35
 390 398 390 398 390 448 c 128,-1,36
 390 498 390 498 371 534 c 128,-1,37
 352 570 352 570 306.5 570 c 128,-1,29
 261 570 261 570 234.5 516 c 128,-1,30
EndSplineSet
EndChar

StartChar: yen
Encoding: 165 165 104
Width: 481
GlyphClass: 2
Flags: W
LayerCount: 2
Fore
SplineSet
171 191 m 2,0,-1
 171 219 l 1,1,2
 102 214 102 214 45 207 c 1,3,-1
 33 275 l 1,4,-1
 151 287 l 1,5,-1
 130 327 l 1,6,7
 94 323 94 323 45 314 c 1,8,-1
 33 382 l 1,9,-1
 99 391 l 1,10,11
 26 547 26 547 16 627 c 1,12,-1
 136 615 l 1,13,14
 159 514 159 514 233 367 c 1,15,16
 294 508 294 508 347 674 c 1,17,-1
 458 663 l 1,18,19
 417 541 417 541 364 415 c 1,20,21
 382 416 382 416 420 416 c 1,22,-1
 424 341 l 1,23,24
 363 341 363 341 331 340 c 1,25,-1
 311 297 l 1,26,27
 381 299 381 299 420 299 c 1,28,-1
 424 224 l 1,29,30
 337 224 337 224 289 223 c 1,31,32
 288 193 288 193 288 120.5 c 128,-1,33
 288 48 288 48 292 -21 c 1,34,-1
 180 -7 l 1,35,36
 171 55 171 55 171 191 c 2,0,-1
EndSplineSet
EndChar

StartChar: brokenbar
Encoding: 166 166 105
Width: 500
GlyphClass: 2
Flags: W
LayerCount: 2
Fore
SplineSet
284 760 m 1,0,1
 284 667 284 667 290 421 c 1,2,-1
 209 426 l 1,3,4
 204 701 204 701 204 760 c 1,5,-1
 284 760 l 1,0,1
212 140 m 1,6,-1
 292 133 l 1,7,8
 290 -89 290 -89 281 -245 c 1,9,-1
 201 -238 l 1,10,11
 210 -101 210 -101 212 140 c 1,6,-1
EndSplineSet
EndChar

StartChar: section
Encoding: 167 167 106
Width: 520
GlyphClass: 2
Flags: W
LayerCount: 2
Fore
SplineSet
85 183 m 128,-1,1
 37 234 37 234 37 307.5 c 128,-1,2
 37 381 37 381 88 435 c 1,3,4
 47 482 47 482 47 538 c 0,5,6
 47 631 47 631 110 685.5 c 128,-1,7
 173 740 173 740 255 740 c 128,-1,8
 337 740 337 740 394.5 674.5 c 128,-1,9
 452 609 452 609 452 548.5 c 128,-1,10
 452 488 452 488 426 444 c 1,11,-1
 302 485 l 1,12,13
 315 522 315 522 315 550.5 c 128,-1,14
 315 579 315 579 297.5 601 c 128,-1,15
 280 623 280 623 253.5 623 c 128,-1,16
 227 623 227 623 205.5 599.5 c 128,-1,17
 184 576 184 576 184 537 c 128,-1,18
 184 498 184 498 271.5 457.5 c 128,-1,19
 359 417 359 417 406.5 366.5 c 128,-1,20
 454 316 454 316 454 249 c 0,21,22
 454 163 454 163 404 106 c 1,23,24
 444 63 444 63 444 11 c 0,25,26
 444 -87 444 -87 384 -139.5 c 128,-1,27
 324 -192 324 -192 240 -192 c 0,28,29
 157 -192 157 -192 96 -122 c 0,30,31
 46 -65 46 -65 15 1 c 1,32,-1
 112 48 l 1,33,34
 184 -75 184 -75 240 -75 c 0,35,36
 268 -75 268 -75 288 -59.5 c 128,-1,37
 308 -44 308 -44 308 -14 c 0,38,39
 308 36 308 36 220.5 84 c 128,-1,0
 133 132 133 132 85 183 c 128,-1,1
328 244 m 0,40,41
 328 302 328 302 214 346 c 0,42,43
 188 356 188 356 176 363 c 1,44,45
 164 332 164 332 164 302 c 0,46,47
 164 246 164 246 264 203 c 1,48,49
 294 189 294 189 307 182 c 1,50,51
 328 206 328 206 328 244 c 0,40,41
EndSplineSet
EndChar

StartChar: dieresis
Encoding: 168 168 107
Width: 500
GlyphClass: 2
Flags: W
LayerCount: 2
Fore
SplineSet
213 649 m 1,0,1
 224 633 224 633 224 591 c 128,-1,2
 224 549 224 549 210 527 c 1,3,-1
 115 537 l 1,4,5
 124 586 124 586 124 612.5 c 128,-1,6
 124 639 124 639 123 657 c 1,7,-1
 213 649 l 1,0,1
368 651 m 1,8,9
 379 635 379 635 379 593 c 128,-1,10
 379 551 379 551 365 529 c 1,11,-1
 270 539 l 1,12,13
 279 588 279 588 279 614.5 c 128,-1,14
 279 641 279 641 278 659 c 1,15,-1
 368 651 l 1,8,9
EndSplineSet
EndChar

StartChar: copyright
Encoding: 169 169 108
Width: 746
GlyphClass: 2
Flags: W
LayerCount: 2
Fore
SplineSet
696 382 m 0,0,1
 696 280 696 280 657 190 c 128,-1,2
 618 100 618 100 542 43 c 128,-1,3
 466 -14 466 -14 369 -14 c 0,4,5
 232 -14 232 -14 141 71.5 c 128,-1,6
 50 157 50 157 50 331.5 c 128,-1,7
 50 506 50 506 147.5 616 c 128,-1,8
 245 726 245 726 380.5 726 c 128,-1,9
 516 726 516 726 606 640 c 128,-1,10
 696 554 696 554 696 382 c 0,0,1
369 72 m 0,11,12
 438 72 438 72 488 116 c 0,13,14
 588 203 588 203 588 385 c 0,15,16
 588 513 588 513 529.5 576 c 128,-1,17
 471 639 471 639 380.5 639 c 128,-1,18
 290 639 290 639 224 552.5 c 128,-1,19
 158 466 158 466 158 333 c 128,-1,20
 158 200 158 200 218 136 c 128,-1,21
 278 72 278 72 369 72 c 0,11,12
379 491 m 128,-1,23
 357 491 357 491 340.5 430.5 c 128,-1,24
 324 370 324 370 324 320 c 0,25,26
 324 229 324 229 369 229 c 0,27,28
 398 229 398 229 414 299 c 1,29,-1
 519 291 l 1,30,31
 502 219 502 219 467 181 c 128,-1,32
 432 143 432 143 363.5 143 c 128,-1,33
 295 143 295 143 255 191.5 c 128,-1,34
 215 240 215 240 215 305.5 c 128,-1,35
 215 371 215 371 231 428.5 c 128,-1,36
 247 486 247 486 287.5 531.5 c 128,-1,37
 328 577 328 577 385 577 c 0,38,39
 417 577 417 577 440.5 564.5 c 128,-1,40
 464 552 464 552 476 535 c 128,-1,41
 488 518 488 518 496 490 c 0,42,43
 505 454 505 454 507 388 c 1,44,-1
 401 398 l 1,45,22
 401 491 401 491 379 491 c 128,-1,23
EndSplineSet
EndChar

StartChar: ordfeminine
Encoding: 170 170 109
Width: 293
GlyphClass: 2
Flags: W
LayerCount: 2
Fore
SplineSet
71 673.5 m 128,-1,1
 103 712 103 712 155.5 712 c 128,-1,2
 208 712 208 712 233 672 c 128,-1,3
 258 632 258 632 258 570 c 128,-1,4
 258 508 258 508 250 358 c 1,5,-1
 176 362 l 1,6,-1
 170 385 l 1,7,8
 141 366 141 366 105 366 c 128,-1,9
 69 366 69 366 43.5 389 c 128,-1,10
 18 412 18 412 18 454.5 c 128,-1,11
 18 497 18 497 62 528 c 128,-1,12
 106 559 106 559 164 561 c 1,13,-1
 164 579 l 2,14,15
 164 625 164 625 142.5 625 c 128,-1,16
 121 625 121 625 112 574 c 1,17,-1
 27 580 l 1,18,0
 39 635 39 635 71 673.5 c 128,-1,1
110 455 m 0,19,20
 110 438 110 438 126.5 438 c 128,-1,21
 143 438 143 438 160 446 c 1,22,-1
 162 485 l 1,23,24
 137 483 137 483 123.5 474 c 128,-1,25
 110 465 110 465 110 455 c 0,19,20
EndSplineSet
EndChar

StartChar: guillemotleft
Encoding: 171 171 110
Width: 478
GlyphClass: 2
Flags: W
LayerCount: 2
Fore
SplineSet
145 425 m 1,0,-1
 250 400 l 1,1,2
 214 310 214 310 156 218 c 1,3,4
 202 113 202 113 255 45 c 1,5,-1
 159 4 l 1,6,7
 92 81 92 81 28 222 c 1,8,9
 105 329 105 329 145 425 c 1,0,-1
345 425 m 1,10,-1
 450 400 l 1,11,12
 414 310 414 310 356 218 c 1,13,14
 402 113 402 113 455 45 c 1,15,-1
 359 4 l 1,16,17
 292 81 292 81 228 222 c 1,18,19
 305 329 305 329 345 425 c 1,10,-1
EndSplineSet
EndChar

StartChar: logicalnot
Encoding: 172 172 111
Width: 833
GlyphClass: 2
Flags: W
LayerCount: 2
Fore
SplineSet
123 423 m 1,0,-1
 479 431 l 1,1,2
 616 431 616 431 700 420 c 1,3,4
 710 356 710 356 710 282.5 c 128,-1,5
 710 209 710 209 700 173 c 1,6,-1
 580 183 l 1,7,8
 588 220 588 220 588 253 c 2,9,-1
 588 319 l 1,10,11
 524 321 524 321 489 321 c 2,12,-1
 123 313 l 1,13,-1
 123 423 l 1,0,-1
EndSplineSet
EndChar

StartChar: sfthyphen
Encoding: 173 173 112
Width: 324
GlyphClass: 2
Flags: W
LayerCount: 2
Fore
SplineSet
34 274 m 1,0,-1
 228 283 l 1,1,2
 258 283 258 283 283 280 c 1,3,-1
 287 172 l 1,4,5
 257 175 257 175 228 175 c 1,6,-1
 46 166 l 1,7,-1
 34 274 l 1,0,-1
EndSplineSet
EndChar

StartChar: registered
Encoding: 174 174 113
Width: 746
GlyphClass: 2
Flags: W
LayerCount: 2
Fore
SplineSet
696 382 m 0,0,1
 696 280 696 280 657 190 c 128,-1,2
 618 100 618 100 542 43 c 128,-1,3
 466 -14 466 -14 369 -14 c 0,4,5
 232 -14 232 -14 141 71.5 c 128,-1,6
 50 157 50 157 50 331.5 c 128,-1,7
 50 506 50 506 147.5 616 c 128,-1,8
 245 726 245 726 380.5 726 c 128,-1,9
 516 726 516 726 606 640 c 128,-1,10
 696 554 696 554 696 382 c 0,0,1
369 72 m 0,11,12
 438 72 438 72 488 116 c 0,13,14
 588 203 588 203 588 385 c 0,15,16
 588 513 588 513 529.5 576 c 128,-1,17
 471 639 471 639 380.5 639 c 128,-1,18
 290 639 290 639 224 552.5 c 128,-1,19
 158 466 158 466 158 333 c 128,-1,20
 158 200 158 200 218 136 c 128,-1,21
 278 72 278 72 369 72 c 0,11,12
234 164 m 1,22,23
 242 352 242 352 242 433 c 128,-1,24
 242 514 242 514 241 548 c 1,25,26
 313 577 313 577 381 577 c 128,-1,27
 449 577 449 577 489 545 c 128,-1,28
 529 513 529 513 529 456 c 0,29,30
 529 388 529 388 434 327 c 1,31,32
 482 265 482 265 530 194 c 1,33,-1
 456 143 l 1,34,35
 440 169 440 169 347 300 c 1,36,37
 346 249 346 249 342 155 c 1,38,-1
 234 164 l 1,22,23
406.5 407.5 m 128,-1,40
 430 437 430 437 430 456 c 0,41,42
 430 491 430 491 392 491 c 0,43,44
 371 491 371 491 348 481 c 1,45,46
 348 460 348 460 348.5 419 c 128,-1,47
 349 378 349 378 349 358 c 1,48,39
 383 378 383 378 406.5 407.5 c 128,-1,40
EndSplineSet
EndChar

StartChar: macron
Encoding: 175 175 114
Width: 403
GlyphClass: 2
Flags: W
LayerCount: 2
Fore
SplineSet
45 635 m 1,0,-1
 259 644 l 1,1,2
 310 644 310 644 354 641 c 1,3,-1
 358 543 l 1,4,5
 310 546 310 546 259 546 c 1,6,-1
 57 537 l 1,7,-1
 45 635 l 1,0,-1
EndSplineSet
EndChar

StartChar: degree
Encoding: 176 176 115
Width: 329
GlyphClass: 2
Flags: W
LayerCount: 2
Fore
SplineSet
111.5 503 m 128,-1,1
 128 487 128 487 159.5 487 c 128,-1,2
 191 487 191 487 212.5 516.5 c 128,-1,3
 234 546 234 546 234 578 c 128,-1,4
 234 610 234 610 217.5 625 c 128,-1,5
 201 640 201 640 169 640 c 128,-1,6
 137 640 137 640 116 612 c 128,-1,7
 95 584 95 584 95 551.5 c 128,-1,0
 95 519 95 519 111.5 503 c 128,-1,1
271 463.5 m 128,-1,9
 225 411 225 411 158 411 c 128,-1,10
 91 411 91 411 51.5 448.5 c 128,-1,11
 12 486 12 486 12 549 c 128,-1,12
 12 612 12 612 58 664 c 128,-1,13
 104 716 104 716 171 716 c 128,-1,14
 238 716 238 716 277.5 678.5 c 128,-1,15
 317 641 317 641 317 578.5 c 128,-1,8
 317 516 317 516 271 463.5 c 128,-1,9
EndSplineSet
EndChar

StartChar: plusminus
Encoding: 177 177 116
Width: 833
GlyphClass: 2
Flags: W
LayerCount: 2
Fore
SplineSet
704 340 m 1,0,1
 651 345 651 345 599.5 345 c 128,-1,2
 548 345 548 345 478 343 c 1,3,4
 478 269 478 269 483 179 c 1,5,-1
 343 188 l 1,6,7
 338 273 338 273 338 335 c 1,8,9
 150 324 150 324 127 323 c 1,10,-1
 121 443 l 1,11,12
 237 446 237 446 339 456 c 1,13,14
 344 548 344 548 354 623 c 1,15,-1
 494 611 l 1,16,17
 483 538 483 538 480 463 c 1,18,19
 550 465 550 465 608 465 c 128,-1,20
 666 465 666 465 718 460 c 1,21,-1
 704 340 l 1,0,1
123 105 m 1,22,-1
 479 113 l 1,23,24
 628 113 628 113 720 102 c 1,25,-1
 702 -18 l 1,26,27
 621 -7 621 -7 489 -7 c 1,28,-1
 123 -15 l 1,29,-1
 123 105 l 1,22,-1
EndSplineSet
EndChar

StartChar: twosuperior
Encoding: 178 178 117
Width: 364
GlyphClass: 2
Flags: W
LayerCount: 2
Fore
SplineSet
290.5 609.5 m 128,-1,1
 319 579 319 579 319 535 c 0,2,3
 319 467 319 467 197 338 c 1,4,5
 231 340 231 340 306 340 c 1,6,-1
 299 252 l 1,7,8
 266 255 266 255 217 255 c 128,-1,9
 168 255 168 255 83 237 c 1,10,-1
 45 311 l 1,11,12
 111 360 111 360 168 430.5 c 128,-1,13
 225 501 225 501 225 526.5 c 128,-1,14
 225 552 225 552 209 552 c 0,15,16
 190 552 190 552 118 471 c 1,17,-1
 52 529 l 1,18,19
 93 577 93 577 117 600 c 1,20,21
 162 640 162 640 212 640 c 128,-1,0
 262 640 262 640 290.5 609.5 c 128,-1,1
EndSplineSet
EndChar

StartChar: threesuperior
Encoding: 179 179 118
Width: 324
GlyphClass: 2
Flags: W
LayerCount: 2
Fore
SplineSet
171 637 m 0,0,1
 213 637 213 637 246 609 c 128,-1,2
 279 581 279 581 279 542 c 0,3,4
 279 485 279 485 205 446 c 1,5,6
 237 440 237 440 254.5 419.5 c 128,-1,7
 272 399 272 399 272 369 c 0,8,9
 272 308 272 308 224 275.5 c 128,-1,10
 176 243 176 243 112 243 c 0,11,12
 77 243 77 243 55 249 c 1,13,-1
 46 331 l 1,14,15
 70 329 70 329 94.5 329 c 128,-1,16
 119 329 119 329 146 339.5 c 128,-1,17
 173 350 173 350 173 367 c 128,-1,18
 173 384 173 384 160.5 394.5 c 128,-1,19
 148 405 148 405 123 405 c 128,-1,20
 98 405 98 405 81 396 c 1,21,-1
 54 460 l 1,22,23
 115 478 115 478 150 502 c 128,-1,24
 185 526 185 526 185 542.5 c 128,-1,25
 185 559 185 559 171 559 c 0,26,27
 138 559 138 559 89 523 c 1,28,-1
 45 589 l 1,29,30
 110 637 110 637 171 637 c 0,0,1
EndSplineSet
EndChar

StartChar: acute
Encoding: 180 180 119
Width: 500
GlyphClass: 2
Flags: W
LayerCount: 2
Fore
SplineSet
230 515 m 1,0,-1
 185 572 l 1,1,2
 298 646 298 646 369 677 c 1,3,-1
 423 588 l 1,4,5
 328 565 328 565 230 515 c 1,0,-1
EndSplineSet
EndChar

StartChar: mu
Encoding: 181 181 120
AltUni2: 0003bc.ffffffff.0
Width: 420
GlyphClass: 2
Flags: W
LayerCount: 2
Fore
SplineSet
378 469 m 1,0,-1
 376 311 l 1,1,2
 376 88 376 88 384 -17 c 1,3,-1
 285 -7 l 1,4,5
 282 35 282 35 272 78 c 1,6,7
 217 -3 217 -3 165 -3 c 0,8,9
 157 -3 157 -3 145 -1 c 1,10,11
 139 -74 139 -74 135 -244 c 1,12,-1
 27 -235 l 1,13,14
 32 -97 32 -97 53 68 c 1,15,16
 40 97 40 97 40 140 c 0,17,18
 40 270 40 270 59 450 c 1,19,-1
 175 439 l 1,20,21
 157 268 157 268 157 155 c 0,22,23
 157 104 157 104 189 104 c 0,24,25
 204 104 204 104 225.5 145 c 128,-1,26
 247 186 247 186 260 244 c 1,27,28
 259 266 259 266 259 296 c 128,-1,29
 259 326 259 326 262 479 c 1,30,-1
 378 469 l 1,0,-1
EndSplineSet
EndChar

StartChar: paragraph
Encoding: 182 182 121
Width: 500
GlyphClass: 2
Flags: W
LayerCount: 2
Fore
SplineSet
268 650 m 1,0,1
 276 402 276 402 276 257 c 128,-1,2
 276 112 276 112 265 -10 c 1,3,-1
 185 -3 l 1,4,5
 196 112 196 112 196 237 c 128,-1,6
 196 362 196 362 195 393 c 1,7,8
 175 387 175 387 128.5 387 c 128,-1,9
 82 387 82 387 47.5 426.5 c 128,-1,10
 13 466 13 466 13 521 c 0,11,12
 13 734 13 734 295 734 c 0,13,14
 393 734 393 734 496 724 c 1,15,-1
 482 648 l 1,16,17
 475 649 475 649 425 652 c 1,18,19
 425 637 425 637 428.5 520.5 c 128,-1,20
 432 404 432 404 432 264.5 c 128,-1,21
 432 125 432 125 421 -5 c 1,22,-1
 341 2 l 1,23,24
 352 124 352 124 352 320 c 0,25,26
 352 333 352 333 344 653 c 1,27,28
 270 650 270 650 268 650 c 1,0,1
EndSplineSet
EndChar

StartChar: periodcentered
Encoding: 183 183 122
Width: 260
GlyphClass: 2
Flags: W
LayerCount: 2
Fore
SplineSet
188 399 m 1,0,1
 199 364 199 364 199 309.5 c 128,-1,2
 199 255 199 255 185 219 c 1,3,-1
 50 230 l 1,4,5
 59 307 59 307 59 347 c 128,-1,6
 59 387 59 387 58 411 c 1,7,-1
 188 399 l 1,0,1
EndSplineSet
EndChar

StartChar: cedilla
Encoding: 184 184 123
Width: 500
GlyphClass: 2
Flags: W
LayerCount: 2
Fore
SplineSet
267 -6 m 1,0,1
 267 -41 267 -41 275 -65 c 1,2,3
 287 -62 287 -62 298 -62 c 0,4,5
 332 -62 332 -62 357.5 -83 c 128,-1,6
 383 -104 383 -104 383 -144.5 c 128,-1,7
 383 -185 383 -185 350 -208.5 c 128,-1,8
 317 -232 317 -232 248 -232 c 128,-1,9
 179 -232 179 -232 122 -189 c 1,10,-1
 140 -144 l 1,11,12
 209 -181 209 -181 255 -181 c 0,13,14
 272 -181 272 -181 284.5 -173.5 c 128,-1,15
 297 -166 297 -166 297 -153.5 c 128,-1,16
 297 -141 297 -141 287 -133 c 128,-1,17
 277 -125 277 -125 262.5 -125 c 128,-1,18
 248 -125 248 -125 234 -132 c 1,19,-1
 206 -129 l 1,20,21
 207 -63 207 -63 232 -6 c 1,22,-1
 267 -6 l 1,0,1
EndSplineSet
EndChar

StartChar: onesuperior
Encoding: 185 185 124
Width: 274
GlyphClass: 2
Flags: W
LayerCount: 2
Fore
SplineSet
229 635 m 1,0,1
 217 561 217 561 217 454 c 128,-1,2
 217 347 217 347 225 245 c 1,3,-1
 125 253 l 1,4,5
 121 308 121 308 121 379 c 128,-1,6
 121 450 121 450 125 505 c 1,7,-1
 101 472 l 1,8,-1
 45 511 l 1,9,10
 89 564 89 564 135 643 c 1,11,-1
 229 635 l 1,0,1
EndSplineSet
EndChar

StartChar: ordmasculine
Encoding: 186 186 125
Width: 276
GlyphClass: 2
Flags: W
LayerCount: 2
Fore
SplineSet
114 504 m 0,0,1
 114 444 114 444 139 444 c 0,2,3
 150 444 150 444 158 482.5 c 128,-1,4
 166 521 166 521 166 573.5 c 128,-1,5
 166 626 166 626 146 626 c 0,6,7
 132 626 132 626 123 584.5 c 128,-1,8
 114 543 114 543 114 504 c 0,0,1
16 511 m 0,9,10
 16 615 16 615 70 676 c 0,11,12
 101 712 101 712 146 712 c 0,13,14
 208 712 208 712 236 664.5 c 128,-1,15
 264 617 264 617 264 547.5 c 128,-1,16
 264 478 264 478 231 418.5 c 128,-1,17
 198 359 198 359 139 359 c 0,18,19
 16 359 16 359 16 511 c 0,9,10
EndSplineSet
EndChar

StartChar: guillemotright
Encoding: 187 187 126
Width: 478
GlyphClass: 2
Flags: W
LayerCount: 2
Fore
SplineSet
128 4 m 1,0,-1
 23 29 l 1,1,2
 59 119 59 119 117 211 c 1,3,4
 71 316 71 316 18 384 c 1,5,-1
 114 425 l 1,6,7
 181 348 181 348 245 207 c 1,8,9
 168 100 168 100 128 4 c 1,0,-1
325 4 m 1,10,-1
 220 29 l 1,11,12
 256 119 256 119 314 211 c 1,13,14
 268 316 268 316 215 384 c 1,15,-1
 311 425 l 1,16,17
 378 348 378 348 442 207 c 1,18,19
 365 100 365 100 325 4 c 1,10,-1
EndSplineSet
EndChar

StartChar: onequarter
Encoding: 188 188 127
Width: 771
GlyphClass: 2
Flags: W
LayerCount: 2
Fore
SplineSet
588 89 m 1,0,1
 579 89 579 89 518 82 c 1,2,-1
 429 129 l 1,3,4
 429 143 429 143 484 241 c 128,-1,5
 539 339 539 339 570 374 c 1,6,-1
 696 363 l 1,7,8
 681 261 681 261 679 166 c 1,9,-1
 726 162 l 1,10,-1
 718 88 l 1,11,-1
 678 88 l 1,12,13
 678 11 678 11 680 -25 c 1,14,-1
 591 -17 l 1,15,16
 588 16 588 16 588 89 c 1,0,1
536 162 m 1,17,18
 568 166 568 166 588 166 c 1,19,20
 593 248 593 248 602 282 c 1,21,22
 561 217 561 217 536 162 c 1,17,18
198 -23 m 1,23,-1
 121 6 l 1,24,25
 371 442 371 442 575 666 c 1,26,-1
 639 626 l 1,27,28
 523 496 523 496 420 342 c 128,-1,29
 317 188 317 188 198 -23 c 1,23,-1
229 635 m 1,30,31
 217 561 217 561 217 454 c 128,-1,32
 217 347 217 347 225 245 c 1,33,-1
 125 253 l 1,34,35
 121 308 121 308 121 379 c 128,-1,36
 121 450 121 450 125 505 c 1,37,-1
 101 472 l 1,38,-1
 45 511 l 1,39,40
 89 564 89 564 135 643 c 1,41,-1
 229 635 l 1,30,31
EndSplineSet
EndChar

StartChar: onehalf
Encoding: 189 189 128
Width: 793
GlyphClass: 2
Flags: W
LayerCount: 2
Fore
SplineSet
198 -23 m 1,0,-1
 121 6 l 1,1,2
 371 442 371 442 575 666 c 1,3,-1
 639 626 l 1,4,5
 523 496 523 496 420 342 c 128,-1,6
 317 188 317 188 198 -23 c 1,0,-1
229 635 m 1,7,8
 217 561 217 561 217 454 c 128,-1,9
 217 347 217 347 225 245 c 1,10,-1
 125 253 l 1,11,12
 121 308 121 308 121 379 c 128,-1,13
 121 450 121 450 125 505 c 1,14,-1
 101 472 l 1,15,-1
 45 511 l 1,16,17
 89 564 89 564 135 643 c 1,18,-1
 229 635 l 1,7,8
719.5 342.5 m 128,-1,20
 748 312 748 312 748 268 c 0,21,22
 748 200 748 200 626 71 c 1,23,24
 660 73 660 73 735 73 c 1,25,-1
 728 -15 l 1,26,27
 695 -12 695 -12 646 -12 c 128,-1,28
 597 -12 597 -12 512 -30 c 1,29,-1
 474 44 l 1,30,31
 540 93 540 93 597 163.5 c 128,-1,32
 654 234 654 234 654 259.5 c 128,-1,33
 654 285 654 285 638 285 c 0,34,35
 619 285 619 285 547 204 c 1,36,-1
 481 262 l 1,37,38
 522 310 522 310 546 333 c 1,39,40
 591 373 591 373 641 373 c 128,-1,19
 691 373 691 373 719.5 342.5 c 128,-1,20
EndSplineSet
EndChar

StartChar: threequarters
Encoding: 190 190 129
Width: 782
GlyphClass: 2
Flags: W
LayerCount: 2
Fore
SplineSet
599 89 m 1,0,1
 590 89 590 89 529 82 c 1,2,-1
 440 129 l 1,3,4
 440 143 440 143 495 241 c 128,-1,5
 550 339 550 339 581 374 c 1,6,-1
 707 363 l 1,7,8
 692 261 692 261 690 166 c 1,9,-1
 737 162 l 1,10,-1
 729 88 l 1,11,-1
 689 88 l 1,12,13
 689 11 689 11 691 -25 c 1,14,-1
 602 -17 l 1,15,16
 599 16 599 16 599 89 c 1,0,1
547 162 m 1,17,18
 579 166 579 166 599 166 c 1,19,20
 604 248 604 248 613 282 c 1,21,22
 572 217 572 217 547 162 c 1,17,18
209 -23 m 1,23,-1
 132 6 l 1,24,25
 382 442 382 442 586 666 c 1,26,-1
 650 626 l 1,27,28
 534 496 534 496 431 342 c 128,-1,29
 328 188 328 188 209 -23 c 1,23,-1
171 637 m 0,30,31
 213 637 213 637 246 609 c 128,-1,32
 279 581 279 581 279 542 c 0,33,34
 279 485 279 485 205 446 c 1,35,36
 237 440 237 440 254.5 419.5 c 128,-1,37
 272 399 272 399 272 369 c 0,38,39
 272 308 272 308 224 275.5 c 128,-1,40
 176 243 176 243 112 243 c 0,41,42
 77 243 77 243 55 249 c 1,43,-1
 46 331 l 1,44,45
 70 329 70 329 94.5 329 c 128,-1,46
 119 329 119 329 146 339.5 c 128,-1,47
 173 350 173 350 173 367 c 128,-1,48
 173 384 173 384 160.5 394.5 c 128,-1,49
 148 405 148 405 123 405 c 128,-1,50
 98 405 98 405 81 396 c 1,51,-1
 54 460 l 1,52,53
 115 478 115 478 150 502 c 128,-1,54
 185 526 185 526 185 542.5 c 128,-1,55
 185 559 185 559 171 559 c 0,56,57
 138 559 138 559 89 523 c 1,58,-1
 45 589 l 1,59,60
 110 637 110 637 171 637 c 0,30,31
EndSplineSet
EndChar

StartChar: questiondown
Encoding: 191 191 130
Width: 419
GlyphClass: 2
Flags: W
LayerCount: 2
Fore
SplineSet
189 -23 m 0,0,1
 112 -23 112 -23 68 26.5 c 128,-1,2
 24 76 24 76 24 151 c 0,3,4
 24 186 24 186 37 210 c 128,-1,5
 50 234 50 234 57.5 246 c 128,-1,6
 65 258 65 258 82.5 278 c 128,-1,7
 100 298 100 298 108 308 c 0,8,9
 142 345 142 345 171 374 c 1,10,11
 216 422 216 422 216 460 c 0,12,13
 216 474 216 474 211 491 c 1,14,-1
 296 481 l 1,15,16
 328 459 328 459 328 428.5 c 128,-1,17
 328 398 328 398 308 366.5 c 128,-1,18
 288 335 288 335 262 305.5 c 128,-1,19
 236 276 236 276 216.5 254.5 c 128,-1,20
 197 233 197 233 187.5 222 c 128,-1,21
 178 211 178 211 166 194 c 0,22,23
 144 164 144 164 144 143.5 c 128,-1,24
 144 123 144 123 156 110 c 128,-1,25
 168 97 168 97 189 97 c 0,26,27
 236 97 236 97 337 196 c 1,28,-1
 429 116 l 1,29,30
 298 -23 298 -23 189 -23 c 0,0,1
204 543 m 1,31,32
 193 563 193 563 193 613 c 128,-1,33
 193 663 193 663 209 700 c 1,34,-1
 328 677 l 1,35,36
 318 640 318 640 318 599.5 c 128,-1,37
 318 559 318 559 320 531 c 1,38,-1
 204 543 l 1,31,32
EndSplineSet
EndChar

StartChar: Agrave
Encoding: 192 192 131
Width: 516
GlyphClass: 2
Flags: W
LayerCount: 2
Fore
SplineSet
353 10 m 1,0,-1
 330 149 l 1,1,-1
 181 143 l 1,2,-1
 143 -45 l 1,3,-1
 3 -33 l 1,4,-1
 182 692 l 1,5,-1
 367 676 l 1,6,-1
 498 -2 l 1,7,-1
 353 10 l 1,0,-1
265 561 m 1,8,-1
 202 250 l 1,9,-1
 314 254 l 1,10,-1
 265 561 l 1,8,-1
337 823 m 1,11,-1
 292 766 l 1,12,13
 194 816 194 816 99 839 c 1,14,-1
 153 928 l 1,15,16
 224 897 224 897 337 823 c 1,11,-1
EndSplineSet
EndChar

StartChar: Aacute
Encoding: 193 193 132
Width: 516
GlyphClass: 2
Flags: W
LayerCount: 2
Fore
SplineSet
353 10 m 1,0,-1
 330 149 l 1,1,-1
 181 143 l 1,2,-1
 143 -45 l 1,3,-1
 3 -33 l 1,4,-1
 182 692 l 1,5,-1
 367 676 l 1,6,-1
 498 -2 l 1,7,-1
 353 10 l 1,0,-1
265 561 m 1,8,-1
 202 250 l 1,9,-1
 314 254 l 1,10,-1
 265 561 l 1,8,-1
244 766 m 1,11,-1
 199 823 l 1,12,13
 312 897 312 897 383 928 c 1,14,-1
 437 839 l 1,15,16
 342 816 342 816 244 766 c 1,11,-1
EndSplineSet
EndChar

StartChar: Acircumflex
Encoding: 194 194 133
Width: 516
GlyphClass: 2
Flags: W
LayerCount: 2
Fore
SplineSet
353 10 m 1,0,-1
 330 149 l 1,1,-1
 181 143 l 1,2,-1
 143 -45 l 1,3,-1
 3 -33 l 1,4,-1
 182 692 l 1,5,-1
 367 676 l 1,6,-1
 498 -2 l 1,7,-1
 353 10 l 1,0,-1
265 561 m 1,8,-1
 202 250 l 1,9,-1
 314 254 l 1,10,-1
 265 561 l 1,8,-1
237 923 m 1,11,-1
 305 918 l 1,12,13
 336 888 336 888 406 803 c 1,14,-1
 348 759 l 1,15,16
 296 805 296 805 267 829 c 1,17,18
 217 794 217 794 167 750 c 1,19,-1
 109 793 l 1,20,21
 181 874 181 874 237 923 c 1,11,-1
EndSplineSet
EndChar

StartChar: Atilde
Encoding: 195 195 134
Width: 516
GlyphClass: 2
Flags: W
LayerCount: 2
Fore
SplineSet
353 10 m 1,0,-1
 330 149 l 1,1,-1
 181 143 l 1,2,-1
 143 -45 l 1,3,-1
 3 -33 l 1,4,-1
 182 692 l 1,5,-1
 367 676 l 1,6,-1
 498 -2 l 1,7,-1
 353 10 l 1,0,-1
265 561 m 1,8,-1
 202 250 l 1,9,-1
 314 254 l 1,10,-1
 265 561 l 1,8,-1
387 821.5 m 128,-1,12
 358 786 358 786 328.5 786 c 128,-1,13
 299 786 299 786 271 795 c 128,-1,14
 243 804 243 804 222.5 804 c 128,-1,15
 202 804 202 804 179 781 c 1,16,-1
 119 813 l 1,17,18
 159 898 159 898 212 898 c 0,19,20
 232 898 232 898 262 884 c 128,-1,21
 292 870 292 870 307 870 c 0,22,23
 335 870 335 870 359 902 c 1,24,-1
 419 897 l 1,25,11
 416 857 416 857 387 821.5 c 128,-1,12
EndSplineSet
EndChar

StartChar: Adieresis
Encoding: 196 196 135
Width: 516
GlyphClass: 2
Flags: W
LayerCount: 2
Fore
SplineSet
353 10 m 1,0,-1
 330 149 l 1,1,-1
 181 143 l 1,2,-1
 143 -45 l 1,3,-1
 3 -33 l 1,4,-1
 182 692 l 1,5,-1
 367 676 l 1,6,-1
 498 -2 l 1,7,-1
 353 10 l 1,0,-1
265 561 m 1,8,-1
 202 250 l 1,9,-1
 314 254 l 1,10,-1
 265 561 l 1,8,-1
227 900 m 1,11,12
 238 884 238 884 238 842 c 128,-1,13
 238 800 238 800 224 778 c 1,14,-1
 129 788 l 1,15,16
 138 838 138 838 138 864 c 128,-1,17
 138 890 138 890 137 908 c 1,18,-1
 227 900 l 1,11,12
382 902 m 1,19,20
 393 886 393 886 393 844 c 128,-1,21
 393 802 393 802 379 780 c 1,22,-1
 284 790 l 1,23,24
 293 840 293 840 293 866 c 128,-1,25
 293 892 293 892 292 910 c 1,26,-1
 382 902 l 1,19,20
EndSplineSet
EndChar

StartChar: Aring
Encoding: 197 197 136
Width: 516
GlyphClass: 2
Flags: W
LayerCount: 2
Fore
SplineSet
353 10 m 1,0,-1
 330 149 l 1,1,-1
 181 143 l 1,2,-1
 143 -45 l 1,3,-1
 3 -33 l 1,4,-1
 182 692 l 1,5,-1
 367 676 l 1,6,-1
 498 -2 l 1,7,-1
 353 10 l 1,0,-1
265 561 m 1,8,-1
 202 250 l 1,9,-1
 314 254 l 1,10,-1
 265 561 l 1,8,-1
244 794.5 m 128,-1,12
 255 783 255 783 275.5 783 c 128,-1,13
 296 783 296 783 310.5 802.5 c 128,-1,14
 325 822 325 822 325 844 c 128,-1,15
 325 866 325 866 314 877 c 128,-1,16
 303 888 303 888 282.5 888 c 128,-1,17
 262 888 262 888 247.5 869 c 128,-1,18
 233 850 233 850 233 828 c 128,-1,11
 233 806 233 806 244 794.5 c 128,-1,12
360 765 m 128,-1,20
 325 728 325 728 274.5 728 c 128,-1,21
 224 728 224 728 193.5 754.5 c 128,-1,22
 163 781 163 781 163 825 c 128,-1,23
 163 869 163 869 198 906 c 128,-1,24
 233 943 233 943 283.5 943 c 128,-1,25
 334 943 334 943 364.5 916.5 c 128,-1,26
 395 890 395 890 395 846 c 128,-1,19
 395 802 395 802 360 765 c 128,-1,20
EndSplineSet
EndChar

StartChar: AE
Encoding: 198 198 137
Width: 667
GlyphClass: 2
Flags: W
LayerCount: 2
Fore
SplineSet
669 688 m 1,0,-1
 669 565 l 1,1,2
 556 565 556 565 459 558 c 1,3,4
 455 446 455 446 454 386 c 1,5,6
 530 397 530 397 634 399 c 1,7,-1
 653 289 l 1,8,9
 586 288 586 288 452 274 c 1,10,11
 452 154 452 154 453 101 c 1,12,13
 540 108 540 108 661 131 c 1,14,-1
 678 21 l 1,15,16
 593 -18 593 -18 477 -18 c 1,17,-1
 323 -4 l 1,18,19
 321 48 321 48 319 148 c 1,20,-1
 202 143 l 1,21,-1
 143 -45 l 1,22,-1
 3 -33 l 1,23,-1
 232 691 l 1,24,-1
 427 674 l 1,25,26
 549 688 549 688 669 688 c 1,0,-1
325 561 m 1,27,-1
 230 250 l 1,28,-1
 319 254 l 1,29,30
 319 385 319 385 327 539 c 1,31,-1
 325 561 l 1,27,-1
EndSplineSet
EndChar

StartChar: Ccedilla
Encoding: 199 199 138
Width: 482
GlyphClass: 2
Flags: W
LayerCount: 2
Fore
SplineSet
269 575 m 0,0,1
 225 575 225 575 192 466.5 c 128,-1,2
 159 358 159 358 159 274 c 0,3,4
 159 98 159 98 251 98 c 0,5,6
 277 98 277 98 296.5 120.5 c 128,-1,7
 316 143 316 143 324.5 167 c 128,-1,8
 333 191 333 191 345 233 c 1,9,-1
 472 223 l 1,10,11
 446 102 446 102 396 37.5 c 128,-1,12
 346 -27 346 -27 257 -30 c 1,13,14
 259 -48 259 -48 265 -65 c 1,15,16
 277 -62 277 -62 288 -62 c 0,17,18
 322 -62 322 -62 347.5 -83 c 128,-1,19
 373 -104 373 -104 373 -144.5 c 128,-1,20
 373 -185 373 -185 340 -208.5 c 128,-1,21
 307 -232 307 -232 238 -232 c 128,-1,22
 169 -232 169 -232 112 -189 c 1,23,-1
 130 -144 l 1,24,25
 199 -181 199 -181 245 -181 c 0,26,27
 262 -181 262 -181 274.5 -173.5 c 128,-1,28
 287 -166 287 -166 287 -153.5 c 128,-1,29
 287 -141 287 -141 277 -133 c 128,-1,30
 267 -125 267 -125 252.5 -125 c 128,-1,31
 238 -125 238 -125 224 -132 c 1,32,-1
 196 -129 l 1,33,34
 197 -71 197 -71 213 -27 c 1,35,36
 122 -13 122 -13 74 66 c 128,-1,37
 26 145 26 145 26 259 c 0,38,39
 26 406 26 406 84 545 c 0,40,41
 112 614 112 614 162.5 658.5 c 128,-1,42
 213 703 213 703 278 703 c 0,43,44
 358 703 358 703 394 650 c 0,45,46
 412 624 412 624 423.5 597 c 128,-1,47
 435 570 435 570 440 528 c 0,48,49
 449 461 449 461 451 384 c 1,50,-1
 322 396 l 1,51,52
 322 525 322 525 298 558 c 1,53,54
 287 575 287 575 269 575 c 0,0,1
EndSplineSet
EndChar

StartChar: Egrave
Encoding: 200 200 139
Width: 447
GlyphClass: 2
Flags: W
LayerCount: 2
Fore
SplineSet
75 -4 m 1,0,1
 71 154 71 154 71 295 c 128,-1,2
 71 436 71 436 87 662 c 1,3,4
 258 688 258 688 421 688 c 1,5,-1
 421 565 l 1,6,7
 308 565 308 565 211 558 c 1,8,9
 207 446 207 446 206 386 c 1,10,11
 282 397 282 397 386 399 c 1,12,-1
 405 289 l 1,13,14
 338 288 338 288 204 274 c 1,15,16
 204 154 204 154 205 101 c 1,17,18
 292 108 292 108 413 131 c 1,19,-1
 430 21 l 1,20,21
 345 -18 345 -18 229 -18 c 1,22,-1
 75 -4 l 1,0,1
309 823 m 1,23,-1
 264 766 l 1,24,25
 166 816 166 816 71 839 c 1,26,-1
 125 928 l 1,27,28
 196 897 196 897 309 823 c 1,23,-1
EndSplineSet
EndChar

StartChar: Eacute
Encoding: 201 201 140
Width: 447
GlyphClass: 2
Flags: W
LayerCount: 2
Fore
SplineSet
75 -4 m 1,0,1
 71 154 71 154 71 295 c 128,-1,2
 71 436 71 436 87 662 c 1,3,4
 258 688 258 688 421 688 c 1,5,-1
 421 565 l 1,6,7
 308 565 308 565 211 558 c 1,8,9
 207 446 207 446 206 386 c 1,10,11
 282 397 282 397 386 399 c 1,12,-1
 405 289 l 1,13,14
 338 288 338 288 204 274 c 1,15,16
 204 154 204 154 205 101 c 1,17,18
 292 108 292 108 413 131 c 1,19,-1
 430 21 l 1,20,21
 345 -18 345 -18 229 -18 c 1,22,-1
 75 -4 l 1,0,1
216 766 m 1,23,-1
 171 823 l 1,24,25
 284 897 284 897 355 928 c 1,26,-1
 409 839 l 1,27,28
 314 816 314 816 216 766 c 1,23,-1
EndSplineSet
EndChar

StartChar: Ecircumflex
Encoding: 202 202 141
Width: 447
GlyphClass: 2
Flags: W
LayerCount: 2
Fore
SplineSet
75 -4 m 1,0,1
 71 154 71 154 71 295 c 128,-1,2
 71 436 71 436 87 662 c 1,3,4
 258 688 258 688 421 688 c 1,5,-1
 421 565 l 1,6,7
 308 565 308 565 211 558 c 1,8,9
 207 446 207 446 206 386 c 1,10,11
 282 397 282 397 386 399 c 1,12,-1
 405 289 l 1,13,14
 338 288 338 288 204 274 c 1,15,16
 204 154 204 154 205 101 c 1,17,18
 292 108 292 108 413 131 c 1,19,-1
 430 21 l 1,20,21
 345 -18 345 -18 229 -18 c 1,22,-1
 75 -4 l 1,0,1
239 923 m 1,23,-1
 307 918 l 1,24,25
 338 888 338 888 408 803 c 1,26,-1
 350 759 l 1,27,28
 298 805 298 805 269 829 c 1,29,30
 219 794 219 794 169 750 c 1,31,-1
 111 793 l 1,32,33
 183 874 183 874 239 923 c 1,23,-1
EndSplineSet
EndChar

StartChar: Edieresis
Encoding: 203 203 142
Width: 447
GlyphClass: 2
Flags: W
LayerCount: 2
Fore
SplineSet
75 -4 m 1,0,1
 71 154 71 154 71 295 c 128,-1,2
 71 436 71 436 87 662 c 1,3,4
 258 688 258 688 421 688 c 1,5,-1
 421 565 l 1,6,7
 308 565 308 565 211 558 c 1,8,9
 207 446 207 446 206 386 c 1,10,11
 282 397 282 397 386 399 c 1,12,-1
 405 289 l 1,13,14
 338 288 338 288 204 274 c 1,15,16
 204 154 204 154 205 101 c 1,17,18
 292 108 292 108 413 131 c 1,19,-1
 430 21 l 1,20,21
 345 -18 345 -18 229 -18 c 1,22,-1
 75 -4 l 1,0,1
229 900 m 1,23,24
 240 884 240 884 240 842 c 128,-1,25
 240 800 240 800 226 778 c 1,26,-1
 131 788 l 1,27,28
 140 838 140 838 140 864 c 128,-1,29
 140 890 140 890 139 908 c 1,30,-1
 229 900 l 1,23,24
384 902 m 1,31,32
 395 886 395 886 395 844 c 128,-1,33
 395 802 395 802 381 780 c 1,34,-1
 286 790 l 1,35,36
 295 840 295 840 295 866 c 128,-1,37
 295 892 295 892 294 910 c 1,38,-1
 384 902 l 1,31,32
EndSplineSet
EndChar

StartChar: Igrave
Encoding: 204 204 143
Width: 289
GlyphClass: 2
Flags: W
LayerCount: 2
Fore
SplineSet
233 692 m 1,0,1
 224 534 224 534 224 336 c 128,-1,2
 224 138 224 138 237 -25 c 1,3,-1
 102 -13 l 1,4,5
 89 191 89 191 89 355.5 c 128,-1,6
 89 520 89 520 98 704 c 1,7,-1
 233 692 l 1,0,1
226 823 m 1,8,-1
 181 766 l 1,9,10
 83 816 83 816 -12 839 c 1,11,-1
 42 928 l 1,12,13
 113 897 113 897 226 823 c 1,8,-1
EndSplineSet
EndChar

StartChar: Iacute
Encoding: 205 205 144
Width: 289
GlyphClass: 2
Flags: W
LayerCount: 2
Fore
SplineSet
233 692 m 1,0,1
 224 534 224 534 224 336 c 128,-1,2
 224 138 224 138 237 -25 c 1,3,-1
 102 -13 l 1,4,5
 89 191 89 191 89 355.5 c 128,-1,6
 89 520 89 520 98 704 c 1,7,-1
 233 692 l 1,0,1
133 766 m 1,8,-1
 88 823 l 1,9,10
 201 897 201 897 272 928 c 1,11,-1
 326 839 l 1,12,13
 231 816 231 816 133 766 c 1,8,-1
EndSplineSet
EndChar

StartChar: Icircumflex
Encoding: 206 206 145
Width: 289
GlyphClass: 2
Flags: W
LayerCount: 2
Fore
SplineSet
233 692 m 1,0,1
 224 534 224 534 224 336 c 128,-1,2
 224 138 224 138 237 -25 c 1,3,-1
 102 -13 l 1,4,5
 89 191 89 191 89 355.5 c 128,-1,6
 89 520 89 520 98 704 c 1,7,-1
 233 692 l 1,0,1
146 923 m 1,8,-1
 214 918 l 1,9,10
 245 888 245 888 315 803 c 1,11,-1
 257 759 l 1,12,13
 205 805 205 805 176 829 c 1,14,15
 126 794 126 794 76 750 c 1,16,-1
 18 793 l 1,17,18
 90 874 90 874 146 923 c 1,8,-1
EndSplineSet
EndChar

StartChar: Idieresis
Encoding: 207 207 146
Width: 289
GlyphClass: 2
Flags: W
LayerCount: 2
Fore
SplineSet
233 692 m 1,0,1
 224 534 224 534 224 336 c 128,-1,2
 224 138 224 138 237 -25 c 1,3,-1
 102 -13 l 1,4,5
 89 191 89 191 89 355.5 c 128,-1,6
 89 520 89 520 98 704 c 1,7,-1
 233 692 l 1,0,1
136 900 m 1,8,9
 147 884 147 884 147 842 c 128,-1,10
 147 800 147 800 133 778 c 1,11,-1
 38 788 l 1,12,13
 47 838 47 838 47 864 c 128,-1,14
 47 890 47 890 46 908 c 1,15,-1
 136 900 l 1,8,9
291 902 m 1,16,17
 302 886 302 886 302 844 c 128,-1,18
 302 802 302 802 288 780 c 1,19,-1
 193 790 l 1,20,21
 202 840 202 840 202 866 c 128,-1,22
 202 892 202 892 201 910 c 1,23,-1
 291 902 l 1,16,17
EndSplineSet
EndChar

StartChar: Eth
Encoding: 208 208 147
Width: 512
GlyphClass: 2
Flags: W
LayerCount: 2
Fore
SplineSet
238 701 m 0,0,1
 355 701 355 701 418.5 609 c 128,-1,2
 482 517 482 517 482 386 c 0,3,4
 482 285 482 285 450 195.5 c 128,-1,5
 418 106 418 106 350 45.5 c 128,-1,6
 282 -15 282 -15 191 -15 c 0,7,8
 173 -15 173 -15 55 -1 c 1,9,10
 65 158 65 158 68 289 c 1,11,12
 53 288 53 288 24 288 c 1,13,-1
 12 396 l 1,14,15
 50 396 50 396 69 397 c 1,16,17
 68 531 68 531 60 667 c 1,18,19
 157 701 157 701 238 701 c 0,0,1
216 107 m 0,20,21
 262 107 262 107 307.5 188.5 c 128,-1,22
 353 270 353 270 353 364.5 c 128,-1,23
 353 459 353 459 320.5 520 c 128,-1,24
 288 581 288 581 243 581 c 0,25,26
 217 581 217 581 196 573 c 1,27,-1
 202 405 l 1,28,29
 246 405 246 405 281 402 c 1,30,-1
 285 294 l 1,31,32
 246 297 246 297 202 297 c 1,33,34
 200 200 200 200 196 115 c 1,35,36
 203 107 203 107 216 107 c 0,20,21
EndSplineSet
EndChar

StartChar: Ntilde
Encoding: 209 209 148
Width: 544
GlyphClass: 2
Flags: W
LayerCount: 2
Fore
SplineSet
500 704 m 1,0,-1
 501 239 l 2,1,2
 501 124 501 124 493 -8 c 1,3,-1
 381 3 l 1,4,5
 252 296 252 296 170 442 c 1,6,7
 171 294 171 294 171 -30 c 1,8,-1
 54 -17 l 1,9,10
 51 45 51 45 51 103 c 0,11,12
 51 345 51 345 78 667 c 1,13,-1
 211 654 l 1,14,15
 310 381 310 381 389 239 c 1,16,17
 383 541 383 541 375 715 c 1,18,-1
 500 704 l 1,0,-1
401 821.5 m 128,-1,20
 372 786 372 786 342.5 786 c 128,-1,21
 313 786 313 786 285 795 c 128,-1,22
 257 804 257 804 236.5 804 c 128,-1,23
 216 804 216 804 193 781 c 1,24,-1
 133 813 l 1,25,26
 173 898 173 898 226 898 c 0,27,28
 246 898 246 898 276 884 c 128,-1,29
 306 870 306 870 321 870 c 0,30,31
 349 870 349 870 373 902 c 1,32,-1
 433 897 l 1,33,19
 430 857 430 857 401 821.5 c 128,-1,20
EndSplineSet
EndChar

StartChar: Ograve
Encoding: 210 210 149
Width: 521
GlyphClass: 2
Flags: W
LayerCount: 2
Fore
SplineSet
99.5 51.5 m 128,-1,1
 34 137 34 137 34 311.5 c 128,-1,2
 34 486 34 486 105.5 596 c 128,-1,3
 177 706 177 706 274 706 c 128,-1,4
 371 706 371 706 435.5 620 c 128,-1,5
 500 534 500 534 500 361 c 128,-1,6
 500 188 500 188 428 77 c 128,-1,7
 356 -34 356 -34 260.5 -34 c 128,-1,0
 165 -34 165 -34 99.5 51.5 c 128,-1,1
199 509.5 m 128,-1,9
 167 432 167 432 167 314.5 c 128,-1,10
 167 197 167 197 194.5 140.5 c 128,-1,11
 222 84 222 84 263 84 c 128,-1,12
 304 84 304 84 335.5 162 c 128,-1,13
 367 240 367 240 367 357.5 c 128,-1,14
 367 475 367 475 340.5 531 c 128,-1,15
 314 587 314 587 275 587 c 0,16,8
 231 587 231 587 199 509.5 c 128,-1,9
341 823 m 1,17,-1
 296 766 l 1,18,19
 198 816 198 816 103 839 c 1,20,-1
 157 928 l 1,21,22
 228 897 228 897 341 823 c 1,17,-1
EndSplineSet
EndChar

StartChar: Oacute
Encoding: 211 211 150
Width: 521
GlyphClass: 2
Flags: W
LayerCount: 2
Fore
SplineSet
99.5 51.5 m 128,-1,1
 34 137 34 137 34 311.5 c 128,-1,2
 34 486 34 486 105.5 596 c 128,-1,3
 177 706 177 706 274 706 c 128,-1,4
 371 706 371 706 435.5 620 c 128,-1,5
 500 534 500 534 500 361 c 128,-1,6
 500 188 500 188 428 77 c 128,-1,7
 356 -34 356 -34 260.5 -34 c 128,-1,0
 165 -34 165 -34 99.5 51.5 c 128,-1,1
199 509.5 m 128,-1,9
 167 432 167 432 167 314.5 c 128,-1,10
 167 197 167 197 194.5 140.5 c 128,-1,11
 222 84 222 84 263 84 c 128,-1,12
 304 84 304 84 335.5 162 c 128,-1,13
 367 240 367 240 367 357.5 c 128,-1,14
 367 475 367 475 340.5 531 c 128,-1,15
 314 587 314 587 275 587 c 0,16,8
 231 587 231 587 199 509.5 c 128,-1,9
248 766 m 1,17,-1
 203 823 l 1,18,19
 316 897 316 897 387 928 c 1,20,-1
 441 839 l 1,21,22
 346 816 346 816 248 766 c 1,17,-1
EndSplineSet
EndChar

StartChar: Ocircumflex
Encoding: 212 212 151
Width: 521
GlyphClass: 2
Flags: W
LayerCount: 2
Fore
SplineSet
99.5 51.5 m 128,-1,1
 34 137 34 137 34 311.5 c 128,-1,2
 34 486 34 486 105.5 596 c 128,-1,3
 177 706 177 706 274 706 c 128,-1,4
 371 706 371 706 435.5 620 c 128,-1,5
 500 534 500 534 500 361 c 128,-1,6
 500 188 500 188 428 77 c 128,-1,7
 356 -34 356 -34 260.5 -34 c 128,-1,0
 165 -34 165 -34 99.5 51.5 c 128,-1,1
199 509.5 m 128,-1,9
 167 432 167 432 167 314.5 c 128,-1,10
 167 197 167 197 194.5 140.5 c 128,-1,11
 222 84 222 84 263 84 c 128,-1,12
 304 84 304 84 335.5 162 c 128,-1,13
 367 240 367 240 367 357.5 c 128,-1,14
 367 475 367 475 340.5 531 c 128,-1,15
 314 587 314 587 275 587 c 0,16,8
 231 587 231 587 199 509.5 c 128,-1,9
251 923 m 1,17,-1
 319 918 l 1,18,19
 350 888 350 888 420 803 c 1,20,-1
 362 759 l 1,21,22
 310 805 310 805 281 829 c 1,23,24
 231 794 231 794 181 750 c 1,25,-1
 123 793 l 1,26,27
 195 874 195 874 251 923 c 1,17,-1
EndSplineSet
EndChar

StartChar: Otilde
Encoding: 213 213 152
Width: 521
GlyphClass: 2
Flags: W
LayerCount: 2
Fore
SplineSet
99.5 51.5 m 128,-1,1
 34 137 34 137 34 311.5 c 128,-1,2
 34 486 34 486 105.5 596 c 128,-1,3
 177 706 177 706 274 706 c 128,-1,4
 371 706 371 706 435.5 620 c 128,-1,5
 500 534 500 534 500 361 c 128,-1,6
 500 188 500 188 428 77 c 128,-1,7
 356 -34 356 -34 260.5 -34 c 128,-1,0
 165 -34 165 -34 99.5 51.5 c 128,-1,1
199 509.5 m 128,-1,9
 167 432 167 432 167 314.5 c 128,-1,10
 167 197 167 197 194.5 140.5 c 128,-1,11
 222 84 222 84 263 84 c 128,-1,12
 304 84 304 84 335.5 162 c 128,-1,13
 367 240 367 240 367 357.5 c 128,-1,14
 367 475 367 475 340.5 531 c 128,-1,15
 314 587 314 587 275 587 c 0,16,8
 231 587 231 587 199 509.5 c 128,-1,9
391 821.5 m 128,-1,18
 362 786 362 786 332.5 786 c 128,-1,19
 303 786 303 786 275 795 c 128,-1,20
 247 804 247 804 226.5 804 c 128,-1,21
 206 804 206 804 183 781 c 1,22,-1
 123 813 l 1,23,24
 163 898 163 898 216 898 c 0,25,26
 236 898 236 898 266 884 c 128,-1,27
 296 870 296 870 311 870 c 0,28,29
 339 870 339 870 363 902 c 1,30,-1
 423 897 l 1,31,17
 420 857 420 857 391 821.5 c 128,-1,18
EndSplineSet
EndChar

StartChar: Odieresis
Encoding: 214 214 153
Width: 521
GlyphClass: 2
Flags: W
LayerCount: 2
Fore
SplineSet
99.5 51.5 m 128,-1,1
 34 137 34 137 34 311.5 c 128,-1,2
 34 486 34 486 105.5 596 c 128,-1,3
 177 706 177 706 274 706 c 128,-1,4
 371 706 371 706 435.5 620 c 128,-1,5
 500 534 500 534 500 361 c 128,-1,6
 500 188 500 188 428 77 c 128,-1,7
 356 -34 356 -34 260.5 -34 c 128,-1,0
 165 -34 165 -34 99.5 51.5 c 128,-1,1
199 509.5 m 128,-1,9
 167 432 167 432 167 314.5 c 128,-1,10
 167 197 167 197 194.5 140.5 c 128,-1,11
 222 84 222 84 263 84 c 128,-1,12
 304 84 304 84 335.5 162 c 128,-1,13
 367 240 367 240 367 357.5 c 128,-1,14
 367 475 367 475 340.5 531 c 128,-1,15
 314 587 314 587 275 587 c 0,16,8
 231 587 231 587 199 509.5 c 128,-1,9
231 900 m 1,17,18
 242 884 242 884 242 842 c 128,-1,19
 242 800 242 800 228 778 c 1,20,-1
 133 788 l 1,21,22
 142 838 142 838 142 864 c 128,-1,23
 142 890 142 890 141 908 c 1,24,-1
 231 900 l 1,17,18
386 902 m 1,25,26
 397 886 397 886 397 844 c 128,-1,27
 397 802 397 802 383 780 c 1,28,-1
 288 790 l 1,29,30
 297 840 297 840 297 866 c 128,-1,31
 297 892 297 892 296 910 c 1,32,-1
 386 902 l 1,25,26
EndSplineSet
EndChar

StartChar: multiply
Encoding: 215 215 154
Width: 833
GlyphClass: 2
Flags: W
LayerCount: 2
Fore
SplineSet
142 96 m 1,0,1
 290 253 290 253 336 301 c 1,2,3
 200 437 200 437 129 522 c 1,4,-1
 225 584 l 1,5,6
 303 494 303 494 417 382 c 1,7,8
 546 510 546 510 646 586 c 1,9,-1
 718 489 l 1,10,11
 619 415 619 415 503 299 c 1,12,13
 647 161 647 161 713 93 c 1,14,-1
 628 8 l 1,15,16
 559 83 559 83 422 217 c 1,17,18
 267 57 267 57 217 11 c 1,19,-1
 142 96 l 1,0,1
EndSplineSet
EndChar

StartChar: Oslash
Encoding: 216 216 155
Width: 521
GlyphClass: 2
Flags: W
LayerCount: 2
Fore
SplineSet
34 310 m 0,0,1
 34 486 34 486 105.5 596 c 128,-1,2
 177 706 177 706 274.5 706 c 128,-1,3
 372 706 372 706 433 622 c 1,4,5
 481 678 481 678 525 726 c 1,6,-1
 589 686 l 1,7,8
 530 621 530 621 471 550 c 1,9,10
 500 471 500 471 500 362 c 0,11,12
 500 188 500 188 428 77 c 128,-1,13
 356 -34 356 -34 259 -34 c 128,-1,14
 162 -34 162 -34 99 52 c 1,15,16
 32 -52 32 -52 8 -93 c 1,17,-1
 -69 -64 l 1,18,-1
 61 126 l 1,19,20
 34 204 34 204 34 310 c 0,0,1
263 80 m 0,21,22
 305 80 305 80 338 159.5 c 128,-1,23
 371 239 371 239 371 362 c 0,24,25
 371 399 371 399 368 429 c 1,26,27
 268 305 268 305 179 173 c 1,28,29
 192 127 192 127 214 103.5 c 128,-1,30
 236 80 236 80 263 80 c 0,21,22
163 310 m 0,31,32
 163 277 163 277 164 262 c 1,33,34
 264 401 264 401 352 512 c 1,35,36
 326 591 326 591 275 591 c 0,37,38
 230 591 230 591 196.5 512.5 c 128,-1,39
 163 434 163 434 163 310 c 0,31,32
EndSplineSet
EndChar

StartChar: Ugrave
Encoding: 217 217 156
Width: 539
GlyphClass: 2
Flags: W
LayerCount: 2
Fore
SplineSet
191 235 m 0,0,1
 191 183 191 183 214 142 c 128,-1,2
 237 101 237 101 268.5 101 c 128,-1,3
 300 101 300 101 319 129 c 128,-1,4
 338 157 338 157 346 203 c 0,5,6
 360 284 360 284 360 390.5 c 128,-1,7
 360 497 360 497 347 703 c 1,8,-1
 483 689 l 1,9,10
 497 483 497 483 497 409 c 128,-1,11
 497 335 497 335 495 305.5 c 128,-1,12
 493 276 493 276 487 237 c 128,-1,13
 481 198 481 198 471 164 c 128,-1,14
 461 130 461 130 444 96 c 128,-1,15
 427 62 427 62 404 38 c 0,16,17
 353 -17 353 -17 265.5 -17 c 128,-1,18
 178 -17 178 -17 116 61 c 128,-1,19
 54 139 54 139 54 235 c 0,20,21
 54 446 54 446 77 685 c 1,22,-1
 213 672 l 1,23,24
 191 453 191 453 191 235 c 0,0,1
349 823 m 1,25,-1
 304 766 l 1,26,27
 206 816 206 816 111 839 c 1,28,-1
 165 928 l 1,29,30
 236 897 236 897 349 823 c 1,25,-1
EndSplineSet
EndChar

StartChar: Uacute
Encoding: 218 218 157
Width: 539
GlyphClass: 2
Flags: W
LayerCount: 2
Fore
SplineSet
191 235 m 0,0,1
 191 183 191 183 214 142 c 128,-1,2
 237 101 237 101 268.5 101 c 128,-1,3
 300 101 300 101 319 129 c 128,-1,4
 338 157 338 157 346 203 c 0,5,6
 360 284 360 284 360 390.5 c 128,-1,7
 360 497 360 497 347 703 c 1,8,-1
 483 689 l 1,9,10
 497 483 497 483 497 409 c 128,-1,11
 497 335 497 335 495 305.5 c 128,-1,12
 493 276 493 276 487 237 c 128,-1,13
 481 198 481 198 471 164 c 128,-1,14
 461 130 461 130 444 96 c 128,-1,15
 427 62 427 62 404 38 c 0,16,17
 353 -17 353 -17 265.5 -17 c 128,-1,18
 178 -17 178 -17 116 61 c 128,-1,19
 54 139 54 139 54 235 c 0,20,21
 54 446 54 446 77 685 c 1,22,-1
 213 672 l 1,23,24
 191 453 191 453 191 235 c 0,0,1
256 766 m 1,25,-1
 211 823 l 1,26,27
 324 897 324 897 395 928 c 1,28,-1
 449 839 l 1,29,30
 354 816 354 816 256 766 c 1,25,-1
EndSplineSet
EndChar

StartChar: Ucircumflex
Encoding: 219 219 158
Width: 539
GlyphClass: 2
Flags: W
LayerCount: 2
Fore
SplineSet
191 235 m 0,0,1
 191 183 191 183 214 142 c 128,-1,2
 237 101 237 101 268.5 101 c 128,-1,3
 300 101 300 101 319 129 c 128,-1,4
 338 157 338 157 346 203 c 0,5,6
 360 284 360 284 360 390.5 c 128,-1,7
 360 497 360 497 347 703 c 1,8,-1
 483 689 l 1,9,10
 497 483 497 483 497 409 c 128,-1,11
 497 335 497 335 495 305.5 c 128,-1,12
 493 276 493 276 487 237 c 128,-1,13
 481 198 481 198 471 164 c 128,-1,14
 461 130 461 130 444 96 c 128,-1,15
 427 62 427 62 404 38 c 0,16,17
 353 -17 353 -17 265.5 -17 c 128,-1,18
 178 -17 178 -17 116 61 c 128,-1,19
 54 139 54 139 54 235 c 0,20,21
 54 446 54 446 77 685 c 1,22,-1
 213 672 l 1,23,24
 191 453 191 453 191 235 c 0,0,1
249 923 m 1,25,-1
 317 918 l 1,26,27
 348 888 348 888 418 803 c 1,28,-1
 360 759 l 1,29,30
 308 805 308 805 279 829 c 1,31,32
 229 794 229 794 179 750 c 1,33,-1
 121 793 l 1,34,35
 193 874 193 874 249 923 c 1,25,-1
EndSplineSet
EndChar

StartChar: Udieresis
Encoding: 220 220 159
Width: 539
GlyphClass: 2
Flags: W
LayerCount: 2
Fore
SplineSet
191 235 m 0,0,1
 191 183 191 183 214 142 c 128,-1,2
 237 101 237 101 268.5 101 c 128,-1,3
 300 101 300 101 319 129 c 128,-1,4
 338 157 338 157 346 203 c 0,5,6
 360 284 360 284 360 390.5 c 128,-1,7
 360 497 360 497 347 703 c 1,8,-1
 483 689 l 1,9,10
 497 483 497 483 497 409 c 128,-1,11
 497 335 497 335 495 305.5 c 128,-1,12
 493 276 493 276 487 237 c 128,-1,13
 481 198 481 198 471 164 c 128,-1,14
 461 130 461 130 444 96 c 128,-1,15
 427 62 427 62 404 38 c 0,16,17
 353 -17 353 -17 265.5 -17 c 128,-1,18
 178 -17 178 -17 116 61 c 128,-1,19
 54 139 54 139 54 235 c 0,20,21
 54 446 54 446 77 685 c 1,22,-1
 213 672 l 1,23,24
 191 453 191 453 191 235 c 0,0,1
249 900 m 1,25,26
 260 884 260 884 260 842 c 128,-1,27
 260 800 260 800 246 778 c 1,28,-1
 151 788 l 1,29,30
 160 838 160 838 160 864 c 128,-1,31
 160 890 160 890 159 908 c 1,32,-1
 249 900 l 1,25,26
404 902 m 1,33,34
 415 886 415 886 415 844 c 128,-1,35
 415 802 415 802 401 780 c 1,36,-1
 306 790 l 1,37,38
 315 840 315 840 315 866 c 128,-1,39
 315 892 315 892 314 910 c 1,40,-1
 404 902 l 1,33,34
EndSplineSet
EndChar

StartChar: Yacute
Encoding: 221 221 160
Width: 444
GlyphClass: 2
Flags: W
LayerCount: 2
Fore
SplineSet
161 191 m 2,0,-1
 161 268 l 1,1,2
 30 545 30 545 16 667 c 1,3,-1
 141 655 l 1,4,5
 163 543 163 543 233 387 c 1,6,7
 316 568 316 568 362 714 c 1,8,-1
 478 703 l 1,9,10
 404 492 404 492 300 274 c 1,11,12
 298 184 298 184 298 116 c 128,-1,13
 298 48 298 48 302 -21 c 1,14,-1
 170 -7 l 1,15,16
 161 86 161 86 161 191 c 2,0,-1
210 766 m 1,17,-1
 165 823 l 1,18,19
 278 897 278 897 349 928 c 1,20,-1
 403 839 l 1,21,22
 308 816 308 816 210 766 c 1,17,-1
EndSplineSet
EndChar

StartChar: Thorn
Encoding: 222 222 161
Width: 465
GlyphClass: 2
Flags: W
LayerCount: 2
Fore
SplineSet
249 594 m 0,0,1
 336 594 336 594 405.5 528.5 c 128,-1,2
 475 463 475 463 475 363.5 c 128,-1,3
 475 264 475 264 402 191.5 c 128,-1,4
 329 119 329 119 212 85 c 1,5,6
 212 70 212 70 211.5 63 c 128,-1,7
 211 56 211 56 217 -25 c 1,8,-1
 82 -13 l 1,9,10
 69 191 69 191 69 355.5 c 128,-1,11
 69 520 69 520 78 704 c 1,12,-1
 213 692 l 1,13,14
 209 643 209 643 207 591 c 1,15,16
 228 594 228 594 249 594 c 0,0,1
249 477 m 0,17,18
 228 477 228 477 204 465 c 1,19,20
 203 427 203 427 203 362.5 c 128,-1,21
 203 298 203 298 205 200 c 1,22,23
 266 220 266 220 302 263 c 128,-1,24
 338 306 338 306 338 358.5 c 128,-1,25
 338 411 338 411 310.5 444 c 128,-1,26
 283 477 283 477 249 477 c 0,17,18
EndSplineSet
EndChar

StartChar: germandbls
Encoding: 223 223 162
Width: 475
GlyphClass: 2
Flags: W
LayerCount: 2
Fore
SplineSet
72 307 m 1,0,1
 40 302 40 302 36 300 c 1,2,-1
 15 390 l 1,3,4
 25 393 25 393 71 401 c 1,5,-1
 71 445 l 2,6,7
 71 580 71 580 117 657.5 c 128,-1,8
 163 735 163 735 240 735 c 128,-1,9
 317 735 317 735 361.5 675 c 128,-1,10
 406 615 406 615 406 513 c 0,11,12
 406 459 406 459 354 382 c 0,13,14
 337 356 337 356 337 346 c 0,15,16
 337 307 337 307 366 276 c 1,17,18
 431 211 431 211 442 172 c 0,19,20
 447 152 447 152 447 130 c 0,21,22
 447 59 447 59 410.5 19 c 128,-1,23
 374 -21 374 -21 327 -21 c 0,24,25
 260 -21 260 -21 225 19 c 1,26,-1
 269 90 l 1,27,28
 283 81 283 81 298 81 c 128,-1,29
 313 81 313 81 321.5 92.5 c 128,-1,30
 330 104 330 104 330 123 c 0,31,32
 330 159 330 159 307.5 178.5 c 128,-1,33
 285 198 285 198 276 207 c 128,-1,34
 267 216 267 216 252 235 c 0,35,36
 224 270 224 270 224 322 c 128,-1,37
 224 374 224 374 261 428 c 128,-1,38
 298 482 298 482 298 508 c 0,39,40
 298 561 298 561 282 593 c 128,-1,41
 266 625 266 625 238 625 c 0,42,43
 213 625 213 625 198 577 c 128,-1,44
 183 529 183 529 183 445 c 0,45,46
 183 178 183 178 189 93 c 128,-1,47
 195 8 195 8 195 -17 c 1,48,-1
 83 -5 l 1,49,50
 75 133 75 133 72 307 c 1,0,1
EndSplineSet
EndChar

StartChar: agrave
Encoding: 224 224 163
Width: 390
GlyphClass: 2
Flags: W
LayerCount: 2
Fore
SplineSet
103 427.5 m 128,-1,1
 145 482 145 482 213 482 c 128,-1,2
 281 482 281 482 313.5 425.5 c 128,-1,3
 346 369 346 369 346 265 c 128,-1,4
 346 161 346 161 334 -22 c 1,5,-1
 250 -15 l 1,6,-1
 242 17 l 1,7,8
 195 -10 195 -10 146 -10 c 128,-1,9
 97 -10 97 -10 65 22.5 c 128,-1,10
 33 55 33 55 33 116 c 128,-1,11
 33 177 33 177 93.5 221 c 128,-1,12
 154 265 154 265 233 267 c 1,13,-1
 233 294 l 2,14,15
 233 373 233 373 195 373 c 0,16,17
 176 373 176 373 160.5 346.5 c 128,-1,18
 145 320 145 320 138 286 c 1,19,-1
 46 295 l 1,20,0
 61 373 61 373 103 427.5 c 128,-1,1
135 110 m 0,21,22
 135 78 135 78 173 78 c 0,23,24
 199 78 199 78 228 90 c 1,25,-1
 230 174 l 1,26,27
 183 170 183 170 159 150.5 c 128,-1,28
 135 131 135 131 135 110 c 0,21,22
287 572 m 1,29,-1
 242 515 l 1,30,31
 144 565 144 565 49 588 c 1,32,-1
 103 677 l 1,33,34
 174 646 174 646 287 572 c 1,29,-1
EndSplineSet
EndChar

StartChar: aacute
Encoding: 225 225 164
Width: 390
GlyphClass: 2
Flags: W
LayerCount: 2
Fore
SplineSet
103 427.5 m 128,-1,1
 145 482 145 482 213 482 c 128,-1,2
 281 482 281 482 313.5 425.5 c 128,-1,3
 346 369 346 369 346 265 c 128,-1,4
 346 161 346 161 334 -22 c 1,5,-1
 250 -15 l 1,6,-1
 242 17 l 1,7,8
 195 -10 195 -10 146 -10 c 128,-1,9
 97 -10 97 -10 65 22.5 c 128,-1,10
 33 55 33 55 33 116 c 128,-1,11
 33 177 33 177 93.5 221 c 128,-1,12
 154 265 154 265 233 267 c 1,13,-1
 233 294 l 2,14,15
 233 373 233 373 195 373 c 0,16,17
 176 373 176 373 160.5 346.5 c 128,-1,18
 145 320 145 320 138 286 c 1,19,-1
 46 295 l 1,20,0
 61 373 61 373 103 427.5 c 128,-1,1
135 110 m 0,21,22
 135 78 135 78 173 78 c 0,23,24
 199 78 199 78 228 90 c 1,25,-1
 230 174 l 1,26,27
 183 170 183 170 159 150.5 c 128,-1,28
 135 131 135 131 135 110 c 0,21,22
194 515 m 1,29,-1
 149 572 l 1,30,31
 262 646 262 646 333 677 c 1,32,-1
 387 588 l 1,33,34
 292 565 292 565 194 515 c 1,29,-1
EndSplineSet
EndChar

StartChar: acircumflex
Encoding: 226 226 165
Width: 390
GlyphClass: 2
Flags: W
LayerCount: 2
Fore
SplineSet
103 427.5 m 128,-1,1
 145 482 145 482 213 482 c 128,-1,2
 281 482 281 482 313.5 425.5 c 128,-1,3
 346 369 346 369 346 265 c 128,-1,4
 346 161 346 161 334 -22 c 1,5,-1
 250 -15 l 1,6,-1
 242 17 l 1,7,8
 195 -10 195 -10 146 -10 c 128,-1,9
 97 -10 97 -10 65 22.5 c 128,-1,10
 33 55 33 55 33 116 c 128,-1,11
 33 177 33 177 93.5 221 c 128,-1,12
 154 265 154 265 233 267 c 1,13,-1
 233 294 l 2,14,15
 233 373 233 373 195 373 c 0,16,17
 176 373 176 373 160.5 346.5 c 128,-1,18
 145 320 145 320 138 286 c 1,19,-1
 46 295 l 1,20,0
 61 373 61 373 103 427.5 c 128,-1,1
135 110 m 0,21,22
 135 78 135 78 173 78 c 0,23,24
 199 78 199 78 228 90 c 1,25,-1
 230 174 l 1,26,27
 183 170 183 170 159 150.5 c 128,-1,28
 135 131 135 131 135 110 c 0,21,22
187 672 m 1,29,-1
 255 667 l 1,30,31
 286 637 286 637 356 552 c 1,32,-1
 298 508 l 1,33,34
 246 554 246 554 217 578 c 1,35,36
 167 543 167 543 117 499 c 1,37,-1
 59 542 l 1,38,39
 131 623 131 623 187 672 c 1,29,-1
EndSplineSet
EndChar

StartChar: atilde
Encoding: 227 227 166
Width: 390
GlyphClass: 2
Flags: W
LayerCount: 2
Fore
SplineSet
103 427.5 m 128,-1,1
 145 482 145 482 213 482 c 128,-1,2
 281 482 281 482 313.5 425.5 c 128,-1,3
 346 369 346 369 346 265 c 128,-1,4
 346 161 346 161 334 -22 c 1,5,-1
 250 -15 l 1,6,-1
 242 17 l 1,7,8
 195 -10 195 -10 146 -10 c 128,-1,9
 97 -10 97 -10 65 22.5 c 128,-1,10
 33 55 33 55 33 116 c 128,-1,11
 33 177 33 177 93.5 221 c 128,-1,12
 154 265 154 265 233 267 c 1,13,-1
 233 294 l 2,14,15
 233 373 233 373 195 373 c 0,16,17
 176 373 176 373 160.5 346.5 c 128,-1,18
 145 320 145 320 138 286 c 1,19,-1
 46 295 l 1,20,0
 61 373 61 373 103 427.5 c 128,-1,1
135 110 m 0,21,22
 135 78 135 78 173 78 c 0,23,24
 199 78 199 78 228 90 c 1,25,-1
 230 174 l 1,26,27
 183 170 183 170 159 150.5 c 128,-1,28
 135 131 135 131 135 110 c 0,21,22
337 570.5 m 128,-1,30
 308 535 308 535 278.5 535 c 128,-1,31
 249 535 249 535 221 544 c 128,-1,32
 193 553 193 553 172.5 553 c 128,-1,33
 152 553 152 553 129 530 c 1,34,-1
 69 562 l 1,35,36
 109 647 109 647 162 647 c 0,37,38
 182 647 182 647 212 633 c 128,-1,39
 242 619 242 619 257 619 c 0,40,41
 285 619 285 619 309 651 c 1,42,-1
 369 646 l 1,43,29
 366 606 366 606 337 570.5 c 128,-1,30
EndSplineSet
EndChar

StartChar: adieresis
Encoding: 228 228 167
Width: 390
GlyphClass: 2
Flags: W
LayerCount: 2
Fore
SplineSet
103 427.5 m 128,-1,1
 145 482 145 482 213 482 c 128,-1,2
 281 482 281 482 313.5 425.5 c 128,-1,3
 346 369 346 369 346 265 c 128,-1,4
 346 161 346 161 334 -22 c 1,5,-1
 250 -15 l 1,6,-1
 242 17 l 1,7,8
 195 -10 195 -10 146 -10 c 128,-1,9
 97 -10 97 -10 65 22.5 c 128,-1,10
 33 55 33 55 33 116 c 128,-1,11
 33 177 33 177 93.5 221 c 128,-1,12
 154 265 154 265 233 267 c 1,13,-1
 233 294 l 2,14,15
 233 373 233 373 195 373 c 0,16,17
 176 373 176 373 160.5 346.5 c 128,-1,18
 145 320 145 320 138 286 c 1,19,-1
 46 295 l 1,20,0
 61 373 61 373 103 427.5 c 128,-1,1
135 110 m 0,21,22
 135 78 135 78 173 78 c 0,23,24
 199 78 199 78 228 90 c 1,25,-1
 230 174 l 1,26,27
 183 170 183 170 159 150.5 c 128,-1,28
 135 131 135 131 135 110 c 0,21,22
177 649 m 1,29,30
 188 633 188 633 188 591 c 128,-1,31
 188 549 188 549 174 527 c 1,32,-1
 79 537 l 1,33,34
 88 586 88 586 88 612.5 c 128,-1,35
 88 639 88 639 87 657 c 1,36,-1
 177 649 l 1,29,30
332 651 m 1,37,38
 343 635 343 635 343 593 c 128,-1,39
 343 551 343 551 329 529 c 1,40,-1
 234 539 l 1,41,42
 243 588 243 588 243 614.5 c 128,-1,43
 243 641 243 641 242 659 c 1,44,-1
 332 651 l 1,37,38
EndSplineSet
EndChar

StartChar: aring
Encoding: 229 229 168
Width: 391
GlyphClass: 2
Flags: W
LayerCount: 2
Fore
SplineSet
103 427.5 m 128,-1,1
 145 482 145 482 213 482 c 128,-1,2
 281 482 281 482 313.5 425.5 c 128,-1,3
 346 369 346 369 346 265 c 128,-1,4
 346 161 346 161 334 -22 c 1,5,-1
 250 -15 l 1,6,-1
 242 17 l 1,7,8
 195 -10 195 -10 146 -10 c 128,-1,9
 97 -10 97 -10 65 22.5 c 128,-1,10
 33 55 33 55 33 116 c 128,-1,11
 33 177 33 177 93.5 221 c 128,-1,12
 154 265 154 265 233 267 c 1,13,-1
 233 294 l 2,14,15
 233 373 233 373 195 373 c 0,16,17
 176 373 176 373 160.5 346.5 c 128,-1,18
 145 320 145 320 138 286 c 1,19,-1
 46 295 l 1,20,0
 61 373 61 373 103 427.5 c 128,-1,1
135 110 m 0,21,22
 135 78 135 78 173 78 c 0,23,24
 199 78 199 78 228 90 c 1,25,-1
 230 174 l 1,26,27
 183 170 183 170 159 150.5 c 128,-1,28
 135 131 135 131 135 110 c 0,21,22
180 577.5 m 128,-1,30
 191 566 191 566 211.5 566 c 128,-1,31
 232 566 232 566 246.5 585.5 c 128,-1,32
 261 605 261 605 261 627 c 128,-1,33
 261 649 261 649 250 660 c 128,-1,34
 239 671 239 671 218.5 671 c 128,-1,35
 198 671 198 671 183.5 652 c 128,-1,36
 169 633 169 633 169 611 c 128,-1,29
 169 589 169 589 180 577.5 c 128,-1,30
296 548 m 128,-1,38
 261 511 261 511 210.5 511 c 128,-1,39
 160 511 160 511 129.5 537.5 c 128,-1,40
 99 564 99 564 99 608 c 128,-1,41
 99 652 99 652 134 689 c 128,-1,42
 169 726 169 726 219.5 726 c 128,-1,43
 270 726 270 726 300.5 699.5 c 128,-1,44
 331 673 331 673 331 629 c 128,-1,37
 331 585 331 585 296 548 c 128,-1,38
EndSplineSet
EndChar

StartChar: ae
Encoding: 230 230 169
Width: 544
GlyphClass: 2
Flags: W
LayerCount: 2
Fore
SplineSet
103 427.5 m 128,-1,1
 145 482 145 482 205.5 482 c 128,-1,2
 266 482 266 482 301 437 c 1,3,4
 341 477 341 477 399 477 c 0,5,6
 454 477 454 477 492 436 c 0,7,8
 516 410 516 410 532 342 c 0,9,10
 544 293 544 293 544 200 c 1,11,12
 464 178 464 178 337 160 c 1,13,14
 340 120 340 120 351 96 c 128,-1,15
 362 72 362 72 377 72 c 0,16,17
 415 72 415 72 458 145 c 1,18,-1
 534 100 l 1,19,20
 515 67 515 67 497.5 44 c 128,-1,21
 480 21 480 21 445 0 c 128,-1,22
 410 -21 410 -21 361 -21 c 128,-1,23
 312 -21 312 -21 273 24 c 1,24,25
 230 -10 230 -10 163.5 -10 c 128,-1,26
 97 -10 97 -10 65 22.5 c 128,-1,27
 33 55 33 55 33 116 c 128,-1,28
 33 177 33 177 93.5 221 c 128,-1,29
 154 265 154 265 233 267 c 1,30,-1
 233 294 l 2,31,32
 233 373 233 373 195 373 c 0,33,34
 176 373 176 373 160.5 346.5 c 128,-1,35
 145 320 145 320 138 286 c 1,36,-1
 46 295 l 1,37,0
 61 373 61 373 103 427.5 c 128,-1,1
399 379 m 0,38,39
 377 379 377 379 359.5 335 c 128,-1,40
 342 291 342 291 339 233 c 1,41,42
 392 244 392 244 431 254 c 1,43,44
 431 379 431 379 399 379 c 0,38,39
135 110 m 0,45,46
 135 78 135 78 173 78 c 0,47,48
 199 78 199 78 228 90 c 1,49,-1
 230 174 l 1,50,51
 183 170 183 170 159 150.5 c 128,-1,52
 135 131 135 131 135 110 c 0,45,46
EndSplineSet
EndChar

StartChar: ccedilla
Encoding: 231 231 170
Width: 354
GlyphClass: 2
Flags: W
LayerCount: 2
Fore
SplineSet
232 256 m 1,0,1
 234 270 234 270 234 292 c 128,-1,2
 234 314 234 314 225 337 c 128,-1,3
 216 360 216 360 202 360 c 0,4,5
 174 360 174 360 161.5 295.5 c 128,-1,6
 149 231 149 231 149 177 c 0,7,8
 149 86 149 86 186 86 c 0,9,10
 216 86 216 86 271 191 c 1,11,-1
 345 138 l 1,12,13
 289 -14 289 -14 194 -21 c 1,14,15
 194 -41 194 -41 202 -65 c 1,16,17
 214 -62 214 -62 225 -62 c 0,18,19
 259 -62 259 -62 284.5 -83 c 128,-1,20
 310 -104 310 -104 310 -144.5 c 128,-1,21
 310 -185 310 -185 277 -208.5 c 128,-1,22
 244 -232 244 -232 175 -232 c 128,-1,23
 106 -232 106 -232 49 -189 c 1,24,-1
 67 -144 l 1,25,26
 136 -181 136 -181 182 -181 c 0,27,28
 199 -181 199 -181 211.5 -173.5 c 128,-1,29
 224 -166 224 -166 224 -153.5 c 128,-1,30
 224 -141 224 -141 214 -133 c 128,-1,31
 204 -125 204 -125 189.5 -125 c 128,-1,32
 175 -125 175 -125 161 -132 c 1,33,-1
 133 -129 l 1,34,35
 134 -65 134 -65 154 -18 c 1,36,37
 101 -7 101 -7 66.5 37.5 c 128,-1,38
 32 82 32 82 32 161 c 0,39,40
 32 259 32 259 64 356 c 0,41,42
 82 409 82 409 117.5 443 c 128,-1,43
 153 477 153 477 208 477 c 128,-1,44
 263 477 263 477 299.5 421 c 128,-1,45
 336 365 336 365 336 297 c 0,46,47
 336 268 336 268 327 247 c 1,48,-1
 232 256 l 1,0,1
EndSplineSet
EndChar

StartChar: egrave
Encoding: 232 232 171
Width: 367
GlyphClass: 2
Flags: W
LayerCount: 2
Fore
SplineSet
184 72 m 0,0,1
 222 72 222 72 265 145 c 1,2,-1
 341 100 l 1,3,4
 322 67 322 67 304.5 44 c 128,-1,5
 287 21 287 21 252 0 c 128,-1,6
 217 -21 217 -21 174 -21 c 0,7,8
 111 -21 111 -21 68 32.5 c 128,-1,9
 25 86 25 86 25 177 c 0,10,11
 25 281 25 281 62 371 c 0,12,13
 82 418 82 418 119.5 447.5 c 128,-1,14
 157 477 157 477 196.5 477 c 128,-1,15
 236 477 236 477 260 464.5 c 128,-1,16
 284 452 284 452 298.5 436.5 c 128,-1,17
 313 421 313 421 324 391 c 128,-1,18
 335 361 335 361 339.5 342 c 128,-1,19
 344 323 344 323 347 287 c 0,20,21
 351 239 351 239 351 200 c 1,22,23
 271 178 271 178 144 160 c 1,24,25
 147 120 147 120 158 96 c 128,-1,26
 169 72 169 72 184 72 c 0,0,1
206 379 m 0,27,28
 184 379 184 379 166.5 335 c 128,-1,29
 149 291 149 291 146 233 c 1,30,31
 199 244 199 244 238 254 c 1,32,33
 238 379 238 379 206 379 c 0,27,28
278 572 m 1,34,-1
 233 515 l 1,35,36
 135 565 135 565 40 588 c 1,37,-1
 94 677 l 1,38,39
 165 646 165 646 278 572 c 1,34,-1
EndSplineSet
EndChar

StartChar: eacute
Encoding: 233 233 172
Width: 367
GlyphClass: 2
Flags: W
LayerCount: 2
Fore
SplineSet
184 72 m 0,0,1
 222 72 222 72 265 145 c 1,2,-1
 341 100 l 1,3,4
 322 67 322 67 304.5 44 c 128,-1,5
 287 21 287 21 252 0 c 128,-1,6
 217 -21 217 -21 174 -21 c 0,7,8
 111 -21 111 -21 68 32.5 c 128,-1,9
 25 86 25 86 25 177 c 0,10,11
 25 281 25 281 62 371 c 0,12,13
 82 418 82 418 119.5 447.5 c 128,-1,14
 157 477 157 477 196.5 477 c 128,-1,15
 236 477 236 477 260 464.5 c 128,-1,16
 284 452 284 452 298.5 436.5 c 128,-1,17
 313 421 313 421 324 391 c 128,-1,18
 335 361 335 361 339.5 342 c 128,-1,19
 344 323 344 323 347 287 c 0,20,21
 351 239 351 239 351 200 c 1,22,23
 271 178 271 178 144 160 c 1,24,25
 147 120 147 120 158 96 c 128,-1,26
 169 72 169 72 184 72 c 0,0,1
206 379 m 0,27,28
 184 379 184 379 166.5 335 c 128,-1,29
 149 291 149 291 146 233 c 1,30,31
 199 244 199 244 238 254 c 1,32,33
 238 379 238 379 206 379 c 0,27,28
185 515 m 1,34,-1
 140 572 l 1,35,36
 253 646 253 646 324 677 c 1,37,-1
 378 588 l 1,38,39
 283 565 283 565 185 515 c 1,34,-1
EndSplineSet
EndChar

StartChar: ecircumflex
Encoding: 234 234 173
Width: 367
GlyphClass: 2
Flags: W
LayerCount: 2
Fore
SplineSet
184 72 m 0,0,1
 222 72 222 72 265 145 c 1,2,-1
 341 100 l 1,3,4
 322 67 322 67 304.5 44 c 128,-1,5
 287 21 287 21 252 0 c 128,-1,6
 217 -21 217 -21 174 -21 c 0,7,8
 111 -21 111 -21 68 32.5 c 128,-1,9
 25 86 25 86 25 177 c 0,10,11
 25 281 25 281 62 371 c 0,12,13
 82 418 82 418 119.5 447.5 c 128,-1,14
 157 477 157 477 196.5 477 c 128,-1,15
 236 477 236 477 260 464.5 c 128,-1,16
 284 452 284 452 298.5 436.5 c 128,-1,17
 313 421 313 421 324 391 c 128,-1,18
 335 361 335 361 339.5 342 c 128,-1,19
 344 323 344 323 347 287 c 0,20,21
 351 239 351 239 351 200 c 1,22,23
 271 178 271 178 144 160 c 1,24,25
 147 120 147 120 158 96 c 128,-1,26
 169 72 169 72 184 72 c 0,0,1
206 379 m 0,27,28
 184 379 184 379 166.5 335 c 128,-1,29
 149 291 149 291 146 233 c 1,30,31
 199 244 199 244 238 254 c 1,32,33
 238 379 238 379 206 379 c 0,27,28
178 672 m 1,34,-1
 246 667 l 1,35,36
 277 637 277 637 347 552 c 1,37,-1
 289 508 l 1,38,39
 237 554 237 554 208 578 c 1,40,41
 158 543 158 543 108 499 c 1,42,-1
 50 542 l 1,43,44
 122 623 122 623 178 672 c 1,34,-1
EndSplineSet
EndChar

StartChar: edieresis
Encoding: 235 235 174
Width: 367
GlyphClass: 2
Flags: W
LayerCount: 2
Fore
SplineSet
184 72 m 0,0,1
 222 72 222 72 265 145 c 1,2,-1
 341 100 l 1,3,4
 322 67 322 67 304.5 44 c 128,-1,5
 287 21 287 21 252 0 c 128,-1,6
 217 -21 217 -21 174 -21 c 0,7,8
 111 -21 111 -21 68 32.5 c 128,-1,9
 25 86 25 86 25 177 c 0,10,11
 25 281 25 281 62 371 c 0,12,13
 82 418 82 418 119.5 447.5 c 128,-1,14
 157 477 157 477 196.5 477 c 128,-1,15
 236 477 236 477 260 464.5 c 128,-1,16
 284 452 284 452 298.5 436.5 c 128,-1,17
 313 421 313 421 324 391 c 128,-1,18
 335 361 335 361 339.5 342 c 128,-1,19
 344 323 344 323 347 287 c 0,20,21
 351 239 351 239 351 200 c 1,22,23
 271 178 271 178 144 160 c 1,24,25
 147 120 147 120 158 96 c 128,-1,26
 169 72 169 72 184 72 c 0,0,1
206 379 m 0,27,28
 184 379 184 379 166.5 335 c 128,-1,29
 149 291 149 291 146 233 c 1,30,31
 199 244 199 244 238 254 c 1,32,33
 238 379 238 379 206 379 c 0,27,28
168 649 m 1,34,35
 179 633 179 633 179 591 c 128,-1,36
 179 549 179 549 165 527 c 1,37,-1
 70 537 l 1,38,39
 79 586 79 586 79 612.5 c 128,-1,40
 79 639 79 639 78 657 c 1,41,-1
 168 649 l 1,34,35
323 651 m 1,42,43
 334 635 334 635 334 593 c 128,-1,44
 334 551 334 551 320 529 c 1,45,-1
 225 539 l 1,46,47
 234 588 234 588 234 614.5 c 128,-1,48
 234 641 234 641 233 659 c 1,49,-1
 323 651 l 1,42,43
EndSplineSet
EndChar

StartChar: igrave
Encoding: 236 236 175
Width: 236
GlyphClass: 2
Flags: W
LayerCount: 2
Fore
SplineSet
69 477 m 1,0,-1
 183 466 l 1,1,-1
 183 -14 l 1,2,-1
 69 -3 l 1,3,-1
 69 477 l 1,0,-1
200 572 m 1,4,-1
 155 515 l 1,5,6
 57 565 57 565 -38 588 c 1,7,-1
 16 677 l 1,8,9
 87 646 87 646 200 572 c 1,4,-1
EndSplineSet
EndChar

StartChar: iacute
Encoding: 237 237 176
Width: 236
GlyphClass: 2
Flags: W
LayerCount: 2
Fore
SplineSet
69 477 m 1,0,-1
 183 466 l 1,1,-1
 183 -14 l 1,2,-1
 69 -3 l 1,3,-1
 69 477 l 1,0,-1
107 515 m 1,4,-1
 62 572 l 1,5,6
 175 646 175 646 246 677 c 1,7,-1
 300 588 l 1,8,9
 205 565 205 565 107 515 c 1,4,-1
EndSplineSet
EndChar

StartChar: icircumflex
Encoding: 238 238 177
Width: 236
GlyphClass: 2
Flags: W
LayerCount: 2
Fore
SplineSet
69 477 m 1,0,-1
 183 466 l 1,1,-1
 183 -14 l 1,2,-1
 69 -3 l 1,3,-1
 69 477 l 1,0,-1
100 672 m 1,4,-1
 168 667 l 1,5,6
 199 637 199 637 269 552 c 1,7,-1
 211 508 l 1,8,9
 159 554 159 554 130 578 c 1,10,11
 80 543 80 543 30 499 c 1,12,-1
 -28 542 l 1,13,14
 44 623 44 623 100 672 c 1,4,-1
EndSplineSet
EndChar

StartChar: idieresis
Encoding: 239 239 178
Width: 236
GlyphClass: 2
Flags: W
LayerCount: 2
Fore
SplineSet
69 477 m 1,0,-1
 183 466 l 1,1,-1
 183 -14 l 1,2,-1
 69 -3 l 1,3,-1
 69 477 l 1,0,-1
90 649 m 1,4,5
 101 633 101 633 101 591 c 128,-1,6
 101 549 101 549 87 527 c 1,7,-1
 -8 537 l 1,8,9
 1 586 1 586 1 612.5 c 128,-1,10
 1 639 1 639 0 657 c 1,11,-1
 90 649 l 1,4,5
245 651 m 1,12,13
 256 635 256 635 256 593 c 128,-1,14
 256 551 256 551 242 529 c 1,15,-1
 147 539 l 1,16,17
 156 588 156 588 156 614.5 c 128,-1,18
 156 641 156 641 155 659 c 1,19,-1
 245 651 l 1,12,13
EndSplineSet
EndChar

StartChar: eth
Encoding: 240 240 179
Width: 368
GlyphClass: 2
Flags: W
LayerCount: 2
Fore
SplineSet
371 280 m 128,-1,1
 371 146 371 146 310 58 c 128,-1,2
 249 -30 249 -30 171.5 -30 c 128,-1,3
 94 -30 94 -30 55.5 30 c 128,-1,4
 17 90 17 90 17 179 c 0,5,6
 17 231 17 231 33 294 c 128,-1,7
 49 357 49 357 84 408 c 128,-1,8
 119 459 119 459 161 459 c 0,9,10
 187 459 187 459 218 447 c 1,11,12
 198 493 198 493 171 532 c 1,13,14
 106 505 106 505 54 474 c 1,15,-1
 31 531 l 1,16,17
 78 558 78 558 131 583 c 1,18,19
 108 609 108 609 84 630 c 1,20,-1
 172 692 l 1,21,22
 213 644 213 644 228 624 c 1,23,24
 273 641 273 641 319 654 c 1,25,-1
 351 591 l 1,26,27
 300 580 300 580 268 569 c 1,28,0
 371 414 371 414 371 280 c 128,-1,1
256 280 m 0,29,30
 256 313 256 313 250 346 c 1,31,32
 212 364 212 364 196 364 c 0,33,34
 169 364 169 364 150.5 299.5 c 128,-1,35
 132 235 132 235 132 179 c 0,36,37
 132 80 132 80 178 80 c 0,38,39
 208 80 208 80 232 137 c 128,-1,40
 256 194 256 194 256 280 c 0,29,30
EndSplineSet
EndChar

StartChar: ntilde
Encoding: 241 241 180
Width: 424
GlyphClass: 2
Flags: W
LayerCount: 2
Fore
SplineSet
257 476 m 0,0,1
 389 476 389 476 389 256 c 0,2,3
 389 140 389 140 376 10 c 1,4,-1
 259 21 l 1,5,6
 270 135 270 135 270 251.5 c 128,-1,7
 270 368 270 368 237 368 c 0,8,9
 221 368 221 368 196 287.5 c 128,-1,10
 171 207 171 207 165 130 c 1,11,12
 167 89 167 89 173 -18 c 1,13,-1
 56 -7 l 1,14,15
 45 134 45 134 45 241 c 128,-1,16
 45 348 45 348 51 433 c 1,17,-1
 125 425 l 1,18,19
 127 417 127 417 140 360 c 1,20,21
 198 476 198 476 257 476 c 0,0,1
339 570.5 m 128,-1,23
 310 535 310 535 280.5 535 c 128,-1,24
 251 535 251 535 223 544 c 128,-1,25
 195 553 195 553 174.5 553 c 128,-1,26
 154 553 154 553 131 530 c 1,27,-1
 71 562 l 1,28,29
 111 647 111 647 164 647 c 0,30,31
 185 647 185 647 215 633 c 128,-1,32
 245 619 245 619 259 619 c 0,33,34
 287 619 287 619 311 651 c 1,35,-1
 371 646 l 1,36,22
 368 606 368 606 339 570.5 c 128,-1,23
EndSplineSet
EndChar

StartChar: ograve
Encoding: 242 242 181
Width: 368
GlyphClass: 2
Flags: W
LayerCount: 2
Fore
SplineSet
141 180 m 0,0,1
 141 67 141 67 191 67 c 0,2,3
 213 67 213 67 228 130.5 c 128,-1,4
 243 194 243 194 243 252 c 0,5,6
 243 380 243 380 201 380 c 0,7,8
 174 380 174 380 157.5 311.5 c 128,-1,9
 141 243 141 243 141 180 c 0,0,1
24 189 m 0,10,11
 24 282 24 282 62 371 c 0,12,13
 82 416 82 416 118.5 444.5 c 128,-1,14
 155 473 155 473 200 473 c 128,-1,15
 245 473 245 473 277.5 452.5 c 128,-1,16
 310 432 310 432 327 398 c 0,17,18
 360 331 360 331 360 252 c 0,19,20
 360 143 360 143 315.5 58.5 c 128,-1,21
 271 -26 271 -26 191 -26 c 0,22,23
 24 -26 24 -26 24 189 c 0,10,11
267 572 m 1,24,-1
 222 515 l 1,25,26
 124 565 124 565 29 588 c 1,27,-1
 83 677 l 1,28,29
 154 646 154 646 267 572 c 1,24,-1
EndSplineSet
EndChar

StartChar: oacute
Encoding: 243 243 182
Width: 368
GlyphClass: 2
Flags: W
LayerCount: 2
Fore
SplineSet
141 180 m 0,0,1
 141 67 141 67 191 67 c 0,2,3
 213 67 213 67 228 130.5 c 128,-1,4
 243 194 243 194 243 252 c 0,5,6
 243 380 243 380 201 380 c 0,7,8
 174 380 174 380 157.5 311.5 c 128,-1,9
 141 243 141 243 141 180 c 0,0,1
24 189 m 0,10,11
 24 282 24 282 62 371 c 0,12,13
 82 416 82 416 118.5 444.5 c 128,-1,14
 155 473 155 473 200 473 c 128,-1,15
 245 473 245 473 277.5 452.5 c 128,-1,16
 310 432 310 432 327 398 c 0,17,18
 360 331 360 331 360 252 c 0,19,20
 360 143 360 143 315.5 58.5 c 128,-1,21
 271 -26 271 -26 191 -26 c 0,22,23
 24 -26 24 -26 24 189 c 0,10,11
174 515 m 1,24,-1
 129 572 l 1,25,26
 242 646 242 646 313 677 c 1,27,-1
 367 588 l 1,28,29
 272 565 272 565 174 515 c 1,24,-1
EndSplineSet
EndChar

StartChar: ocircumflex
Encoding: 244 244 183
Width: 368
GlyphClass: 2
Flags: W
LayerCount: 2
Fore
SplineSet
141 180 m 0,0,1
 141 67 141 67 191 67 c 0,2,3
 213 67 213 67 228 130.5 c 128,-1,4
 243 194 243 194 243 252 c 0,5,6
 243 380 243 380 201 380 c 0,7,8
 174 380 174 380 157.5 311.5 c 128,-1,9
 141 243 141 243 141 180 c 0,0,1
24 189 m 0,10,11
 24 282 24 282 62 371 c 0,12,13
 82 416 82 416 118.5 444.5 c 128,-1,14
 155 473 155 473 200 473 c 128,-1,15
 245 473 245 473 277.5 452.5 c 128,-1,16
 310 432 310 432 327 398 c 0,17,18
 360 331 360 331 360 252 c 0,19,20
 360 143 360 143 315.5 58.5 c 128,-1,21
 271 -26 271 -26 191 -26 c 0,22,23
 24 -26 24 -26 24 189 c 0,10,11
184 672 m 1,24,-1
 252 667 l 1,25,26
 283 637 283 637 353 552 c 1,27,-1
 295 508 l 1,28,29
 243 554 243 554 214 578 c 1,30,31
 164 543 164 543 114 499 c 1,32,-1
 56 542 l 1,33,34
 128 623 128 623 184 672 c 1,24,-1
EndSplineSet
EndChar

StartChar: otilde
Encoding: 245 245 184
Width: 368
GlyphClass: 2
Flags: W
LayerCount: 2
Fore
SplineSet
141 180 m 0,0,1
 141 67 141 67 191 67 c 0,2,3
 213 67 213 67 228 130.5 c 128,-1,4
 243 194 243 194 243 252 c 0,5,6
 243 380 243 380 201 380 c 0,7,8
 174 380 174 380 157.5 311.5 c 128,-1,9
 141 243 141 243 141 180 c 0,0,1
24 189 m 0,10,11
 24 282 24 282 62 371 c 0,12,13
 82 416 82 416 118.5 444.5 c 128,-1,14
 155 473 155 473 200 473 c 128,-1,15
 245 473 245 473 277.5 452.5 c 128,-1,16
 310 432 310 432 327 398 c 0,17,18
 360 331 360 331 360 252 c 0,19,20
 360 143 360 143 315.5 58.5 c 128,-1,21
 271 -26 271 -26 191 -26 c 0,22,23
 24 -26 24 -26 24 189 c 0,10,11
317 570.5 m 128,-1,25
 288 535 288 535 258.5 535 c 128,-1,26
 229 535 229 535 201 544 c 128,-1,27
 173 553 173 553 152.5 553 c 128,-1,28
 132 553 132 553 109 530 c 1,29,-1
 49 562 l 1,30,31
 89 647 89 647 142 647 c 0,32,33
 162 647 162 647 192 633 c 128,-1,34
 222 619 222 619 237 619 c 0,35,36
 265 619 265 619 289 651 c 1,37,-1
 349 646 l 1,38,24
 346 606 346 606 317 570.5 c 128,-1,25
EndSplineSet
EndChar

StartChar: odieresis
Encoding: 246 246 185
Width: 368
GlyphClass: 2
Flags: W
LayerCount: 2
Fore
SplineSet
141 180 m 0,0,1
 141 67 141 67 191 67 c 0,2,3
 213 67 213 67 228 130.5 c 128,-1,4
 243 194 243 194 243 252 c 0,5,6
 243 380 243 380 201 380 c 0,7,8
 174 380 174 380 157.5 311.5 c 128,-1,9
 141 243 141 243 141 180 c 0,0,1
24 189 m 0,10,11
 24 282 24 282 62 371 c 0,12,13
 82 416 82 416 118.5 444.5 c 128,-1,14
 155 473 155 473 200 473 c 128,-1,15
 245 473 245 473 277.5 452.5 c 128,-1,16
 310 432 310 432 327 398 c 0,17,18
 360 331 360 331 360 252 c 0,19,20
 360 143 360 143 315.5 58.5 c 128,-1,21
 271 -26 271 -26 191 -26 c 0,22,23
 24 -26 24 -26 24 189 c 0,10,11
157 649 m 1,24,25
 168 633 168 633 168 591 c 128,-1,26
 168 549 168 549 154 527 c 1,27,-1
 59 537 l 1,28,29
 68 586 68 586 68 612.5 c 128,-1,30
 68 639 68 639 67 657 c 1,31,-1
 157 649 l 1,24,25
312 651 m 1,32,33
 323 635 323 635 323 593 c 128,-1,34
 323 551 323 551 309 529 c 1,35,-1
 214 539 l 1,36,37
 223 588 223 588 223 614.5 c 128,-1,38
 223 641 223 641 222 659 c 1,39,-1
 312 651 l 1,32,33
EndSplineSet
EndChar

StartChar: divide
Encoding: 247 247 186
Width: 833
GlyphClass: 2
Flags: W
LayerCount: 2
Fore
SplineSet
123 355 m 1,0,-1
 479 363 l 1,1,2
 628 363 628 363 720 352 c 1,3,-1
 702 232 l 1,4,5
 621 243 621 243 489 243 c 1,6,-1
 123 235 l 1,7,-1
 123 355 l 1,0,-1
476 168 m 1,8,9
 486 130 486 130 486 87 c 128,-1,10
 486 44 486 44 473 22 c 1,11,-1
 343 32 l 1,12,13
 351 70 351 70 351 112 c 128,-1,14
 351 154 351 154 350 179 c 1,15,-1
 476 168 l 1,8,9
476 565 m 1,16,17
 486 527 486 527 486 484 c 128,-1,18
 486 441 486 441 473 419 c 1,19,-1
 343 429 l 1,20,21
 351 467 351 467 351 509 c 128,-1,22
 351 551 351 551 350 576 c 1,23,-1
 476 565 l 1,16,17
EndSplineSet
EndChar

StartChar: oslash
Encoding: 248 248 187
Width: 368
GlyphClass: 2
Flags: W
LayerCount: 2
Fore
SplineSet
46 62 m 1,0,1
 24 111 24 111 24 172 c 128,-1,2
 24 233 24 233 33.5 279.5 c 128,-1,3
 43 326 43 326 62.5 371 c 128,-1,4
 82 416 82 416 118.5 444.5 c 128,-1,5
 155 473 155 473 201 473 c 0,6,7
 264 473 264 473 303 431 c 1,8,9
 335 472 335 472 377 521 c 1,10,-1
 417 487 l 1,11,12
 367 430 367 430 333 386 c 1,13,14
 360 331 360 331 360 252 c 0,15,16
 360 143 360 143 315.5 58.5 c 128,-1,17
 271 -26 271 -26 195 -26 c 128,-1,18
 119 -26 119 -26 77 15 c 1,19,-1
 23 -71 l 1,20,-1
 -23 -46 l 1,21,-1
 46 62 l 1,0,1
191 63 m 0,22,23
 214 63 214 63 230.5 129 c 128,-1,24
 247 195 247 195 247 269 c 1,25,26
 190 188 190 188 143 115 c 1,27,28
 154 63 154 63 191 63 c 0,22,23
201 384 m 0,29,30
 173 384 173 384 156 320 c 128,-1,31
 139 256 139 256 137 190 c 1,32,33
 194 276 194 276 239 336 c 1,34,35
 227 384 227 384 201 384 c 0,29,30
EndSplineSet
EndChar

StartChar: ugrave
Encoding: 249 249 188
Width: 420
GlyphClass: 2
Flags: W
LayerCount: 2
Fore
SplineSet
378 469 m 1,0,-1
 376 311 l 1,1,2
 376 88 376 88 384 -17 c 1,3,-1
 285 -7 l 1,4,5
 282 35 282 35 272 78 c 1,6,7
 217 -3 217 -3 161.5 -3 c 128,-1,8
 106 -3 106 -3 73 35 c 128,-1,9
 40 73 40 73 40 140 c 0,10,11
 40 270 40 270 59 450 c 1,12,-1
 175 439 l 1,13,14
 157 268 157 268 157 155 c 0,15,16
 157 104 157 104 189 104 c 0,17,18
 204 104 204 104 225.5 145 c 128,-1,19
 247 186 247 186 260 244 c 1,20,21
 259 266 259 266 259 296 c 128,-1,22
 259 326 259 326 262 479 c 1,23,-1
 378 469 l 1,0,-1
287 572 m 1,24,-1
 242 515 l 1,25,26
 144 565 144 565 49 588 c 1,27,-1
 103 677 l 1,28,29
 174 646 174 646 287 572 c 1,24,-1
EndSplineSet
EndChar

StartChar: uacute
Encoding: 250 250 189
Width: 420
GlyphClass: 2
Flags: W
LayerCount: 2
Fore
SplineSet
378 469 m 1,0,-1
 376 311 l 1,1,2
 376 88 376 88 384 -17 c 1,3,-1
 285 -7 l 1,4,5
 282 35 282 35 272 78 c 1,6,7
 217 -3 217 -3 161.5 -3 c 128,-1,8
 106 -3 106 -3 73 35 c 128,-1,9
 40 73 40 73 40 140 c 0,10,11
 40 270 40 270 59 450 c 1,12,-1
 175 439 l 1,13,14
 157 268 157 268 157 155 c 0,15,16
 157 104 157 104 189 104 c 0,17,18
 204 104 204 104 225.5 145 c 128,-1,19
 247 186 247 186 260 244 c 1,20,21
 259 266 259 266 259 296 c 128,-1,22
 259 326 259 326 262 479 c 1,23,-1
 378 469 l 1,0,-1
194 515 m 1,24,-1
 149 572 l 1,25,26
 262 646 262 646 333 677 c 1,27,-1
 387 588 l 1,28,29
 292 565 292 565 194 515 c 1,24,-1
EndSplineSet
EndChar

StartChar: ucircumflex
Encoding: 251 251 190
Width: 420
GlyphClass: 2
Flags: W
LayerCount: 2
Fore
SplineSet
378 469 m 1,0,-1
 376 311 l 1,1,2
 376 88 376 88 384 -17 c 1,3,-1
 285 -7 l 1,4,5
 282 35 282 35 272 78 c 1,6,7
 217 -3 217 -3 161.5 -3 c 128,-1,8
 106 -3 106 -3 73 35 c 128,-1,9
 40 73 40 73 40 140 c 0,10,11
 40 270 40 270 59 450 c 1,12,-1
 175 439 l 1,13,14
 157 268 157 268 157 155 c 0,15,16
 157 104 157 104 189 104 c 0,17,18
 204 104 204 104 225.5 145 c 128,-1,19
 247 186 247 186 260 244 c 1,20,21
 259 266 259 266 259 296 c 128,-1,22
 259 326 259 326 262 479 c 1,23,-1
 378 469 l 1,0,-1
187 672 m 1,24,-1
 255 667 l 1,25,26
 286 637 286 637 356 552 c 1,27,-1
 298 508 l 1,28,29
 246 554 246 554 217 578 c 1,30,31
 167 543 167 543 117 499 c 1,32,-1
 59 542 l 1,33,34
 131 623 131 623 187 672 c 1,24,-1
EndSplineSet
EndChar

StartChar: udieresis
Encoding: 252 252 191
Width: 420
GlyphClass: 2
Flags: W
LayerCount: 2
Fore
SplineSet
378 469 m 1,0,-1
 376 311 l 1,1,2
 376 88 376 88 384 -17 c 1,3,-1
 285 -7 l 1,4,5
 282 35 282 35 272 78 c 1,6,7
 217 -3 217 -3 161.5 -3 c 128,-1,8
 106 -3 106 -3 73 35 c 128,-1,9
 40 73 40 73 40 140 c 0,10,11
 40 270 40 270 59 450 c 1,12,-1
 175 439 l 1,13,14
 157 268 157 268 157 155 c 0,15,16
 157 104 157 104 189 104 c 0,17,18
 204 104 204 104 225.5 145 c 128,-1,19
 247 186 247 186 260 244 c 1,20,21
 259 266 259 266 259 296 c 128,-1,22
 259 326 259 326 262 479 c 1,23,-1
 378 469 l 1,0,-1
177 649 m 1,24,25
 188 633 188 633 188 591 c 128,-1,26
 188 549 188 549 174 527 c 1,27,-1
 79 537 l 1,28,29
 88 586 88 586 88 612.5 c 128,-1,30
 88 639 88 639 87 657 c 1,31,-1
 177 649 l 1,24,25
332 651 m 1,32,33
 343 635 343 635 343 593 c 128,-1,34
 343 551 343 551 329 529 c 1,35,-1
 234 539 l 1,36,37
 243 588 243 588 243 614.5 c 128,-1,38
 243 641 243 641 242 659 c 1,39,-1
 332 651 l 1,32,33
EndSplineSet
EndChar

StartChar: yacute
Encoding: 253 253 192
Width: 376
GlyphClass: 2
Flags: W
LayerCount: 2
Fore
SplineSet
287 501 m 1,0,-1
 383 445 l 1,1,2
 300 188 300 188 213 -237 c 1,3,-1
 103 -227 l 1,4,5
 119 -148 119 -148 156 -9 c 1,6,7
 60 175 60 175 35 455 c 1,8,-1
 147 444 l 1,9,10
 162 260 162 260 195 130 c 1,11,12
 241 344 241 344 287 501 c 1,0,-1
168 515 m 1,13,-1
 123 572 l 1,14,15
 236 646 236 646 307 677 c 1,16,-1
 361 588 l 1,17,18
 266 565 266 565 168 515 c 1,13,-1
EndSplineSet
EndChar

StartChar: thorn
Encoding: 254 254 193
Width: 410
GlyphClass: 2
Flags: W
LayerCount: 2
Fore
SplineSet
305 471 m 0,0,1
 353 471 353 471 376.5 418 c 128,-1,2
 400 365 400 365 400 292.5 c 128,-1,3
 400 220 400 220 384.5 149 c 128,-1,4
 369 78 369 78 335.5 28.5 c 128,-1,5
 302 -21 302 -21 259 -21 c 128,-1,6
 216 -21 216 -21 182 6 c 1,7,8
 184 -139 184 -139 189 -245 c 1,9,-1
 72 -233 l 1,10,11
 63 134 63 134 63 331.5 c 128,-1,12
 63 529 63 529 74 733 c 1,13,-1
 188 723 l 1,14,15
 176 526 176 526 176 365 c 1,16,17
 243 471 243 471 305 471 c 0,0,1
176 194 m 1,18,-1
 177 116 l 1,19,20
 189 99 189 99 198 92.5 c 128,-1,21
 207 86 207 86 225 86 c 0,22,23
 250 86 250 86 269 141.5 c 128,-1,24
 288 197 288 197 288 247 c 128,-1,25
 288 297 288 297 282.5 319 c 128,-1,26
 277 341 277 341 259 341 c 0,27,28
 221 341 221 341 176 194 c 1,18,-1
EndSplineSet
EndChar

StartChar: ydieresis
Encoding: 255 255 194
Width: 376
GlyphClass: 2
Flags: W
LayerCount: 2
Fore
SplineSet
287 501 m 1,0,-1
 383 445 l 1,1,2
 300 188 300 188 213 -237 c 1,3,-1
 103 -227 l 1,4,5
 119 -148 119 -148 156 -9 c 1,6,7
 60 175 60 175 35 455 c 1,8,-1
 147 444 l 1,9,10
 162 260 162 260 195 130 c 1,11,12
 241 344 241 344 287 501 c 1,0,-1
181 649 m 1,13,14
 192 633 192 633 192 591 c 128,-1,15
 192 549 192 549 178 527 c 1,16,-1
 83 537 l 1,17,18
 92 586 92 586 92 612.5 c 128,-1,19
 92 639 92 639 91 657 c 1,20,-1
 181 649 l 1,13,14
336 651 m 1,21,22
 347 635 347 635 347 593 c 128,-1,23
 347 551 347 551 333 529 c 1,24,-1
 238 539 l 1,25,26
 247 588 247 588 247 614.5 c 128,-1,27
 247 641 247 641 246 659 c 1,28,-1
 336 651 l 1,21,22
EndSplineSet
EndChar

StartChar: Cacute
Encoding: 262 262 195
Width: 482
GlyphClass: 2
Flags: W
LayerCount: 2
Fore
SplineSet
269 575 m 0,0,1
 225 575 225 575 192 466.5 c 128,-1,2
 159 358 159 358 159 274 c 0,3,4
 159 98 159 98 251 98 c 0,5,6
 277 98 277 98 296.5 120.5 c 128,-1,7
 316 143 316 143 324.5 167 c 128,-1,8
 333 191 333 191 345 233 c 1,9,-1
 472 223 l 1,10,11
 446 100 446 100 394.5 35 c 128,-1,12
 343 -30 343 -30 251 -30 c 0,13,14
 143 -30 143 -30 84.5 51.5 c 128,-1,15
 26 133 26 133 26 259 c 0,16,17
 26 406 26 406 84 545 c 0,18,19
 112 614 112 614 162.5 658.5 c 128,-1,20
 213 703 213 703 278 703 c 0,21,22
 358 703 358 703 394 650 c 0,23,24
 412 624 412 624 423.5 597 c 128,-1,25
 435 570 435 570 440 528 c 0,26,27
 449 461 449 461 451 384 c 1,28,-1
 322 396 l 1,29,30
 322 525 322 525 298 558 c 1,31,32
 287 575 287 575 269 575 c 0,0,1
255 766 m 1,33,-1
 210 823 l 1,34,35
 323 897 323 897 394 928 c 1,36,-1
 448 839 l 1,37,38
 353 816 353 816 255 766 c 1,33,-1
EndSplineSet
EndChar

StartChar: cacute
Encoding: 263 263 196
Width: 354
GlyphClass: 2
Flags: W
LayerCount: 2
Fore
SplineSet
232 256 m 1,0,1
 234 270 234 270 234 292 c 128,-1,2
 234 314 234 314 225 337 c 128,-1,3
 216 360 216 360 202 360 c 0,4,5
 174 360 174 360 161.5 295.5 c 128,-1,6
 149 231 149 231 149 177 c 0,7,8
 149 86 149 86 186 86 c 0,9,10
 216 86 216 86 271 191 c 1,11,-1
 345 138 l 1,12,13
 318 65 318 65 277.5 22 c 128,-1,14
 237 -21 237 -21 180 -21 c 128,-1,15
 123 -21 123 -21 77.5 24 c 128,-1,16
 32 69 32 69 32 161 c 0,17,18
 32 259 32 259 64 356 c 0,19,20
 82 409 82 409 117.5 443 c 128,-1,21
 153 477 153 477 208 477 c 128,-1,22
 263 477 263 477 299.5 421 c 128,-1,23
 336 365 336 365 336 297 c 0,24,25
 336 268 336 268 327 247 c 1,26,-1
 232 256 l 1,0,1
176 515 m 1,27,-1
 131 572 l 1,28,29
 244 646 244 646 315 677 c 1,30,-1
 369 588 l 1,31,32
 274 565 274 565 176 515 c 1,27,-1
EndSplineSet
EndChar

StartChar: Ccaron
Encoding: 268 268 197
Width: 482
GlyphClass: 2
Flags: W
LayerCount: 2
Fore
SplineSet
269 575 m 0,0,1
 225 575 225 575 192 466.5 c 128,-1,2
 159 358 159 358 159 274 c 0,3,4
 159 98 159 98 251 98 c 0,5,6
 277 98 277 98 296.5 120.5 c 128,-1,7
 316 143 316 143 324.5 167 c 128,-1,8
 333 191 333 191 345 233 c 1,9,-1
 472 223 l 1,10,11
 446 100 446 100 394.5 35 c 128,-1,12
 343 -30 343 -30 251 -30 c 0,13,14
 143 -30 143 -30 84.5 51.5 c 128,-1,15
 26 133 26 133 26 259 c 0,16,17
 26 406 26 406 84 545 c 0,18,19
 112 614 112 614 162.5 658.5 c 128,-1,20
 213 703 213 703 278 703 c 0,21,22
 358 703 358 703 394 650 c 0,23,24
 412 624 412 624 423.5 597 c 128,-1,25
 435 570 435 570 440 528 c 0,26,27
 449 461 449 461 451 384 c 1,28,-1
 322 396 l 1,29,30
 322 525 322 525 298 558 c 1,31,32
 287 575 287 575 269 575 c 0,0,1
301 770 m 1,33,-1
 233 775 l 1,34,35
 202 805 202 805 132 890 c 1,36,-1
 190 934 l 1,37,38
 242 888 242 888 271 864 c 1,39,40
 321 899 321 899 371 943 c 1,41,-1
 429 900 l 1,42,43
 357 819 357 819 301 770 c 1,33,-1
EndSplineSet
EndChar

StartChar: ccaron
Encoding: 269 269 198
Width: 354
GlyphClass: 2
Flags: W
LayerCount: 2
Fore
SplineSet
232 256 m 1,0,1
 234 270 234 270 234 292 c 128,-1,2
 234 314 234 314 225 337 c 128,-1,3
 216 360 216 360 202 360 c 0,4,5
 174 360 174 360 161.5 295.5 c 128,-1,6
 149 231 149 231 149 177 c 0,7,8
 149 86 149 86 186 86 c 0,9,10
 216 86 216 86 271 191 c 1,11,-1
 345 138 l 1,12,13
 318 65 318 65 277.5 22 c 128,-1,14
 237 -21 237 -21 180 -21 c 128,-1,15
 123 -21 123 -21 77.5 24 c 128,-1,16
 32 69 32 69 32 161 c 0,17,18
 32 259 32 259 64 356 c 0,19,20
 82 409 82 409 117.5 443 c 128,-1,21
 153 477 153 477 208 477 c 128,-1,22
 263 477 263 477 299.5 421 c 128,-1,23
 336 365 336 365 336 297 c 0,24,25
 336 268 336 268 327 247 c 1,26,-1
 232 256 l 1,0,1
224 519 m 1,27,-1
 156 524 l 1,28,29
 125 554 125 554 55 639 c 1,30,-1
 113 683 l 1,31,32
 165 637 165 637 194 613 c 1,33,34
 244 648 244 648 294 692 c 1,35,-1
 352 649 l 1,36,37
 280 568 280 568 224 519 c 1,27,-1
EndSplineSet
EndChar

StartChar: dslash
Encoding: 273 273 199
Width: 431
GlyphClass: 2
Flags: W
LayerCount: 2
Fore
SplineSet
250 637 m 1,0,-1
 248 734 l 1,1,-1
 367 724 l 1,2,-1
 367 637 l 1,3,4
 397 637 397 637 451 635 c 1,5,-1
 455 547 l 1,6,7
 400 553 400 553 367 554 c 1,8,-1
 367 520 l 2,9,10
 367 280 367 280 351 -14 c 1,11,-1
 262 -6 l 1,12,13
 259 34 259 34 256 88 c 1,14,15
 213 2 213 2 163 2 c 0,16,17
 86 2 86 2 56 50 c 128,-1,18
 26 98 26 98 26 189.5 c 128,-1,19
 26 281 26 281 65.5 379 c 128,-1,20
 105 477 105 477 155 477 c 0,21,22
 200 477 200 477 250 453 c 1,23,24
 250 453 250 453 251 553 c 1,25,26
 233 552 233 552 197 548 c 0,27,28
 120 541 120 541 79 541 c 1,29,-1
 67 630 l 1,30,-1
 250 637 l 1,0,-1
253 360 m 1,31,32
 228 379 228 379 203.5 379 c 128,-1,33
 179 379 179 379 161 314.5 c 128,-1,34
 143 250 143 250 143 180 c 128,-1,35
 143 110 143 110 177 110 c 0,36,37
 190 110 190 110 212 153.5 c 128,-1,38
 234 197 234 197 252 264 c 1,39,-1
 253 360 l 1,31,32
EndSplineSet
EndChar

StartChar: Gbreve
Encoding: 286 286 200
Width: 498
GlyphClass: 2
Flags: W
LayerCount: 2
Fore
SplineSet
333 397 m 1,0,1
 337 417 337 417 337 462.5 c 128,-1,2
 337 508 337 508 322 546.5 c 128,-1,3
 307 585 307 585 278 585 c 0,4,5
 243 585 243 585 210 494.5 c 128,-1,6
 177 404 177 404 177 300.5 c 128,-1,7
 177 197 177 197 197 138.5 c 128,-1,8
 217 80 217 80 256 80 c 128,-1,9
 295 80 295 80 315 116 c 128,-1,10
 335 152 335 152 345 222 c 1,11,12
 309 222 309 222 268 215 c 1,13,-1
 247 314 l 1,14,15
 338 320 338 320 475 336 c 1,16,17
 481 284 481 284 481 241 c 128,-1,18
 481 198 481 198 455.5 134 c 128,-1,19
 430 70 430 70 379.5 21 c 128,-1,20
 329 -28 329 -28 269 -28 c 0,21,22
 165 -28 165 -28 102.5 53 c 128,-1,23
 40 134 40 134 40 282 c 0,24,25
 40 391 40 391 67 486 c 128,-1,26
 94 581 94 581 147 642 c 128,-1,27
 200 703 200 703 268 703 c 0,28,29
 334 703 334 703 392 655 c 0,30,31
 422 630 422 630 440.5 583.5 c 128,-1,32
 459 537 459 537 459 486 c 128,-1,33
 459 435 459 435 450 387 c 1,34,-1
 333 397 l 1,0,1
235 860 m 128,-1,36
 248 844 248 844 271.5 844 c 128,-1,37
 295 844 295 844 314 864 c 128,-1,38
 333 884 333 884 333 912 c 1,39,-1
 408 906 l 1,40,41
 408 854 408 854 366 813 c 128,-1,42
 324 772 324 772 268.5 772 c 128,-1,43
 213 772 213 772 180 809 c 128,-1,44
 147 846 147 846 147 906 c 1,45,-1
 222 900 l 1,46,35
 222 876 222 876 235 860 c 128,-1,36
EndSplineSet
EndChar

StartChar: gbreve
Encoding: 287 287 201
Width: 404
GlyphClass: 2
Flags: W
LayerCount: 2
Fore
SplineSet
193 -134 m 0,0,1
 224 -134 224 -134 243 -70.5 c 128,-1,2
 262 -7 262 -7 262 87 c 1,3,4
 209 -8 209 -8 152.5 -8 c 128,-1,5
 96 -8 96 -8 61.5 30.5 c 128,-1,6
 27 69 27 69 27 147.5 c 128,-1,7
 27 226 27 226 54 303.5 c 128,-1,8
 81 381 81 381 120.5 427.5 c 128,-1,9
 160 474 160 474 196 474 c 0,10,11
 259 474 259 474 312 423 c 1,12,-1
 382 413 l 1,13,14
 369 348 369 348 369 213.5 c 128,-1,15
 369 79 369 79 361.5 15.5 c 128,-1,16
 354 -48 354 -48 337 -109 c 128,-1,17
 320 -170 320 -170 287 -206 c 128,-1,18
 254 -242 254 -242 200 -242 c 128,-1,19
 146 -242 146 -242 97 -198.5 c 128,-1,20
 48 -155 48 -155 18 -94 c 1,21,-1
 102 -58 l 1,22,23
 141 -134 141 -134 193 -134 c 0,0,1
221 372 m 0,24,25
 196 372 196 372 170.5 300 c 128,-1,26
 145 228 145 228 145 147 c 0,27,28
 145 116 145 116 153.5 100 c 128,-1,29
 162 84 162 84 172.5 84 c 128,-1,30
 183 84 183 84 200 104 c 128,-1,31
 217 124 217 124 236.5 168 c 128,-1,32
 256 212 256 212 265 265 c 1,33,-1
 267 341 l 1,34,35
 238 372 238 372 221 372 c 0,24,25
200 609 m 128,-1,37
 213 593 213 593 236.5 593 c 128,-1,38
 260 593 260 593 279 613 c 128,-1,39
 298 633 298 633 298 661 c 1,40,-1
 373 655 l 1,41,42
 373 603 373 603 331 562 c 128,-1,43
 289 521 289 521 233.5 521 c 128,-1,44
 178 521 178 521 145 558 c 128,-1,45
 112 595 112 595 112 655 c 1,46,-1
 187 649 l 1,47,36
 187 625 187 625 200 609 c 128,-1,37
EndSplineSet
EndChar

StartChar: hbar
Encoding: 295 295 202
Width: 425
GlyphClass: 2
Flags: W
LayerCount: 2
Fore
SplineSet
63 417 m 1,0,-1
 62 538 l 1,1,2
 43 537 43 537 7 537 c 1,3,-1
 -5 625 l 1,4,5
 38 625 38 625 60 627 c 1,6,-1
 56 721 l 1,7,-1
 173 710 l 1,8,-1
 176 634 l 1,9,-1
 189 634 l 2,10,11
 218 634 218 634 244 631 c 1,12,-1
 248 543 l 1,13,14
 218 546 218 546 189 546 c 2,15,-1
 179 546 l 1,16,17
 181 454 181 454 181 407 c 1,18,19
 227 464 227 464 271.5 464 c 128,-1,20
 316 464 316 464 344 434 c 0,21,22
 393 382 393 382 393 302 c 0,23,24
 393 157 393 157 382 -1 c 1,25,-1
 266 10 l 1,26,27
 273 157 273 157 273 299 c 0,28,29
 273 352 273 352 246 352 c 0,30,31
 214 352 214 352 177 212 c 1,32,33
 175 112 175 112 167 -15 c 1,34,-1
 50 -4 l 1,35,36
 63 168 63 168 63 417 c 1,0,-1
EndSplineSet
EndChar

StartChar: Itilde
Encoding: 296 296 203
Width: 289
GlyphClass: 2
Flags: W
LayerCount: 2
Fore
SplineSet
233 692 m 1,0,1
 224 534 224 534 224 336 c 128,-1,2
 224 138 224 138 237 -25 c 1,3,-1
 102 -13 l 1,4,5
 89 191 89 191 89 355.5 c 128,-1,6
 89 520 89 520 98 704 c 1,7,-1
 233 692 l 1,0,1
276 792.5 m 128,-1,9
 247 757 247 757 217.5 757 c 128,-1,10
 188 757 188 757 160 766 c 128,-1,11
 132 775 132 775 111.5 775 c 128,-1,12
 91 775 91 775 68 752 c 1,13,-1
 8 784 l 1,14,15
 48 869 48 869 101 869 c 0,16,17
 122 869 122 869 152 855 c 128,-1,18
 182 841 182 841 196 841 c 0,19,20
 224 841 224 841 248 873 c 1,21,-1
 308 868 l 1,22,8
 305 828 305 828 276 792.5 c 128,-1,9
EndSplineSet
EndChar

StartChar: itilde
Encoding: 297 297 204
Width: 236
GlyphClass: 2
Flags: W
LayerCount: 2
Fore
SplineSet
69 477 m 1,0,-1
 183 466 l 1,1,-1
 183 -14 l 1,2,-1
 69 -3 l 1,3,-1
 69 477 l 1,0,-1
236 570.5 m 128,-1,5
 207 535 207 535 177.5 535 c 128,-1,6
 148 535 148 535 120 544 c 128,-1,7
 92 553 92 553 71.5 553 c 128,-1,8
 51 553 51 553 28 530 c 1,9,-1
 -32 562 l 1,10,11
 8 647 8 647 61 647 c 0,12,13
 82 647 82 647 112 633 c 128,-1,14
 142 619 142 619 156 619 c 0,15,16
 184 619 184 619 208 651 c 1,17,-1
 268 646 l 1,18,4
 265 606 265 606 236 570.5 c 128,-1,5
EndSplineSet
EndChar

StartChar: Idot
Encoding: 304 304 205
Width: 289
GlyphClass: 2
Flags: W
LayerCount: 2
Fore
SplineSet
233 692 m 1,0,1
 224 534 224 534 224 336 c 128,-1,2
 224 138 224 138 237 -25 c 1,3,-1
 102 -13 l 1,4,5
 89 191 89 191 89 355.5 c 128,-1,6
 89 520 89 520 98 704 c 1,7,-1
 233 692 l 1,0,1
222 901 m 1,8,9
 233 885 233 885 233 844.5 c 128,-1,10
 233 804 233 804 219 780 c 1,11,-1
 109 790 l 1,12,13
 118 840 118 840 118 866 c 128,-1,14
 118 892 118 892 117 910 c 1,15,-1
 222 901 l 1,8,9
EndSplineSet
EndChar

StartChar: dotlessi
Encoding: 305 305 206
Width: 236
GlyphClass: 2
Flags: W
LayerCount: 2
Fore
SplineSet
69 477 m 1,0,-1
 183 466 l 1,1,-1
 183 -14 l 1,2,-1
 69 -3 l 1,3,-1
 69 477 l 1,0,-1
EndSplineSet
EndChar

StartChar: IJ
Encoding: 306 306 207
Width: 679
GlyphClass: 2
Flags: W
LayerCount: 2
Fore
SplineSet
233 692 m 1,0,1
 224 534 224 534 224 336 c 128,-1,2
 224 138 224 138 237 -25 c 1,3,-1
 102 -13 l 1,4,5
 89 191 89 191 89 355.5 c 128,-1,6
 89 520 89 520 98 704 c 1,7,-1
 233 692 l 1,0,1
397 229 m 1,8,9
 393 209 393 209 393 177.5 c 128,-1,10
 393 146 393 146 406.5 119 c 128,-1,11
 420 92 420 92 442 92 c 0,12,13
 472 92 472 92 485.5 138.5 c 128,-1,14
 499 185 499 185 499 240 c 0,15,16
 499 470 499 470 481 701 c 1,17,-1
 622 689 l 1,18,19
 636 509 636 509 636 240 c 0,20,21
 636 150 636 150 597 68 c 0,22,23
 577 25 577 25 540.5 -2.5 c 128,-1,24
 504 -30 504 -30 457 -30 c 0,25,26
 373 -30 373 -30 322 28.5 c 128,-1,27
 271 87 271 87 271 174 c 0,28,29
 271 204 271 204 279 241 c 1,30,-1
 397 229 l 1,8,9
EndSplineSet
EndChar

StartChar: ij
Encoding: 307 307 208
Width: 488
GlyphClass: 2
Flags: W
LayerCount: 2
Fore
SplineSet
69 477 m 1,0,-1
 183 466 l 1,1,-1
 183 -14 l 1,2,-1
 69 -3 l 1,3,-1
 69 477 l 1,0,-1
77 653 m 1,4,-1
 189 640 l 1,5,-1
 179 528 l 1,6,-1
 67 542 l 1,7,-1
 77 653 l 1,4,-1
439 -5 m 0,8,9
 439 -120 439 -120 400 -182.5 c 128,-1,10
 361 -245 361 -245 306 -245 c 0,11,12
 282 -245 282 -245 246.5 -226 c 128,-1,13
 211 -207 211 -207 185 -175 c 1,14,-1
 220 -98 l 1,15,16
 259 -128 259 -128 278.5 -128 c 128,-1,17
 298 -128 298 -128 312.5 -98.5 c 128,-1,18
 327 -69 327 -69 327 -15 c 0,19,20
 327 326 327 326 322 468 c 1,21,-1
 430 457 l 1,22,23
 439 306 439 306 439 -5 c 0,8,9
328 653 m 1,24,-1
 440 640 l 1,25,-1
 430 528 l 1,26,-1
 318 542 l 1,27,-1
 328 653 l 1,24,-1
EndSplineSet
EndChar

StartChar: Jcircumflex
Encoding: 308 308 209
Width: 410
GlyphClass: 2
Flags: W
LayerCount: 2
Fore
SplineSet
128 229 m 1,0,1
 124 209 124 209 124 177.5 c 128,-1,2
 124 146 124 146 137.5 119 c 128,-1,3
 151 92 151 92 173 92 c 0,4,5
 203 92 203 92 216.5 138.5 c 128,-1,6
 230 185 230 185 230 240 c 0,7,8
 230 470 230 470 212 701 c 1,9,-1
 353 689 l 1,10,11
 367 509 367 509 367 240 c 0,12,13
 367 150 367 150 328 68 c 0,14,15
 308 25 308 25 271.5 -2.5 c 128,-1,16
 235 -30 235 -30 188 -30 c 0,17,18
 104 -30 104 -30 53 28.5 c 128,-1,19
 2 87 2 87 2 174 c 0,20,21
 2 204 2 204 10 241 c 1,22,-1
 128 229 l 1,0,1
245 894 m 1,23,-1
 313 889 l 1,24,25
 344 859 344 859 414 774 c 1,26,-1
 356 730 l 1,27,28
 304 776 304 776 275 800 c 1,29,30
 225 765 225 765 175 721 c 1,31,-1
 117 764 l 1,32,33
 189 845 189 845 245 894 c 1,23,-1
EndSplineSet
EndChar

StartChar: jcircumflex
Encoding: 309 309 210
Width: 252
GlyphClass: 2
Flags: W
LayerCount: 2
Fore
SplineSet
203 -5 m 0,0,1
 203 -120 203 -120 169.5 -182.5 c 128,-1,2
 136 -245 136 -245 90 -245 c 0,3,4
 63 -245 63 -245 21 -223 c 128,-1,5
 -21 -201 -21 -201 -51 -165 c 1,6,-1
 -16 -88 l 1,7,8
 23 -118 23 -118 42.5 -118 c 128,-1,9
 62 -118 62 -118 76.5 -91 c 128,-1,10
 91 -64 91 -64 91 -15 c 0,11,12
 91 326 91 326 86 468 c 1,13,-1
 194 457 l 1,14,15
 203 306 203 306 203 -5 c 0,0,1
99 672 m 1,16,-1
 167 667 l 1,17,18
 198 637 198 637 268 552 c 1,19,-1
 210 508 l 1,20,21
 158 554 158 554 129 578 c 1,22,23
 79 543 79 543 29 499 c 1,24,-1
 -29 542 l 1,25,26
 43 623 43 623 99 672 c 1,16,-1
EndSplineSet
EndChar

StartChar: kcommaaccent
Encoding: 311 311 211
Width: 410
GlyphClass: 2
Flags: W
LayerCount: 2
Fore
SplineSet
63 -8 m 1,0,1
 59 96 59 96 59 300 c 128,-1,2
 59 504 59 504 74 731 c 1,3,-1
 191 722 l 1,4,5
 176 477 176 477 176 250 c 1,6,7
 280 377 280 377 332 497 c 1,8,-1
 412 427 l 1,9,10
 367 322 367 322 292 219 c 1,11,12
 370 128 370 128 416 49 c 1,13,-1
 340 -23 l 1,14,15
 286 61 286 61 176 176 c 1,16,17
 176 65 176 65 180 -19 c 1,18,-1
 63 -8 l 1,0,1
175 -61 m 1,19,-1
 288 -92 l 1,20,21
 281 -128 281 -128 260.5 -161.5 c 128,-1,22
 240 -195 240 -195 200 -246 c 1,23,-1
 148 -238 l 1,24,25
 169 -136 169 -136 175 -61 c 1,19,-1
EndSplineSet
EndChar

StartChar: kgreenlandic
Encoding: 312 312 212
Width: 410
GlyphClass: 2
Flags: W
LayerCount: 2
Fore
SplineSet
63 -8 m 1,0,1
 59 96 59 96 59 231.5 c 128,-1,2
 59 367 59 367 74 481 c 1,3,-1
 191 472 l 1,4,5
 176 352 176 352 176 250 c 1,6,7
 280 377 280 377 332 497 c 1,8,-1
 412 427 l 1,9,10
 367 322 367 322 292 219 c 1,11,12
 370 128 370 128 416 49 c 1,13,-1
 340 -23 l 1,14,15
 286 61 286 61 176 176 c 1,16,17
 176 65 176 65 180 -19 c 1,18,-1
 63 -8 l 1,0,1
EndSplineSet
EndChar

StartChar: Ldotaccent
Encoding: 319 319 213
Width: 439
GlyphClass: 2
Flags: W
LayerCount: 2
Fore
SplineSet
85 6 m 1,0,1
 72 212 72 212 72 383.5 c 128,-1,2
 72 555 72 555 83 695 c 1,3,-1
 216 683 l 1,4,5
 201 511 201 511 201 354 c 128,-1,6
 201 197 201 197 206 123 c 1,7,8
 242 128 242 128 383 143 c 1,9,-1
 403 27 l 1,10,11
 328 18 328 18 191 -3 c 1,12,-1
 85 6 l 1,0,1
416 412 m 1,13,14
 427 396 427 396 427 355.5 c 128,-1,15
 427 315 427 315 413 291 c 1,16,-1
 303 301 l 1,17,18
 312 350 312 350 312 376.5 c 128,-1,19
 312 403 312 403 311 421 c 1,20,-1
 416 412 l 1,13,14
EndSplineSet
EndChar

StartChar: ldot
Encoding: 320 320 214
Width: 496
GlyphClass: 2
Flags: W
LayerCount: 2
Fore
SplineSet
196 722 m 1,0,1
 181 469 181 469 181 266 c 128,-1,2
 181 63 181 63 186 -19 c 1,3,-1
 68 -8 l 1,4,5
 64 96 64 96 64 287.5 c 128,-1,6
 64 479 64 479 79 731 c 1,7,-1
 196 722 l 1,0,1
351 357 m 1,8,9
 362 341 362 341 362 300.5 c 128,-1,10
 362 260 362 260 348 236 c 1,11,-1
 238 246 l 1,12,13
 247 295 247 295 247 321.5 c 128,-1,14
 247 348 247 348 246 366 c 1,15,-1
 351 357 l 1,8,9
EndSplineSet
EndChar

StartChar: Lslash
Encoding: 321 321 215
Width: 397
GlyphClass: 2
Flags: W
LayerCount: 2
Fore
SplineSet
72 385 m 2,0,1
 72 555 72 555 83 695 c 1,2,-1
 216 683 l 1,3,4
 205 550 205 550 202 438 c 1,5,6
 259 480 259 480 325 519 c 1,7,-1
 382 455 l 1,8,9
 295 410 295 410 201 340 c 1,10,11
 201 195 201 195 206 123 c 1,12,13
 242 128 242 128 383 143 c 1,14,-1
 403 27 l 1,15,16
 328 18 328 18 191 -3 c 1,17,-1
 85 6 l 1,18,19
 77 138 77 138 74 246 c 1,20,21
 50 225 50 225 28 201 c 1,22,-1
 -17 261 l 1,23,24
 29 308 29 308 72 345 c 1,25,-1
 72 385 l 2,0,1
EndSplineSet
EndChar

StartChar: lslash
Encoding: 322 322 216
Width: 271
GlyphClass: 2
Flags: W
LayerCount: 2
Fore
SplineSet
181 235 m 2,0,1
 181 63 181 63 186 -19 c 1,2,-1
 68 -8 l 1,3,4
 64 96 64 96 64 235 c 2,5,-1
 64 267 l 1,6,-1
 28 231 l 1,7,-1
 -17 291 l 1,8,9
 24 332 24 332 65 369 c 1,10,11
 68 554 68 554 79 731 c 1,12,-1
 196 722 l 1,13,14
 188 598 188 598 183 434 c 1,15,16
 218 456 218 456 255 479 c 1,17,-1
 312 415 l 1,18,19
 250 383 250 383 181 336 c 1,20,-1
 181 235 l 2,0,1
EndSplineSet
EndChar

StartChar: Nacute
Encoding: 323 323 217
Width: 544
GlyphClass: 2
Flags: W
LayerCount: 2
Fore
SplineSet
500 704 m 1,0,-1
 501 239 l 2,1,2
 501 124 501 124 493 -8 c 1,3,-1
 381 3 l 1,4,5
 252 296 252 296 170 442 c 1,6,7
 171 294 171 294 171 -30 c 1,8,-1
 54 -17 l 1,9,10
 51 45 51 45 51 103 c 0,11,12
 51 345 51 345 78 667 c 1,13,-1
 211 654 l 1,14,15
 310 381 310 381 389 239 c 1,16,17
 383 541 383 541 375 715 c 1,18,-1
 500 704 l 1,0,-1
218 737 m 1,19,-1
 173 794 l 1,20,21
 286 868 286 868 357 899 c 1,22,-1
 411 810 l 1,23,24
 316 787 316 787 218 737 c 1,19,-1
EndSplineSet
EndChar

StartChar: nacute
Encoding: 324 324 218
Width: 424
GlyphClass: 2
Flags: W
LayerCount: 2
Fore
SplineSet
257 476 m 0,0,1
 389 476 389 476 389 256 c 0,2,3
 389 140 389 140 376 10 c 1,4,-1
 259 21 l 1,5,6
 270 135 270 135 270 251.5 c 128,-1,7
 270 368 270 368 237 368 c 0,8,9
 221 368 221 368 196 287.5 c 128,-1,10
 171 207 171 207 165 130 c 1,11,12
 167 89 167 89 173 -18 c 1,13,-1
 56 -7 l 1,14,15
 45 134 45 134 45 241 c 128,-1,16
 45 348 45 348 51 433 c 1,17,-1
 125 425 l 1,18,19
 127 417 127 417 140 360 c 1,20,21
 198 476 198 476 257 476 c 0,0,1
148 515 m 1,22,-1
 103 572 l 1,23,24
 216 646 216 646 287 677 c 1,25,-1
 341 588 l 1,26,27
 246 565 246 565 148 515 c 1,22,-1
EndSplineSet
EndChar

StartChar: OE
Encoding: 338 338 219
Width: 705
GlyphClass: 2
Flags: W
LayerCount: 2
Fore
SplineSet
263 -34 m 0,0,1
 165 -34 165 -34 99.5 51.5 c 128,-1,2
 34 137 34 137 34 311.5 c 128,-1,3
 34 486 34 486 105.5 596 c 128,-1,4
 177 706 177 706 275 706 c 0,5,6
 343 706 343 706 395 663 c 1,7,8
 561 688 561 688 719 688 c 1,9,-1
 719 565 l 1,10,11
 600 565 600 565 499 558 c 1,12,13
 495 446 495 446 494 386 c 1,14,15
 574 397 574 397 684 399 c 1,16,-1
 703 289 l 1,17,18
 633 288 633 288 492 274 c 1,19,20
 492 154 492 154 493 101 c 1,21,22
 583 108 583 108 711 131 c 1,23,-1
 728 21 l 1,24,25
 643 -18 643 -18 527 -18 c 1,26,-1
 373 -4 l 1,27,28
 373 -2 373 -2 372.5 3 c 128,-1,29
 372 8 372 8 372 10 c 1,30,31
 319 -34 319 -34 263 -34 c 0,0,1
199 509.5 m 128,-1,33
 167 432 167 432 167 314.5 c 128,-1,34
 167 197 167 197 194.5 140.5 c 128,-1,35
 222 84 222 84 263 84 c 128,-1,36
 304 84 304 84 335.5 162 c 128,-1,37
 367 240 367 240 367 357.5 c 128,-1,38
 367 475 367 475 340.5 531 c 128,-1,39
 314 587 314 587 275 587 c 0,40,32
 231 587 231 587 199 509.5 c 128,-1,33
EndSplineSet
EndChar

StartChar: oe
Encoding: 339 339 220
Width: 559
GlyphClass: 2
Flags: W
LayerCount: 2
Fore
SplineSet
118.5 444.5 m 128,-1,1
 155 473 155 473 208.5 473 c 128,-1,2
 262 473 262 473 302 431 c 1,3,4
 345 477 345 477 406 477 c 0,5,6
 461 477 461 477 498 436 c 1,7,8
 523 410 523 410 540 342 c 1,9,10
 551 293 551 293 551 200 c 1,11,12
 471 178 471 178 344 160 c 1,13,14
 347 120 347 120 358 96 c 128,-1,15
 369 72 369 72 384 72 c 0,16,17
 422 72 422 72 465 145 c 1,18,-1
 541 100 l 1,19,20
 522 67 522 67 504.5 44 c 128,-1,21
 487 21 487 21 452 0 c 128,-1,22
 417 -21 417 -21 370 -21 c 128,-1,23
 323 -21 323 -21 284 15 c 1,24,25
 243 -26 243 -26 191 -26 c 0,26,27
 24 -26 24 -26 24 189 c 0,28,29
 24 282 24 282 62 371 c 0,30,0
 82 416 82 416 118.5 444.5 c 128,-1,1
141 180 m 0,31,32
 141 67 141 67 191 67 c 0,33,34
 213 67 213 67 228 130.5 c 128,-1,35
 243 194 243 194 243 252 c 0,36,37
 243 380 243 380 201 380 c 0,38,39
 174 380 174 380 157.5 311.5 c 128,-1,40
 141 243 141 243 141 180 c 0,31,32
406 379 m 0,41,42
 384 379 384 379 366.5 335 c 128,-1,43
 349 291 349 291 346 233 c 1,44,45
 399 244 399 244 438 254 c 1,46,47
 438 379 438 379 406 379 c 0,41,42
EndSplineSet
EndChar

StartChar: Racute
Encoding: 340 340 221
Width: 525
GlyphClass: 2
Flags: W
LayerCount: 2
Fore
SplineSet
62 -9 m 1,0,1
 75 231 75 231 75 419 c 128,-1,2
 75 607 75 607 74 666 c 1,3,4
 184 718 184 718 303 718 c 0,5,6
 391 718 391 718 450.5 662 c 128,-1,7
 510 606 510 606 510 504 c 0,8,9
 510 386 510 386 343 277 c 1,10,11
 434 163 434 163 529 26 c 1,12,-1
 433 -45 l 1,13,14
 370 50 370 50 207 265 c 1,15,16
 204 111 204 111 198 -24 c 1,17,-1
 62 -9 l 1,0,1
336 419.5 m 128,-1,19
 388 471 388 471 388 513 c 128,-1,20
 388 555 388 555 363.5 578 c 128,-1,21
 339 601 339 601 299 601 c 128,-1,22
 259 601 259 601 211 584 c 1,23,24
 211 415 211 415 210 333 c 1,25,18
 284 368 284 368 336 419.5 c 128,-1,19
239 737 m 1,26,-1
 194 794 l 1,27,28
 307 868 307 868 378 899 c 1,29,-1
 432 810 l 1,30,31
 337 787 337 787 239 737 c 1,26,-1
EndSplineSet
EndChar

StartChar: Rcommaaccent
Encoding: 342 342 222
Width: 525
GlyphClass: 2
Flags: W
LayerCount: 2
Fore
SplineSet
62 -9 m 1,0,1
 75 231 75 231 75 419 c 128,-1,2
 75 607 75 607 74 666 c 1,3,4
 184 718 184 718 303 718 c 0,5,6
 391 718 391 718 450.5 662 c 128,-1,7
 510 606 510 606 510 504 c 0,8,9
 510 386 510 386 343 277 c 1,10,11
 434 163 434 163 529 26 c 1,12,-1
 433 -45 l 1,13,14
 370 50 370 50 207 265 c 1,15,16
 204 111 204 111 198 -24 c 1,17,-1
 62 -9 l 1,0,1
336 419.5 m 128,-1,19
 388 471 388 471 388 513 c 128,-1,20
 388 555 388 555 363.5 578 c 128,-1,21
 339 601 339 601 299 601 c 128,-1,22
 259 601 259 601 211 584 c 1,23,24
 211 415 211 415 210 333 c 1,25,18
 284 368 284 368 336 419.5 c 128,-1,19
229 -61 m 1,26,-1
 342 -92 l 1,27,28
 335 -128 335 -128 314.5 -161.5 c 128,-1,29
 294 -195 294 -195 254 -246 c 1,30,-1
 202 -238 l 1,31,32
 223 -136 223 -136 229 -61 c 1,26,-1
EndSplineSet
EndChar

StartChar: rcommaaccent
Encoding: 343 343 223
Width: 301
GlyphClass: 2
Flags: W
LayerCount: 2
Fore
SplineSet
239 361 m 0,0,1
 197 361 197 361 176 255 c 1,2,3
 178 185 178 185 178 121 c 128,-1,4
 178 57 178 57 174 -23 c 1,5,-1
 58 -13 l 1,6,7
 61 134 61 134 61 149 c 0,8,9
 61 334 61 334 43 432 c 1,10,-1
 118 424 l 1,11,12
 125 395 125 395 134 373 c 1,13,14
 183 478 183 478 233 478 c 0,15,16
 274 478 274 478 305 442 c 1,17,-1
 279 350 l 1,18,19
 263 361 263 361 239 361 c 0,0,1
57 -61 m 1,20,-1
 170 -92 l 1,21,22
 163 -128 163 -128 142.5 -161.5 c 128,-1,23
 122 -195 122 -195 82 -246 c 1,24,-1
 30 -238 l 1,25,26
 51 -136 51 -136 57 -61 c 1,20,-1
EndSplineSet
EndChar

StartChar: Rcaron
Encoding: 344 344 224
Width: 525
GlyphClass: 2
Flags: W
LayerCount: 2
Fore
SplineSet
62 -9 m 1,0,1
 75 231 75 231 75 419 c 128,-1,2
 75 607 75 607 74 666 c 1,3,4
 184 718 184 718 303 718 c 0,5,6
 391 718 391 718 450.5 662 c 128,-1,7
 510 606 510 606 510 504 c 0,8,9
 510 386 510 386 343 277 c 1,10,11
 434 163 434 163 529 26 c 1,12,-1
 433 -45 l 1,13,14
 370 50 370 50 207 265 c 1,15,16
 204 111 204 111 198 -24 c 1,17,-1
 62 -9 l 1,0,1
336 419.5 m 128,-1,19
 388 471 388 471 388 513 c 128,-1,20
 388 555 388 555 363.5 578 c 128,-1,21
 339 601 339 601 299 601 c 128,-1,22
 259 601 259 601 211 584 c 1,23,24
 211 415 211 415 210 333 c 1,25,18
 284 368 284 368 336 419.5 c 128,-1,19
323 741 m 1,26,-1
 255 746 l 1,27,28
 224 776 224 776 154 861 c 1,29,-1
 212 905 l 1,30,31
 264 859 264 859 293 835 c 1,32,33
 343 870 343 870 393 914 c 1,34,-1
 451 871 l 1,35,36
 379 790 379 790 323 741 c 1,26,-1
EndSplineSet
EndChar

StartChar: rcaron
Encoding: 345 345 225
Width: 301
GlyphClass: 2
Flags: W
LayerCount: 2
Fore
SplineSet
239 361 m 0,0,1
 197 361 197 361 176 255 c 1,2,3
 178 185 178 185 178 121 c 128,-1,4
 178 57 178 57 174 -23 c 1,5,-1
 58 -13 l 1,6,7
 61 134 61 134 61 149 c 0,8,9
 61 334 61 334 43 432 c 1,10,-1
 118 424 l 1,11,12
 125 395 125 395 134 373 c 1,13,14
 183 478 183 478 233 478 c 0,15,16
 274 478 274 478 305 442 c 1,17,-1
 279 350 l 1,18,19
 263 361 263 361 239 361 c 0,0,1
191 519 m 1,20,-1
 123 524 l 1,21,22
 92 554 92 554 22 639 c 1,23,-1
 80 683 l 1,24,25
 132 637 132 637 161 613 c 1,26,27
 211 648 211 648 261 692 c 1,28,-1
 319 649 l 1,29,30
 247 568 247 568 191 519 c 1,20,-1
EndSplineSet
EndChar

StartChar: Scedilla
Encoding: 350 350 226
Width: 444
GlyphClass: 2
Flags: W
LayerCount: 2
Fore
SplineSet
302 437 m 1,0,1
 315 486 315 486 315 519 c 128,-1,2
 315 552 315 552 297 573.5 c 128,-1,3
 279 595 279 595 250.5 595 c 128,-1,4
 222 595 222 595 203 567 c 128,-1,5
 184 539 184 539 184 503 c 0,6,7
 184 433 184 433 264 383 c 1,8,9
 344 331 344 331 373 308 c 128,-1,10
 402 285 402 285 414 266 c 0,11,12
 444 217 444 217 444 165 c 0,13,14
 444 78 444 78 388 25.5 c 128,-1,15
 332 -27 332 -27 258 -31 c 1,16,17
 260 -49 260 -49 266 -65 c 1,18,19
 278 -62 278 -62 289 -62 c 0,20,21
 323 -62 323 -62 348.5 -83 c 128,-1,22
 374 -104 374 -104 374 -144.5 c 128,-1,23
 374 -185 374 -185 341 -208.5 c 128,-1,24
 308 -232 308 -232 239 -232 c 128,-1,25
 170 -232 170 -232 113 -189 c 1,26,-1
 131 -144 l 1,27,28
 200 -181 200 -181 246 -181 c 0,29,30
 263 -181 263 -181 275.5 -173.5 c 128,-1,31
 288 -166 288 -166 288 -153.5 c 128,-1,32
 288 -141 288 -141 278 -133 c 128,-1,33
 268 -125 268 -125 253.5 -125 c 128,-1,34
 239 -125 239 -125 225 -132 c 1,35,-1
 197 -129 l 1,36,37
 198 -71 198 -71 214 -29 c 1,38,39
 97 -7 97 -7 15 181 c 1,40,-1
 112 228 l 1,41,42
 135 168 135 168 169.5 126.5 c 128,-1,43
 204 85 204 85 243 85 c 0,44,45
 268 85 268 85 288 101 c 128,-1,46
 308 117 308 117 308 149.5 c 128,-1,47
 308 182 308 182 283 210 c 128,-1,48
 258 238 258 238 216 267 c 128,-1,49
 174 296 174 296 151 314.5 c 128,-1,50
 128 333 128 333 100 362 c 0,51,52
 47 418 47 418 47 505.5 c 128,-1,53
 47 593 47 593 108 652.5 c 128,-1,54
 169 712 169 712 253 712 c 128,-1,55
 337 712 337 712 394.5 647 c 128,-1,56
 452 582 452 582 452 513.5 c 128,-1,57
 452 445 452 445 426 396 c 1,58,-1
 302 437 l 1,0,1
EndSplineSet
EndChar

StartChar: scedilla
Encoding: 351 351 227
Width: 347
GlyphClass: 2
Flags: W
LayerCount: 2
Fore
SplineSet
237 315 m 0,0,1
 237 375 237 375 207 375 c 0,2,3
 192 375 192 375 179.5 360.5 c 128,-1,4
 167 346 167 346 167 321.5 c 128,-1,5
 167 297 167 297 176.5 281 c 128,-1,6
 186 265 186 265 211.5 249.5 c 128,-1,7
 237 234 237 234 251.5 224.5 c 128,-1,8
 266 215 266 215 286 198 c 0,9,10
 327 162 327 162 327 106 c 128,-1,11
 327 50 327 50 286 15.5 c 128,-1,12
 245 -19 245 -19 191 -21 c 1,13,14
 191 -41 191 -41 199 -65 c 1,15,16
 211 -62 211 -62 222 -62 c 0,17,18
 256 -62 256 -62 281.5 -83 c 128,-1,19
 307 -104 307 -104 307 -144.5 c 128,-1,20
 307 -185 307 -185 274 -208.5 c 128,-1,21
 241 -232 241 -232 172 -232 c 128,-1,22
 103 -232 103 -232 46 -189 c 1,23,-1
 64 -144 l 1,24,25
 133 -181 133 -181 179 -181 c 0,26,27
 196 -181 196 -181 208.5 -173.5 c 128,-1,28
 221 -166 221 -166 221 -153.5 c 128,-1,29
 221 -141 221 -141 211 -133 c 128,-1,30
 201 -125 201 -125 186.5 -125 c 128,-1,31
 172 -125 172 -125 158 -132 c 1,32,-1
 130 -129 l 1,33,34
 131 -65 131 -65 151 -17 c 1,35,36
 71 2 71 2 25 79 c 1,37,-1
 79 140 l 1,38,39
 119 71 119 71 163 71 c 0,40,41
 178 71 178 71 189 79.5 c 128,-1,42
 200 88 200 88 200 103 c 0,43,44
 200 135 200 135 154 162 c 1,45,46
 105 189 105 189 77 222 c 128,-1,47
 49 255 49 255 49 315.5 c 128,-1,48
 49 376 49 376 99 424.5 c 128,-1,49
 149 473 149 473 206.5 473 c 128,-1,50
 264 473 264 473 297.5 433.5 c 128,-1,51
 331 394 331 394 331 327 c 0,52,53
 331 300 331 300 325 269 c 1,54,-1
 234 277 l 1,55,56
 237 300 237 300 237 315 c 0,0,1
EndSplineSet
EndChar

StartChar: Scaron
Encoding: 352 352 228
Width: 475
GlyphClass: 2
Flags: W
LayerCount: 2
Fore
SplineSet
302 437 m 1,0,1
 315 486 315 486 315 519 c 128,-1,2
 315 552 315 552 297 573.5 c 128,-1,3
 279 595 279 595 250.5 595 c 128,-1,4
 222 595 222 595 203 567 c 128,-1,5
 184 539 184 539 184 503 c 0,6,7
 184 433 184 433 264 383 c 1,8,9
 344 331 344 331 373 308 c 128,-1,10
 402 285 402 285 414 266 c 0,11,12
 444 217 444 217 444 165 c 0,13,14
 444 75 444 75 383.5 21.5 c 128,-1,15
 323 -32 323 -32 247 -32 c 0,16,17
 157 -32 157 -32 96 44 c 0,18,19
 52 99 52 99 15 181 c 1,20,-1
 112 228 l 1,21,22
 135 168 135 168 169.5 126.5 c 128,-1,23
 204 85 204 85 243 85 c 0,24,25
 268 85 268 85 288 101 c 128,-1,26
 308 117 308 117 308 149.5 c 128,-1,27
 308 182 308 182 283 210 c 128,-1,28
 258 238 258 238 216 267 c 128,-1,29
 174 296 174 296 151 314.5 c 128,-1,30
 128 333 128 333 100 362 c 0,31,32
 47 418 47 418 47 505.5 c 128,-1,33
 47 593 47 593 108 652.5 c 128,-1,34
 169 712 169 712 253 712 c 128,-1,35
 337 712 337 712 394.5 647 c 128,-1,36
 452 582 452 582 452 513.5 c 128,-1,37
 452 445 452 445 426 396 c 1,38,-1
 302 437 l 1,0,1
286 770 m 1,39,-1
 218 775 l 1,40,41
 187 805 187 805 117 890 c 1,42,-1
 175 934 l 1,43,44
 227 888 227 888 256 864 c 1,45,46
 306 899 306 899 356 943 c 1,47,-1
 414 900 l 1,48,49
 342 819 342 819 286 770 c 1,39,-1
EndSplineSet
EndChar

StartChar: scaron
Encoding: 353 353 229
Width: 347
GlyphClass: 2
Flags: W
LayerCount: 2
Fore
SplineSet
237 315 m 0,0,1
 237 375 237 375 207 375 c 0,2,3
 192 375 192 375 179.5 360.5 c 128,-1,4
 167 346 167 346 167 321.5 c 128,-1,5
 167 297 167 297 176.5 281 c 128,-1,6
 186 265 186 265 211.5 249.5 c 128,-1,7
 237 234 237 234 251.5 224.5 c 128,-1,8
 266 215 266 215 286 198 c 0,9,10
 327 162 327 162 327 105.5 c 128,-1,11
 327 49 327 49 284.5 14 c 128,-1,12
 242 -21 242 -21 189 -21 c 128,-1,13
 136 -21 136 -21 93.5 7.5 c 128,-1,14
 51 36 51 36 25 79 c 1,15,-1
 79 140 l 1,16,17
 119 71 119 71 163 71 c 0,18,19
 178 71 178 71 189 79.5 c 128,-1,20
 200 88 200 88 200 103 c 0,21,22
 200 135 200 135 154 162 c 1,23,24
 105 189 105 189 77 222 c 128,-1,25
 49 255 49 255 49 315.5 c 128,-1,26
 49 376 49 376 99 424.5 c 128,-1,27
 149 473 149 473 206.5 473 c 128,-1,28
 264 473 264 473 297.5 433.5 c 128,-1,29
 331 394 331 394 331 327 c 0,30,31
 331 300 331 300 325 269 c 1,32,-1
 234 277 l 1,33,34
 237 300 237 300 237 315 c 0,0,1
230 519 m 1,35,-1
 162 524 l 1,36,37
 131 554 131 554 61 639 c 1,38,-1
 119 683 l 1,39,40
 171 637 171 637 200 613 c 1,41,42
 250 648 250 648 300 692 c 1,43,-1
 358 649 l 1,44,45
 286 568 286 568 230 519 c 1,35,-1
EndSplineSet
EndChar

StartChar: Ydieresis
Encoding: 376 376 230
Width: 444
GlyphClass: 2
Flags: W
LayerCount: 2
Fore
SplineSet
161 191 m 2,0,-1
 161 268 l 1,1,2
 30 545 30 545 16 667 c 1,3,-1
 141 655 l 1,4,5
 163 543 163 543 233 387 c 1,6,7
 316 568 316 568 362 714 c 1,8,-1
 478 703 l 1,9,10
 404 492 404 492 300 274 c 1,11,12
 298 184 298 184 298 116 c 128,-1,13
 298 48 298 48 302 -21 c 1,14,-1
 170 -7 l 1,15,16
 161 86 161 86 161 191 c 2,0,-1
223 900 m 1,17,18
 234 884 234 884 234 842 c 128,-1,19
 234 800 234 800 220 778 c 1,20,-1
 125 788 l 1,21,22
 134 838 134 838 134 864 c 128,-1,23
 134 890 134 890 133 908 c 1,24,-1
 223 900 l 1,17,18
378 902 m 1,25,26
 389 886 389 886 389 844 c 128,-1,27
 389 802 389 802 375 780 c 1,28,-1
 280 790 l 1,29,30
 289 840 289 840 289 866 c 128,-1,31
 289 892 289 892 288 910 c 1,32,-1
 378 902 l 1,25,26
EndSplineSet
EndChar

StartChar: Zcaron
Encoding: 381 381 231
Width: 458
GlyphClass: 2
Flags: W
LayerCount: 2
Fore
SplineSet
193 122 m 1,0,1
 229 125 229 125 288 125 c 128,-1,2
 347 125 347 125 440 111 c 1,3,-1
 423 -8 l 1,4,5
 310 7 310 7 248.5 7 c 128,-1,6
 187 7 187 7 55 -15 c 1,7,-1
 39 90 l 1,8,9
 227 390 227 390 315 562 c 1,10,11
 177 554 177 554 74 539 c 1,12,-1
 55 656 l 1,13,14
 178 682 178 682 448 685 c 1,15,-1
 465 598 l 1,16,17
 317 316 317 316 193 122 c 1,0,1
283 770 m 1,18,-1
 215 775 l 1,19,20
 184 805 184 805 114 890 c 1,21,-1
 172 934 l 1,22,23
 224 888 224 888 253 864 c 1,24,25
 303 899 303 899 353 943 c 1,26,-1
 411 900 l 1,27,28
 339 819 339 819 283 770 c 1,18,-1
EndSplineSet
EndChar

StartChar: zcaron
Encoding: 382 382 232
Width: 344
GlyphClass: 2
Flags: W
LayerCount: 2
Fore
SplineSet
55 461 m 1,0,1
 135 477 135 477 202.5 477 c 128,-1,2
 270 477 270 477 310 474 c 1,3,-1
 326 382 l 1,4,5
 238 259 238 259 152 104 c 1,6,-1
 200 104 l 2,7,8
 265 104 265 104 328 97 c 1,9,-1
 315 5 l 1,10,11
 253 11 253 11 203 11 c 128,-1,12
 153 11 153 11 62 -4 c 1,13,-1
 44 99 l 1,14,15
 157 308 157 308 211 381 c 1,16,17
 125 374 125 374 74 362 c 1,18,-1
 55 461 l 1,0,1
218 519 m 1,19,-1
 150 524 l 1,20,21
 119 554 119 554 49 639 c 1,22,-1
 107 683 l 1,23,24
 159 637 159 637 188 613 c 1,25,26
 238 648 238 648 288 692 c 1,27,-1
 346 649 l 1,28,29
 274 568 274 568 218 519 c 1,19,-1
EndSplineSet
EndChar

StartChar: florin
Encoding: 402 402 233
Width: 487
GlyphClass: 2
Flags: W
LayerCount: 2
Fore
SplineSet
343 662 m 0,0,1
 391 662 391 662 421.5 623 c 128,-1,2
 452 584 452 584 452 526.5 c 128,-1,3
 452 469 452 469 436 414 c 1,4,-1
 338 423 l 1,5,6
 345 447 345 447 345 476 c 0,7,8
 345 535 345 535 323 535 c 0,9,10
 300 535 300 535 276 456 c 0,11,12
 263 416 263 416 257 365 c 2,13,-1
 250 307 l 1,14,15
 303 311 303 311 362 311 c 1,16,-1
 352 218 l 1,17,18
 280 218 280 218 241 213 c 1,19,20
 227 49 227 49 214 -44.5 c 128,-1,21
 201 -138 201 -138 154.5 -191.5 c 128,-1,22
 108 -245 108 -245 47.5 -245 c 128,-1,23
 -13 -245 -13 -245 -59 -185 c 1,24,-1
 -14 -108 l 1,25,26
 21 -130 21 -130 42 -130 c 0,27,28
 83 -130 83 -130 98 -5 c 0,29,30
 103 34 103 34 109 104.5 c 128,-1,31
 115 175 115 175 117 197 c 1,32,33
 68 189 68 189 41 180 c 1,34,-1
 40 270 l 1,35,36
 68 280 68 280 126 291 c 1,37,-1
 136 365 l 2,38,39
 154 501 154 501 213 581.5 c 128,-1,40
 272 662 272 662 343 662 c 0,0,1
EndSplineSet
EndChar

StartChar: dotlessj
Encoding: 567 567 234
Width: 252
GlyphClass: 2
Flags: W
LayerCount: 2
Fore
SplineSet
203 -5 m 0,0,1
 203 -120 203 -120 164 -182.5 c 128,-1,2
 125 -245 125 -245 70 -245 c 0,3,4
 46 -245 46 -245 10.5 -226 c 128,-1,5
 -25 -207 -25 -207 -51 -175 c 1,6,-1
 -16 -98 l 1,7,8
 23 -128 23 -128 42.5 -128 c 128,-1,9
 62 -128 62 -128 76.5 -98.5 c 128,-1,10
 91 -69 91 -69 91 -15 c 0,11,12
 91 326 91 326 86 468 c 1,13,-1
 194 457 l 1,14,15
 203 306 203 306 203 -5 c 0,0,1
EndSplineSet
EndChar

StartChar: circumflex
Encoding: 710 710 235
Width: 500
GlyphClass: 2
Flags: W
LayerCount: 2
Fore
SplineSet
223 672 m 1,0,-1
 291 667 l 1,1,2
 322 637 322 637 392 552 c 1,3,-1
 334 508 l 1,4,5
 282 554 282 554 253 578 c 1,6,7
 203 543 203 543 153 499 c 1,8,-1
 95 542 l 1,9,10
 167 623 167 623 223 672 c 1,0,-1
EndSplineSet
EndChar

StartChar: caron
Encoding: 711 711 236
Width: 500
GlyphClass: 2
Flags: W
LayerCount: 2
Fore
SplineSet
276 519 m 1,0,-1
 208 524 l 1,1,2
 177 554 177 554 107 639 c 1,3,-1
 165 683 l 1,4,5
 217 637 217 637 246 613 c 1,6,7
 296 648 296 648 346 692 c 1,8,-1
 404 649 l 1,9,10
 332 568 332 568 276 519 c 1,0,-1
EndSplineSet
EndChar

StartChar: breve
Encoding: 728 728 237
Width: 500
GlyphClass: 2
Flags: W
LayerCount: 2
Fore
SplineSet
208 609 m 128,-1,1
 221 593 221 593 244.5 593 c 128,-1,2
 268 593 268 593 287 613 c 128,-1,3
 306 633 306 633 306 661 c 1,4,-1
 381 655 l 1,5,6
 381 603 381 603 339 562 c 128,-1,7
 297 521 297 521 241.5 521 c 128,-1,8
 186 521 186 521 153 558 c 128,-1,9
 120 595 120 595 120 655 c 1,10,-1
 195 649 l 1,11,0
 195 625 195 625 208 609 c 128,-1,1
EndSplineSet
EndChar

StartChar: dotaccent
Encoding: 729 729 238
Width: 500
GlyphClass: 2
Flags: W
LayerCount: 2
Fore
SplineSet
299 650 m 1,0,1
 310 634 310 634 310 593.5 c 128,-1,2
 310 553 310 553 296 529 c 1,3,-1
 186 539 l 1,4,5
 195 588 195 588 195 614.5 c 128,-1,6
 195 641 195 641 194 659 c 1,7,-1
 299 650 l 1,0,1
EndSplineSet
EndChar

StartChar: ring
Encoding: 730 730 239
Width: 500
GlyphClass: 2
Flags: W
LayerCount: 2
Fore
SplineSet
215 577.5 m 128,-1,1
 226 566 226 566 246.5 566 c 128,-1,2
 267 566 267 566 281.5 585.5 c 128,-1,3
 296 605 296 605 296 627 c 128,-1,4
 296 649 296 649 285 660 c 128,-1,5
 274 671 274 671 253.5 671 c 128,-1,6
 233 671 233 671 218.5 652 c 128,-1,7
 204 633 204 633 204 611 c 128,-1,0
 204 589 204 589 215 577.5 c 128,-1,1
331 548 m 128,-1,9
 296 511 296 511 245.5 511 c 128,-1,10
 195 511 195 511 164.5 537.5 c 128,-1,11
 134 564 134 564 134 608 c 128,-1,12
 134 652 134 652 169 689 c 128,-1,13
 204 726 204 726 254.5 726 c 128,-1,14
 305 726 305 726 335.5 699.5 c 128,-1,15
 366 673 366 673 366 629 c 128,-1,8
 366 585 366 585 331 548 c 128,-1,9
EndSplineSet
EndChar

StartChar: ogonek
Encoding: 731 731 240
Width: 500
GlyphClass: 2
Flags: W
LayerCount: 2
Fore
SplineSet
254 -131 m 0,0,1
 254 -153 254 -153 273 -153 c 0,2,3
 303 -153 303 -153 334 -122 c 1,4,-1
 380 -150 l 1,5,6
 327 -228 327 -228 258 -228 c 0,7,8
 221 -228 221 -228 192.5 -201.5 c 128,-1,9
 164 -175 164 -175 164 -131 c 0,10,11
 164 -57 164 -57 276 8 c 1,12,-1
 351 1 l 1,13,14
 254 -64 254 -64 254 -131 c 0,0,1
EndSplineSet
EndChar

StartChar: tilde
Encoding: 732 732 241
Width: 500
GlyphClass: 2
Flags: W
LayerCount: 2
Fore
SplineSet
373 570.5 m 128,-1,1
 344 535 344 535 314.5 535 c 128,-1,2
 285 535 285 535 257 544 c 128,-1,3
 229 553 229 553 208.5 553 c 128,-1,4
 188 553 188 553 165 530 c 1,5,-1
 105 562 l 1,6,7
 145 647 145 647 198 647 c 0,8,9
 218 647 218 647 248 633 c 128,-1,10
 278 619 278 619 293 619 c 0,11,12
 321 619 321 619 345 651 c 1,13,-1
 405 646 l 1,14,0
 402 606 402 606 373 570.5 c 128,-1,1
EndSplineSet
EndChar

StartChar: hungarumlaut
Encoding: 733 733 242
Width: 500
GlyphClass: 2
Flags: W
LayerCount: 2
Fore
SplineSet
131 515 m 1,0,-1
 76 562 l 1,1,2
 158 648 158 648 220 692 c 1,3,-1
 294 623 l 1,4,5
 213 590 213 590 131 515 c 1,0,-1
320 513 m 1,6,-1
 272 567 l 1,7,8
 362 640 362 640 431 677 c 1,9,-1
 496 598 l 1,10,11
 411 577 411 577 320 513 c 1,6,-1
EndSplineSet
EndChar

StartChar: dotaccentcmb
Encoding: 775 775 243
Width: 500
GlyphClass: 2
Flags: W
LayerCount: 2
Fore
SplineSet
299 650 m 1,0,1
 310 634 310 634 310 593.5 c 128,-1,2
 310 553 310 553 296 529 c 1,3,-1
 186 539 l 1,4,5
 195 588 195 588 195 614.5 c 128,-1,6
 195 641 195 641 194 659 c 1,7,-1
 299 650 l 1,0,1
EndSplineSet
EndChar

StartChar: Omega
Encoding: 937 937 244
AltUni2: 002126.ffffffff.0
Width: 558
GlyphClass: 2
Flags: W
LayerCount: 2
Fore
SplineSet
384 382 m 0,0,1
 384 485 384 485 357.5 536 c 128,-1,2
 331 587 331 587 289.5 587 c 128,-1,3
 248 587 248 587 216 515.5 c 128,-1,4
 184 444 184 444 184 330 c 0,5,6
 184 155 184 155 250 74 c 1,7,8
 247 60 247 60 240 34.5 c 128,-1,9
 233 9 233 9 231 -4 c 1,10,11
 206 -6 206 -6 147.5 -16.5 c 128,-1,12
 89 -27 89 -27 56 -28 c 1,13,-1
 36 78 l 1,14,15
 63 81 63 81 119 91 c 1,16,17
 51 182 51 182 51 339.5 c 128,-1,18
 51 497 51 497 122.5 601.5 c 128,-1,19
 194 706 194 706 291 706 c 128,-1,20
 388 706 388 706 452.5 625 c 128,-1,21
 517 544 517 544 517 382 c 0,22,23
 517 297 517 297 489.5 214 c 128,-1,24
 462 131 462 131 419 80 c 1,25,26
 460 85 460 85 510 96 c 1,27,-1
 530 -10 l 1,28,29
 509 -13 509 -13 418 -30 c 1,30,-1
 312 -21 l 1,31,32
 308 20 308 20 305 67 c 1,33,34
 384 175 384 175 384 382 c 0,0,1
EndSplineSet
EndChar

StartChar: pi
Encoding: 960 960 245
Width: 563
GlyphClass: 2
Flags: W
LayerCount: 2
Fore
SplineSet
118 355 m 1,0,1
 92 351 92 351 50 348 c 1,2,-1
 28 449 l 1,3,4
 151 466 151 466 272 474 c 1,5,-1
 509 484 l 1,6,-1
 528 388 l 1,7,8
 477 388 477 388 452 387 c 1,9,10
 459 304 459 304 459 199 c 128,-1,11
 459 94 459 94 446 -14 c 1,12,-1
 332 -3 l 1,13,14
 339 98 339 98 339 197 c 128,-1,15
 339 296 339 296 336 378 c 1,16,17
 266 372 266 372 231 368 c 1,18,-1
 230 302 l 1,19,20
 230 150 230 150 243 -26 c 1,21,-1
 129 -15 l 1,22,23
 118 151 118 151 118 355 c 1,0,1
EndSplineSet
EndChar

StartChar: endash
Encoding: 8211 8211 246
Width: 500
GlyphClass: 2
Flags: W
LayerCount: 2
Fore
SplineSet
0 268 m 1,0,-1
 260 276 l 1,1,2
 409 276 409 276 501 265 c 1,3,-1
 483 185 l 1,4,5
 402 196 402 196 270 196 c 1,6,-1
 0 188 l 1,7,-1
 0 268 l 1,0,-1
EndSplineSet
EndChar

StartChar: emdash
Encoding: 8212 8212 247
Width: 1000
GlyphClass: 2
Flags: W
LayerCount: 2
Fore
SplineSet
0 268 m 1,0,-1
 560 276 l 1,1,2
 834 276 834 276 1001 265 c 1,3,-1
 983 185 l 1,4,5
 827 196 827 196 570 196 c 1,6,-1
 0 188 l 1,7,-1
 0 268 l 1,0,-1
EndSplineSet
EndChar

StartChar: quoteleft
Encoding: 8216 8216 248
Width: 208
GlyphClass: 2
Flags: W
LayerCount: 2
Fore
SplineSet
85 716 m 1,0,-1
 187 704 l 1,1,2
 180 588 180 588 150 422 c 1,3,-1
 32 458 l 1,4,5
 73 582 73 582 85 716 c 1,0,-1
EndSplineSet
EndChar

StartChar: quoteright
Encoding: 8217 8217 249
Width: 208
GlyphClass: 2
Flags: W
LayerCount: 2
Fore
SplineSet
142 432 m 1,0,-1
 40 444 l 1,1,2
 47 560 47 560 77 726 c 1,3,-1
 195 690 l 1,4,5
 154 566 154 566 142 432 c 1,0,-1
EndSplineSet
EndChar

StartChar: quotesinglbase
Encoding: 8218 8218 250
Width: 208
GlyphClass: 2
Flags: W
LayerCount: 2
Fore
SplineSet
124 -108 m 1,0,-1
 22 -96 l 1,1,2
 29 20 29 20 59 186 c 1,3,-1
 177 150 l 1,4,5
 136 26 136 26 124 -108 c 1,0,-1
EndSplineSet
EndChar

StartChar: quotedblleft
Encoding: 8220 8220 251
Width: 390
GlyphClass: 2
Flags: W
LayerCount: 2
Fore
SplineSet
85 716 m 1,0,-1
 187 704 l 1,1,2
 180 588 180 588 150 422 c 1,3,-1
 32 458 l 1,4,5
 73 582 73 582 85 716 c 1,0,-1
267 716 m 1,6,-1
 369 704 l 1,7,8
 362 588 362 588 332 422 c 1,9,-1
 214 458 l 1,10,11
 255 582 255 582 267 716 c 1,6,-1
EndSplineSet
EndChar

StartChar: quotedblright
Encoding: 8221 8221 252
Width: 390
GlyphClass: 2
Flags: W
LayerCount: 2
Fore
SplineSet
142 432 m 1,0,-1
 40 444 l 1,1,2
 47 560 47 560 77 726 c 1,3,-1
 195 690 l 1,4,5
 154 566 154 566 142 432 c 1,0,-1
323 432 m 1,6,-1
 221 444 l 1,7,8
 228 560 228 560 258 726 c 1,9,-1
 376 690 l 1,10,11
 335 566 335 566 323 432 c 1,6,-1
EndSplineSet
EndChar

StartChar: quotedblbase
Encoding: 8222 8222 253
Width: 390
GlyphClass: 2
Flags: W
LayerCount: 2
Fore
SplineSet
124 -108 m 1,0,-1
 22 -96 l 1,1,2
 29 20 29 20 59 186 c 1,3,-1
 177 150 l 1,4,5
 136 26 136 26 124 -108 c 1,0,-1
306 -108 m 1,6,-1
 204 -96 l 1,7,8
 211 20 211 20 241 186 c 1,9,-1
 359 150 l 1,10,11
 318 26 318 26 306 -108 c 1,6,-1
EndSplineSet
EndChar

StartChar: dagger
Encoding: 8224 8224 254
Width: 520
GlyphClass: 2
Flags: W
LayerCount: 2
Fore
SplineSet
38 489 m 1,0,-1
 177 496 l 1,1,2
 180 628 180 628 188 711 c 1,3,-1
 328 698 l 1,4,5
 320 608 320 608 318 497 c 1,6,7
 402 495 402 495 467 490 c 1,8,-1
 471 382 l 1,9,10
 408 387 408 387 316 389 c 1,11,-1
 316 323 l 2,12,13
 316 16 316 16 327 -132 c 1,14,-1
 189 -119 l 1,15,16
 176 49 176 49 176 323 c 2,17,-1
 176 388 l 1,18,19
 78 381 78 381 50 381 c 1,20,-1
 38 489 l 1,0,-1
EndSplineSet
EndChar

StartChar: daggerdbl
Encoding: 8225 8225 255
Width: 520
GlyphClass: 2
Flags: W
LayerCount: 2
Fore
SplineSet
38 219 m 1,0,1
 99 219 99 219 176 226 c 1,2,-1
 176 263 l 2,3,4
 176 346 176 346 177 388 c 1,5,6
 79 381 79 381 50 381 c 1,7,-1
 38 489 l 1,8,-1
 177 496 l 1,9,10
 180 628 180 628 188 711 c 1,11,-1
 328 698 l 1,12,13
 320 608 320 608 318 497 c 1,14,15
 402 495 402 495 467 490 c 1,16,-1
 471 382 l 1,17,18
 408 387 408 387 316 389 c 1,19,-1
 316 227 l 1,20,21
 402 225 402 225 467 220 c 1,22,-1
 471 112 l 1,23,24
 410 117 410 117 317 119 c 1,25,26
 319 -16 319 -16 327 -132 c 1,27,-1
 189 -119 l 1,28,29
 181 -22 181 -22 178 118 c 1,30,31
 80 111 80 111 50 111 c 1,32,-1
 38 219 l 1,0,1
EndSplineSet
EndChar

StartChar: bullet
Encoding: 8226 8226 256
Width: 590
GlyphClass: 2
Flags: W
LayerCount: 2
Fore
SplineSet
402 484 m 1,0,1
 419 453 419 453 419 389.5 c 128,-1,2
 419 326 419 326 399 239 c 1,3,-1
 172 260 l 1,4,5
 183 359 183 359 183 414.5 c 128,-1,6
 183 470 183 470 182 503 c 1,7,-1
 402 484 l 1,0,1
EndSplineSet
EndChar

StartChar: ellipsis
Encoding: 8230 8230 257
Width: 930
GlyphClass: 2
Flags: W
LayerCount: 2
Fore
SplineSet
225 159 m 1,0,1
 236 124 236 124 236 69.5 c 128,-1,2
 236 15 236 15 222 -21 c 1,3,-1
 87 -10 l 1,4,5
 96 67 96 67 96 107 c 128,-1,6
 96 147 96 147 95 171 c 1,7,-1
 225 159 l 1,0,1
528 159 m 1,8,9
 539 124 539 124 539 69.5 c 128,-1,10
 539 15 539 15 525 -21 c 1,11,-1
 390 -10 l 1,12,13
 399 66 399 66 399 106.5 c 128,-1,14
 399 147 399 147 398 171 c 1,15,-1
 528 159 l 1,8,9
832 159 m 1,16,17
 843 124 843 124 843 69.5 c 128,-1,18
 843 15 843 15 829 -21 c 1,19,-1
 694 -10 l 1,20,21
 703 67 703 67 703 107 c 128,-1,22
 703 147 703 147 702 171 c 1,23,-1
 832 159 l 1,16,17
EndSplineSet
EndChar

StartChar: perthousand
Encoding: 8240 8240 258
Width: 1012
GlyphClass: 2
Flags: W
LayerCount: 2
Fore
SplineSet
132 514 m 128,-1,1
 120 475 120 475 120 438 c 0,2,3
 120 370 120 370 162 370 c 0,4,5
 177 370 177 370 190 398.5 c 128,-1,6
 203 427 203 427 203 464 c 0,7,8
 203 553 203 553 164 553 c 0,9,0
 144 553 144 553 132 514 c 128,-1,1
64 320 m 128,-1,11
 28 361 28 361 28 435.5 c 128,-1,12
 28 510 28 510 65.5 576.5 c 128,-1,13
 103 643 103 643 166.5 643 c 128,-1,14
 230 643 230 643 262 593 c 128,-1,15
 294 543 294 543 294 468 c 128,-1,16
 294 393 294 393 253 336 c 128,-1,17
 212 279 212 279 162 279 c 0,18,10
 100 279 100 279 64 320 c 128,-1,11
502 210 m 128,-1,20
 490 171 490 171 490 134 c 0,21,22
 490 66 490 66 532 66 c 0,23,24
 547 66 547 66 560 94.5 c 128,-1,25
 573 123 573 123 573 160 c 0,26,27
 573 249 573 249 534 249 c 0,28,19
 514 249 514 249 502 210 c 128,-1,20
434 16 m 128,-1,30
 398 57 398 57 398 131.5 c 128,-1,31
 398 206 398 206 435.5 272.5 c 128,-1,32
 473 339 473 339 536.5 339 c 128,-1,33
 600 339 600 339 632 289 c 128,-1,34
 664 239 664 239 664 164 c 128,-1,35
 664 89 664 89 623 32 c 128,-1,36
 582 -25 582 -25 532 -25 c 0,37,29
 470 -25 470 -25 434 16 c 128,-1,30
837 210 m 128,-1,39
 825 171 825 171 825 134 c 0,40,41
 825 66 825 66 867 66 c 0,42,43
 882 66 882 66 895 94.5 c 128,-1,44
 908 123 908 123 908 160 c 0,45,46
 908 249 908 249 869 249 c 0,47,38
 849 249 849 249 837 210 c 128,-1,39
769 16 m 128,-1,49
 733 57 733 57 733 131.5 c 128,-1,50
 733 206 733 206 770.5 272.5 c 128,-1,51
 808 339 808 339 871.5 339 c 128,-1,52
 935 339 935 339 967 289 c 128,-1,53
 999 239 999 239 999 164 c 128,-1,54
 999 89 999 89 958 32 c 128,-1,55
 917 -25 917 -25 867 -25 c 0,56,48
 805 -25 805 -25 769 16 c 128,-1,49
183 -23 m 1,57,-1
 106 6 l 1,58,59
 356 442 356 442 560 666 c 1,60,-1
 624 626 l 1,61,62
 508 496 508 496 405 342 c 128,-1,63
 302 188 302 188 183 -23 c 1,57,-1
EndSplineSet
EndChar

StartChar: guilsinglleft
Encoding: 8249 8249 259
Width: 277
GlyphClass: 2
Flags: W
LayerCount: 2
Fore
SplineSet
145 425 m 1,0,-1
 250 400 l 1,1,2
 214 310 214 310 156 218 c 1,3,4
 202 113 202 113 255 45 c 1,5,-1
 159 4 l 1,6,7
 92 81 92 81 28 222 c 1,8,9
 105 329 105 329 145 425 c 1,0,-1
EndSplineSet
EndChar

StartChar: guilsinglright
Encoding: 8250 8250 260
Width: 277
GlyphClass: 2
Flags: W
LayerCount: 2
Fore
SplineSet
128 4 m 1,0,-1
 23 29 l 1,1,2
 59 119 59 119 117 211 c 1,3,4
 71 316 71 316 18 384 c 1,5,-1
 114 425 l 1,6,7
 181 348 181 348 245 207 c 1,8,9
 168 100 168 100 128 4 c 1,0,-1
EndSplineSet
EndChar

StartChar: fraction
Encoding: 8260 8260 261
Width: 546
GlyphClass: 2
Flags: W
LayerCount: 2
Fore
SplineSet
91 -23 m 1,0,-1
 14 6 l 1,1,2
 264 442 264 442 468 666 c 1,3,-1
 532 626 l 1,4,5
 416 496 416 496 313 342 c 128,-1,6
 210 188 210 188 91 -23 c 1,0,-1
EndSplineSet
EndChar

StartChar: franc
Encoding: 8355 8355 262
Width: 723
GlyphClass: 2
Flags: W
LayerCount: 2
Fore
SplineSet
421 688 m 1,0,-1
 421 565 l 1,1,2
 309 565 309 565 211 558 c 1,3,4
 209 529 209 529 207.5 455.5 c 128,-1,5
 206 382 206 382 205 365 c 1,6,7
 317 380 317 380 385 380 c 1,8,-1
 405 270 l 1,9,10
 293 267 293 267 204 256 c 1,11,12
 204 100 204 100 208 -19 c 1,13,-1
 73 -4 l 1,14,15
 71 158 71 158 71 297 c 128,-1,16
 71 436 71 436 87 662 c 1,17,18
 258 688 258 688 421 688 c 1,0,-1
661 361 m 0,19,20
 619 361 619 361 598 255 c 1,21,22
 600 185 600 185 600 121 c 128,-1,23
 600 57 600 57 596 -23 c 1,24,-1
 480 -13 l 1,25,26
 483 134 483 134 483 149 c 0,27,28
 483 334 483 334 465 432 c 1,29,-1
 540 424 l 1,30,31
 547 395 547 395 556 373 c 1,32,33
 605 478 605 478 655 478 c 0,34,35
 696 478 696 478 727 442 c 1,36,-1
 701 350 l 1,37,38
 685 361 685 361 661 361 c 0,19,20
EndSplineSet
EndChar

StartChar: Euro
Encoding: 8364 8364 263
Width: 484
GlyphClass: 2
Flags: W
LayerCount: 2
Fore
SplineSet
138 570.5 m 128,-1,1
 191 643 191 643 273 643 c 128,-1,2
 355 643 355 643 397.5 583 c 128,-1,3
 440 523 440 523 443 445 c 1,4,-1
 330 456 l 1,5,6
 330 543 330 543 274 543 c 0,7,8
 248 543 248 543 225.5 504 c 128,-1,9
 203 465 203 465 187 406 c 1,10,11
 292 416 292 416 390 416 c 1,12,-1
 394 341 l 1,13,14
 280 341 280 341 172 334 c 1,15,16
 168 304 168 304 167 290 c 1,17,18
 291 299 291 299 390 299 c 1,19,-1
 394 224 l 1,20,21
 245 224 245 224 166 220 c 1,22,23
 174 82 174 82 248 82 c 0,24,25
 279 82 279 82 296.5 112 c 128,-1,26
 314 142 314 142 327 193 c 1,27,-1
 437 182 l 1,28,29
 384 -18 384 -18 248 -18 c 0,30,31
 157 -18 157 -18 104.5 45.5 c 128,-1,32
 52 109 52 109 45 211 c 1,33,-1
 15 207 l 1,34,-1
 3 275 l 1,35,-1
 45 279 l 1,36,-1
 48 320 l 1,37,-1
 15 314 l 1,38,-1
 3 382 l 1,39,-1
 61 390 l 1,40,0
 85 498 85 498 138 570.5 c 128,-1,1
EndSplineSet
EndChar

StartChar: trademark
Encoding: 8482 8482 264
Width: 718
GlyphClass: 2
Flags: W
LayerCount: 2
Fore
SplineSet
152 432 m 1,0,1
 149 495 149 495 149 550.5 c 128,-1,2
 149 606 149 606 150 644 c 1,3,-1
 103 636 l 1,4,-1
 94 702 l 1,5,6
 147 710 147 710 274 716 c 1,7,-1
 282 652 l 1,8,9
 260 652 260 652 233 648 c 1,10,11
 231 618 231 618 231 545 c 128,-1,12
 231 472 231 472 233 428 c 1,13,-1
 152 432 l 1,0,1
398 625 m 1,14,-1
 407 426 l 1,15,-1
 329 432 l 1,16,17
 327 536 327 536 327 590.5 c 128,-1,18
 327 645 327 645 333 699 c 1,19,-1
 458 691 l 1,20,21
 465 643 465 643 471 572 c 1,22,23
 484 626 484 626 496 709 c 1,24,-1
 622 699 l 1,25,-1
 624 560 l 1,26,27
 624 464 624 464 621 421 c 1,28,-1
 542 428 l 1,29,30
 548 488 548 488 550 619 c 1,31,-1
 546 619 l 1,32,33
 530 526 530 526 514 452 c 1,34,-1
 428 459 l 1,35,36
 422 494 422 494 413.5 549.5 c 128,-1,37
 405 605 405 605 402 624 c 1,38,-1
 398 625 l 1,14,-1
EndSplineSet
EndChar

StartChar: partialdiff
Encoding: 8706 8706 265
Width: 429
GlyphClass: 2
Flags: W
LayerCount: 2
Fore
SplineSet
219 487 m 0,0,1
 233 487 233 487 255 485 c 1,2,3
 220 576 220 576 158 576 c 0,4,5
 142 576 142 576 100 547 c 1,6,-1
 38 627 l 1,7,8
 119 696 119 696 182 696 c 128,-1,9
 245 696 245 696 296.5 638 c 128,-1,10
 348 580 348 580 373 492 c 128,-1,11
 398 404 398 404 398.5 330.5 c 128,-1,12
 399 257 399 257 387.5 206.5 c 128,-1,13
 376 156 376 156 353 109 c 128,-1,14
 330 62 330 62 289.5 32 c 128,-1,15
 249 2 249 2 197 2 c 0,16,17
 103 2 103 2 66.5 55 c 128,-1,18
 30 108 30 108 30 205 c 0,19,20
 30 297 30 297 78 388 c 0,21,22
 100 431 100 431 137 459 c 128,-1,23
 174 487 174 487 219 487 c 0,0,1
211 110 m 0,24,25
 240 110 240 110 261 174.5 c 128,-1,26
 282 239 282 239 282 304 c 0,27,28
 282 379 282 379 218 379 c 0,29,30
 189 379 189 379 168 321 c 128,-1,31
 147 263 147 263 147 205 c 0,32,33
 147 110 147 110 211 110 c 0,24,25
EndSplineSet
EndChar

StartChar: increment
Encoding: 8710 8710 266
Width: 651
GlyphClass: 2
Flags: W
LayerCount: 2
Fore
SplineSet
439 676 m 1,0,-1
 616 -24 l 1,1,-1
 173 -45 l 1,2,-1
 35 -33 l 1,3,-1
 254 692 l 1,4,-1
 439 676 l 1,0,-1
337 561 m 1,5,-1
 203 72 l 1,6,-1
 450 82 l 1,7,-1
 337 561 l 1,5,-1
EndSplineSet
EndChar

StartChar: product
Encoding: 8719 8719 267
Width: 558
GlyphClass: 2
Flags: W
LayerCount: 2
Fore
SplineSet
367 -1 m 1,0,1
 377 149 377 149 377 330 c 128,-1,2
 377 511 377 511 374 600 c 1,3,4
 287 595 287 595 186 580 c 1,5,6
 184 412 184 412 184 280.5 c 128,-1,7
 184 149 184 149 188 -18 c 1,8,-1
 56 -6 l 1,9,10
 48 254 48 254 48 381 c 128,-1,11
 48 508 48 508 67 680 c 1,12,13
 165 697 165 697 214 701 c 128,-1,14
 263 705 263 705 355 712 c 1,15,-1
 505 699 l 1,16,17
 513 374 513 374 513 235.5 c 128,-1,18
 513 97 513 97 504 -14 c 1,19,-1
 367 -1 l 1,0,1
EndSplineSet
EndChar

StartChar: summation
Encoding: 8721 8721 268
Width: 447
GlyphClass: 2
Flags: W
LayerCount: 2
Fore
SplineSet
80 553 m 1,0,-1
 87 662 l 1,1,2
 258 688 258 688 421 688 c 1,3,-1
 421 565 l 1,4,5
 319 565 319 565 236 558 c 1,6,7
 342 462 342 462 396 401 c 1,8,-1
 396 289 l 1,9,10
 294 168 294 168 220 101 c 1,11,12
 301 108 301 108 413 131 c 1,13,-1
 430 21 l 1,14,15
 345 -18 345 -18 229 -18 c 1,16,-1
 75 -4 l 1,17,-1
 70 121 l 1,18,19
 180 213 180 213 291 344 c 1,20,21
 226 425 226 425 80 553 c 1,0,-1
EndSplineSet
EndChar

StartChar: minus
Encoding: 8722 8722 269
Width: 833
GlyphClass: 2
Flags: W
LayerCount: 2
Fore
SplineSet
123 355 m 1,0,-1
 479 363 l 1,1,2
 628 363 628 363 720 352 c 1,3,-1
 702 232 l 1,4,5
 621 243 621 243 489 243 c 1,6,-1
 123 235 l 1,7,-1
 123 355 l 1,0,-1
EndSplineSet
EndChar

StartChar: radical
Encoding: 8730 8730 270
Width: 584
GlyphClass: 2
Flags: W
LayerCount: 2
Fore
SplineSet
255 -16 m 1,0,-1
 127 -4 l 1,1,2
 53 294 53 294 37 463 c 1,3,-1
 151 453 l 1,4,5
 168 269 168 269 198 123 c 1,6,7
 255 325 255 325 332 723 c 1,8,9
 430 735 430 735 518 735 c 1,10,-1
 537 639 l 1,11,12
 488 639 488 639 423 632 c 1,13,14
 357 315 357 315 255 -16 c 1,0,-1
EndSplineSet
EndChar

StartChar: infinity
Encoding: 8734 8734 271
Width: 833
GlyphClass: 2
Flags: W
LayerCount: 2
Fore
SplineSet
411 422 m 1,0,1
 481 502 481 502 563.5 502 c 128,-1,2
 646 502 646 502 697.5 443 c 128,-1,3
 749 384 749 384 749 302.5 c 128,-1,4
 749 221 749 221 688.5 162 c 128,-1,5
 628 103 628 103 558 103 c 0,6,7
 464 103 464 103 413 195 c 1,8,9
 344 102 344 102 251 102 c 0,10,11
 195 102 195 102 138 146 c 0,12,13
 111 168 111 168 93 205.5 c 128,-1,14
 75 243 75 243 75 289 c 0,15,16
 75 365 75 365 135.5 426 c 128,-1,17
 196 487 196 487 274.5 487 c 128,-1,18
 353 487 353 487 411 422 c 1,0,1
620.5 358.5 m 128,-1,20
 602 382 602 382 575 382 c 128,-1,21
 548 382 548 382 529.5 366.5 c 128,-1,22
 511 351 511 351 502.5 336.5 c 128,-1,23
 494 322 494 322 481 296 c 1,24,25
 519 223 519 223 565 223 c 0,26,27
 598 223 598 223 618.5 247 c 128,-1,28
 639 271 639 271 639 303 c 128,-1,19
 639 335 639 335 620.5 358.5 c 128,-1,20
309.5 349.5 m 128,-1,30
 285 367 285 367 258 367 c 128,-1,31
 231 367 231 367 208 344 c 128,-1,32
 185 321 185 321 185 290 c 128,-1,33
 185 259 185 259 208 240.5 c 128,-1,34
 231 222 231 222 255 222 c 0,35,36
 298 222 298 222 346 308 c 1,37,29
 334 332 334 332 309.5 349.5 c 128,-1,30
EndSplineSet
EndChar

StartChar: integral
Encoding: 8747 8747 272
Width: 496
GlyphClass: 2
Flags: W
LayerCount: 2
Fore
SplineSet
307 326.5 m 128,-1,1
 326 188 326 188 326 92 c 128,-1,2
 326 -4 326 -4 287 -64.5 c 128,-1,3
 248 -125 248 -125 189 -125 c 128,-1,4
 130 -125 130 -125 100.5 -82 c 128,-1,5
 71 -39 71 -39 71 35 c 1,6,-1
 154 28 l 1,7,8
 154 -18 154 -18 179 -18 c 0,9,10
 209 -18 209 -18 209 102 c 0,11,12
 209 181 209 181 190 318.5 c 128,-1,13
 171 456 171 456 171 544.5 c 128,-1,14
 171 633 171 633 210 687.5 c 128,-1,15
 249 742 249 742 308.5 742 c 128,-1,16
 368 742 368 742 397 701 c 128,-1,17
 426 660 426 660 426 586 c 1,18,-1
 343 593 l 1,19,20
 343 635 343 635 318 635 c 0,21,22
 288 635 288 635 288 535 c 0,23,0
 288 465 288 465 307 326.5 c 128,-1,1
EndSplineSet
EndChar

StartChar: approxequal
Encoding: 8776 8776 273
Width: 833
GlyphClass: 2
Flags: W
LayerCount: 2
Fore
SplineSet
151.5 439.5 m 128,-1,1
 206 496 206 496 265.5 496 c 128,-1,2
 325 496 325 496 404 475 c 128,-1,3
 483 454 483 454 520 454 c 0,4,5
 608 454 608 454 660 511 c 1,6,-1
 748 504 l 1,7,8
 734 421 734 421 678.5 374.5 c 128,-1,9
 623 328 623 328 538 328 c 0,10,11
 476 328 476 328 395.5 353 c 128,-1,12
 315 378 315 378 283.5 378 c 128,-1,13
 252 378 252 378 228.5 357 c 128,-1,14
 205 336 205 336 197 307 c 1,15,-1
 85 318 l 1,16,0
 97 383 97 383 151.5 439.5 c 128,-1,1
151.5 227.5 m 128,-1,18
 206 284 206 284 265.5 284 c 128,-1,19
 325 284 325 284 404 263 c 128,-1,20
 483 242 483 242 520 242 c 0,21,22
 608 242 608 242 660 299 c 1,23,-1
 748 292 l 1,24,25
 734 209 734 209 678.5 162.5 c 128,-1,26
 623 116 623 116 538 116 c 0,27,28
 476 116 476 116 395.5 141 c 128,-1,29
 315 166 315 166 283.5 166 c 128,-1,30
 252 166 252 166 228.5 145 c 128,-1,31
 205 124 205 124 197 95 c 1,32,-1
 85 106 l 1,33,17
 97 171 97 171 151.5 227.5 c 128,-1,18
EndSplineSet
EndChar

StartChar: notequal
Encoding: 8800 8800 274
Width: 833
GlyphClass: 2
Flags: W
LayerCount: 2
Fore
SplineSet
123 464 m 1,0,-1
 453 472 l 1,1,2
 516 571 516 571 564 632 c 1,3,-1
 659 567 l 1,4,5
 626 526 626 526 588 470 c 1,6,7
 657 468 657 468 720 461 c 1,8,-1
 702 341 l 1,9,10
 634 350 634 350 514 352 c 1,11,-1
 457 253 l 1,12,-1
 479 253 l 2,13,14
 628 253 628 253 720 242 c 1,15,-1
 702 122 l 1,16,17
 621 133 621 133 522 133 c 128,-1,18
 423 133 423 133 390 132 c 1,19,20
 338 41 338 41 299 -24 c 1,21,-1
 204 28 l 1,22,-1
 257 127 l 1,23,24
 169 125 169 125 123 125 c 1,25,-1
 123 245 l 1,26,27
 207 245 207 245 324 250 c 1,28,-1
 380 350 l 1,29,30
 128 344 128 344 123 344 c 1,31,-1
 123 464 l 1,0,-1
EndSplineSet
EndChar

StartChar: lessequal
Encoding: 8804 8804 275
Width: 833
GlyphClass: 2
Flags: W
LayerCount: 2
Fore
SplineSet
123 104 m 1,0,-1
 479 112 l 1,1,2
 628 112 628 112 720 101 c 1,3,-1
 702 -9 l 1,4,5
 621 2 621 2 489 2 c 1,6,-1
 123 -6 l 1,7,-1
 123 104 l 1,0,-1
128 330 m 1,8,-1
 139 439 l 1,9,10
 449 527 449 527 675 625 c 1,11,-1
 700 500 l 1,12,13
 531 440 531 440 286 378 c 1,14,15
 539 296 539 296 705 265 c 1,16,-1
 679 154 l 1,17,18
 404 211 404 211 128 330 c 1,8,-1
EndSplineSet
EndChar

StartChar: greaterequal
Encoding: 8805 8805 276
Width: 833
GlyphClass: 2
Flags: W
LayerCount: 2
Fore
SplineSet
123 104 m 1,0,-1
 479 112 l 1,1,2
 628 112 628 112 720 101 c 1,3,-1
 702 -9 l 1,4,5
 621 2 621 2 489 2 c 1,6,-1
 123 -6 l 1,7,-1
 123 104 l 1,0,-1
705 434 m 1,8,-1
 694 325 l 1,9,10
 384 237 384 237 158 139 c 1,11,-1
 133 264 l 1,12,13
 302 324 302 324 547 386 c 1,14,15
 294 468 294 468 128 499 c 1,16,-1
 154 610 l 1,17,18
 429 553 429 553 705 434 c 1,8,-1
EndSplineSet
EndChar

StartChar: lozenge
Encoding: 9674 9674 277
Width: 521
GlyphClass: 2
Flags: W
LayerCount: 2
Fore
SplineSet
521 301 m 1,0,-1
 302 -179 l 1,1,-1
 197 -163 l 1,2,-1
 0 282 l 1,3,-1
 219 762 l 1,4,-1
 324 746 l 1,5,-1
 521 301 l 1,0,-1
422 306 m 1,6,-1
 267 661 l 1,7,-1
 98 277 l 1,8,-1
 253 -78 l 1,9,-1
 422 306 l 1,6,-1
EndSplineSet
EndChar

StartChar: dotaccentcmb.cap
Encoding: 57344 57344 278
Width: 234
GlyphClass: 2
Flags: W
LayerCount: 2
Fore
SplineSet
168 901 m 1,0,1
 179 885 179 885 179 844.5 c 128,-1,2
 179 804 179 804 165 780 c 1,3,-1
 55 790 l 1,4,5
 64 840 64 840 64 866 c 128,-1,6
 64 892 64 892 63 910 c 1,7,-1
 168 901 l 1,0,1
EndSplineSet
EndChar

